<svg width="20" height="20" viewBox="0 0 20 20"  xmlns="http://www.w3.org/2000/svg">
<path d="M0 1C0 0.447715 0.447715 0 1 0H7C7.55228 0 8 0.447715 8 1V7C8 7.55228 7.55228 8 7 8H1C0.447715 8 0 7.55228 0 7V1Z" />
<path d="M0 13C0 12.4477 0.447715 12 1 12H7C7.55228 12 8 12.4477 8 13V19C8 19.5523 7.55228 20 7 20H1C0.447715 20 0 19.5523 0 19V13Z" />
<path d="M12 1C12 0.447715 12.4477 0 13 0H19C19.5523 0 20 0.447715 20 1V7C20 7.55228 19.5523 8 19 8H13C12.4477 8 12 7.55228 12 7V1Z" />
<path d="M12 13C12 12.4477 12.4477 12 13 12H19C19.5523 12 20 12.4477 20 13V19C20 19.5523 19.5523 20 19 20H13C12.4477 20 12 19.5523 12 19V13Z" />
</svg>
