<svg width="16" height="16" viewBox="0 0 16 16" fill="none" xmlns="http://www.w3.org/2000/svg">
<path fill-rule="evenodd" clip-rule="evenodd" d="M9.53618 0.611342C9.56667 0.336888 9.81388 0.139115 10.0883 0.169605C11.5539 0.33242 12.9206 0.988731 13.964 2.03078C15.0073 3.07282 15.6653 4.43867 15.83 5.90405C15.8608 6.17846 15.6634 6.42592 15.389 6.45675C15.1145 6.48759 14.8671 6.29013 14.8363 6.01571C14.6969 4.77577 14.1401 3.62006 13.2573 2.73833C12.3744 1.8566 11.218 1.30126 9.97792 1.16349C9.70347 1.133 9.50569 0.885796 9.53618 0.611342ZM5.29628 2.03466C5.14296 1.90281 4.94692 1.8312 4.74471 1.83319L4.73979 1.83324V1.83321H2.74004C2.62443 1.83335 2.5101 1.85755 2.40434 1.90427C2.29852 1.95101 2.20358 2.01928 2.12558 2.10472C2.04758 2.19017 1.98823 2.29092 1.95131 2.40056C1.91475 2.50909 1.90096 2.62399 1.91079 2.73807C2.12185 4.71908 2.79624 6.62263 3.87943 8.2947L3.88182 8.29838L3.8818 8.29839C4.86599 9.84721 6.17913 11.1604 7.72795 12.1445L7.73185 12.147L7.73184 12.147C9.39616 13.2263 11.2902 13.9005 13.2621 14.1156C13.3764 14.1254 13.4915 14.1114 13.6001 14.0747C13.71 14.0375 13.811 13.9778 13.8965 13.8994C13.982 13.8209 14.0502 13.7255 14.0967 13.6191C14.2105 13.3589 14.2424 13.01 14.2308 12.5786C14.2256 12.3863 14.2125 12.1924 14.1991 11.9923C14.1978 11.9727 14.1964 11.953 14.1951 11.9332C14.1807 11.7176 14.1665 11.4922 14.1665 11.2799V11.2675L14.1666 11.2675C14.1717 11.0631 14.1015 10.8641 13.9693 10.7081C13.8376 10.5526 13.6535 10.4508 13.4519 10.4219C13.0918 10.3741 12.6961 10.2433 12.3524 10.1298C12.2506 10.0962 12.1533 10.0641 12.0629 10.0361C11.617 9.89792 11.2785 9.8343 11.0035 9.89295C10.8481 9.92608 10.7055 10.0029 10.5923 10.1144C10.592 10.1148 10.5917 10.1151 10.5914 10.1154L9.74668 10.9601C9.58752 11.1193 9.34164 11.1525 9.14598 11.0412C7.39871 10.0477 5.952 8.60096 4.95848 6.85369C4.84722 6.65803 4.88042 6.41215 5.03957 6.25299L5.88513 5.40744C5.99669 5.29429 6.07358 5.1516 6.10673 4.99618C6.13996 4.84036 6.12783 4.67828 6.07177 4.52914L6.07134 4.52802C5.83277 3.88866 5.66719 3.22439 5.57776 2.54786C5.54908 2.34841 5.44909 2.16608 5.29628 2.03466ZM4.73753 0.833215C5.18145 0.829488 5.61169 0.986971 5.94832 1.27648C6.28563 1.56656 6.50594 1.9694 6.5682 2.40991L6.56885 2.4145L6.56883 2.4145C6.64832 3.01716 6.79572 3.60889 7.00824 4.17841L6.53979 4.35321L7.00782 4.17728C7.13115 4.50538 7.15784 4.86196 7.08473 5.20476C7.01162 5.54756 6.84178 5.86222 6.59532 6.11145L6.59335 6.11344L6.59335 6.11343L6.02131 6.68547C6.84936 8.02305 7.97662 9.15032 9.31421 9.97836L9.88624 9.40633L9.88822 9.40435L9.88822 9.40436C10.1375 9.1579 10.4521 8.98805 10.7949 8.91494C11.3463 8.79735 11.9067 8.94078 12.3589 9.08087C12.495 9.12306 12.6214 9.16467 12.7405 9.20385C13.0601 9.30906 13.3263 9.3967 13.5852 9.43084L13.5896 9.43143L13.5896 9.43145C14.0349 9.49427 14.4416 9.71856 14.7323 10.0617C15.0215 10.403 15.1759 10.8383 15.1665 11.2854C15.1667 11.4582 15.1784 11.6501 15.1929 11.8665C15.1942 11.8865 15.1956 11.9067 15.197 11.927C15.2102 12.124 15.2246 12.3381 15.2304 12.5516C15.2429 13.0139 15.219 13.5484 15.0129 14.0198C14.9106 14.2537 14.7606 14.4636 14.5725 14.6362C14.3844 14.8088 14.1623 14.9402 13.9205 15.022C13.6786 15.1038 13.4224 15.1342 13.1681 15.1112L13.1591 15.1104L13.1591 15.1103C11.0307 14.879 8.98615 14.1519 7.18967 12.9873C5.5184 11.9249 4.10133 10.5078 3.03896 8.83655C1.87028 7.03188 1.14297 4.97738 0.915922 2.83935L0.915094 2.83155L0.915155 2.83155C0.892248 2.57806 0.922374 2.32258 1.00361 2.08137C1.08485 1.84016 1.21543 1.61851 1.38702 1.43053C1.55862 1.24256 1.76748 1.09237 2.0003 0.989527C2.23312 0.886688 2.4848 0.833455 2.73932 0.833215L2.73979 0.833214L4.73753 0.833215ZM9.54238 3.23747C9.59526 2.96644 9.85784 2.78959 10.1289 2.84247C10.8777 2.98857 11.5659 3.3548 12.1054 3.89428C12.6449 4.43377 13.0111 5.12197 13.1572 5.8708C13.2101 6.14183 13.0332 6.40441 12.7622 6.45729C12.4912 6.51017 12.2286 6.33333 12.1757 6.06229C12.0677 5.50881 11.797 5.00014 11.3983 4.60139C10.9995 4.20264 10.4909 3.93195 9.93738 3.82396C9.66635 3.77108 9.4895 3.5085 9.54238 3.23747Z" fill="#00ADEF"/>
</svg>
