<svg width="24" height="24" viewBox="0 0 24 24" fill="none" xmlns="http://www.w3.org/2000/svg">
<path fill-rule="evenodd" clip-rule="evenodd" d="M12.4974 4.00003C11.3351 3.99699 10.1884 4.26857 9.15088 4.79263L9.14709 4.79454L9.14709 4.79453C7.90143 5.41709 6.8537 6.37416 6.12125 7.55855C5.3888 8.74293 5.00057 10.1078 5.00003 11.5004L5.00003 11.5026C4.99699 12.665 5.26857 13.8116 5.79263 14.8492C5.91284 15.0872 5.93303 15.3633 5.84871 15.6163L4.59379 19.381L8.36894 18.0564C8.62567 17.9663 8.90802 17.9847 9.15088 18.1074C10.2369 18.6559 11.3816 19.0029 12.4974 19L12.4996 19C13.8922 18.9995 15.2571 18.6113 16.4415 17.8788C17.6259 17.1464 18.583 16.0986 19.2055 14.853L19.2074 14.8492C19.7315 13.8116 20.0031 12.665 20 11.5026C19.9998 11.4154 20.0108 11.3307 20.0316 11.2499C20.0155 11.1873 20.0052 11.1222 20.0015 11.0551C19.9001 9.21656 19.1241 7.48002 17.8221 6.17799C16.5263 4.88226 14.8003 4.10746 12.9716 4.00003H12.5L12.4974 4.00003ZM21.9685 11.2501C21.9889 11.3292 21.9998 11.412 22 11.4974C22.0039 12.974 21.6591 14.4307 20.9937 15.7488C20.2051 17.3259 18.9931 18.6524 17.4934 19.5798C15.9935 20.5074 14.2649 20.9992 12.5013 21C11.1315 21.0033 9.814 20.624 8.6391 20.0812L3.33112 21.9436C2.97104 22.07 2.57044 21.9804 2.2985 21.7127C2.02655 21.445 1.93067 21.0458 2.05135 20.6838L3.82392 15.3661C3.27825 14.1516 2.99671 12.8332 3.00003 11.4986C3.00091 9.73502 3.49267 8.00652 4.42024 6.50661C5.34764 5.00699 6.67407 3.79507 8.25107 3.00647C9.56887 2.34122 11.0251 1.99639 12.5013 2.00003H13C13.0184 2.00003 13.0368 2.00053 13.0551 2.00155C15.3853 2.1301 17.5861 3.11361 19.2363 4.76378C20.8864 6.41395 21.87 8.6148 21.9985 10.9449C22.0043 11.0504 21.9936 11.153 21.9685 11.2501ZM12.5013 21C12.501 21 12.5007 21 12.5004 21L12.5 20L12.5026 21C12.5022 21 12.5017 21 12.5013 21Z" fill="#0C131D"/>
</svg>
