<svg width="40" height="40" viewBox="0 0 40 40" xmlns="http://www.w3.org/2000/svg">
<path d="M13.7533 30.7652C12.4367 32.9402 11.845 35.0002 9.5 35.0002C7.015 35.0002 5 32.9285 5 30.3718C5 27.8152 7.015 25.7418 9.5 25.7418C11.8333 25.7418 13.75 27.5668 13.9767 29.9052C13.9965 30.2079 13.9182 30.5089 13.7533 30.7635V30.7652ZM13.7533 30.7652L17 24.9718M26.2467 30.7652C27.5633 32.9402 28.155 35.0002 30.5 35.0002C32.985 35.0002 35 32.9285 35 30.3718C35 27.8152 32.985 25.7418 30.5 25.7418C28.1667 25.7418 26.25 27.5668 26.0217 29.9052C25.9933 30.2085 26.0883 30.5052 26.2467 30.7635M26.2467 30.7652V30.7635M26.2467 30.7652L11.8217 5.57683C11.7333 5.41724 11.6065 5.28217 11.4529 5.18384C11.2992 5.0855 11.1234 5.02699 10.9415 5.01359C10.7596 5.0002 10.5771 5.03233 10.4107 5.1071C10.2443 5.18186 10.0991 5.29691 9.98833 5.44183C7.14833 9.09183 7.43167 14.3585 10.6467 17.6635L26.2467 30.7635M19.9183 19.7152L28.1733 5.5585C28.2629 5.40045 28.3903 5.26705 28.544 5.17022C28.6977 5.07339 28.8731 5.01615 29.0543 5.0036C29.2356 4.99106 29.4171 5.0236 29.5827 5.09833C29.7483 5.17305 29.8928 5.28763 30.0033 5.43183C32.8483 9.0885 32.565 14.3618 29.345 17.6735L27.5 19.5702" stroke="black" stroke-width="2" stroke-linecap="round" stroke-linejoin="round"/>
</svg>
