<svg width="17" height="16" viewBox="0 0 17 16" fill="none" xmlns="http://www.w3.org/2000/svg">
<path fill-rule="evenodd" clip-rule="evenodd" d="M12.1464 1.39645C12.3417 1.20118 12.6583 1.20118 12.8536 1.39645L14.8536 3.39645C15.0488 3.59171 15.0488 3.90829 14.8536 4.10355L12.8536 6.10355C12.6583 6.29882 12.3417 6.29882 12.1464 6.10355C11.9512 5.90829 11.9512 5.59171 12.1464 5.39645L13.2929 4.25H5.16667C4.59203 4.25 4.04093 4.47827 3.6346 4.8846C3.22827 5.29093 3 5.84203 3 6.41667V7.75C3 8.02614 2.77614 8.25 2.5 8.25C2.22386 8.25 2 8.02614 2 7.75V6.41667C2 5.57682 2.33363 4.77136 2.9275 4.1775C3.52136 3.58363 4.32681 3.25 5.16667 3.25H13.2929L12.1464 2.10355C11.9512 1.90829 11.9512 1.59171 12.1464 1.39645ZM14 9.58333V8.25C14 7.97386 14.2239 7.75 14.5 7.75C14.7761 7.75 15 7.97386 15 8.25V9.58333C15 10.4232 14.6664 11.2286 14.0725 11.8225C13.4786 12.4164 12.6732 12.75 11.8333 12.75H3.70711L4.85355 13.8964C5.04882 14.0917 5.04882 14.4083 4.85355 14.6036C4.65829 14.7988 4.34171 14.7988 4.14645 14.6036L2.14645 12.6036C1.95118 12.4083 1.95118 12.0917 2.14645 11.8964L4.14645 9.89645C4.34171 9.70118 4.65829 9.70118 4.85355 9.89645C5.04882 10.0917 5.04882 10.4083 4.85355 10.6036L3.70711 11.75H11.8333C12.408 11.75 12.9591 11.5217 13.3654 11.1154C13.7717 10.7091 14 10.158 14 9.58333Z" fill="#00ADEF"/>
</svg>
