<svg width="16" height="18" viewBox="0 0 16 18" fill="none" xmlns="http://www.w3.org/2000/svg">
<path fill-rule="evenodd" clip-rule="evenodd" d="M4.11092 1.77791C5.14237 0.746455 6.54132 0.166992 8.00001 0.166992C9.4587 0.166992 10.8576 0.746455 11.8891 1.77791C12.7124 2.60124 13.1276 3.6016 13.359 4.63729C13.5576 5.52635 13.6266 6.47499 13.6922 7.37782C13.7021 7.51383 13.7119 7.64881 13.7221 7.78238C13.8823 9.88595 14.1407 11.6599 15.7774 12.751C15.9607 12.8732 16.0424 13.101 15.9786 13.3119C15.9147 13.5228 15.7203 13.667 15.5 13.667H0.500008C0.279675 13.667 0.0853115 13.5228 0.0214623 13.3119C-0.0423868 13.101 0.0393297 12.8732 0.222658 12.751C1.85931 11.6599 2.11772 9.88595 2.27791 7.78238C2.28808 7.64881 2.2979 7.51384 2.30779 7.37782C2.37344 6.475 2.44243 5.52635 2.64103 4.63729C2.87238 3.6016 3.28759 2.60124 4.11092 1.77791ZM8.00001 1.16699C6.80653 1.16699 5.66194 1.6411 4.81803 2.48501C4.17228 3.13076 3.82274 3.93415 3.61698 4.85529C3.43574 5.66665 3.3723 6.53401 3.30577 7.44359C3.29573 7.58088 3.28562 7.71914 3.27502 7.85831C3.14909 9.51202 2.95999 11.3048 1.80993 12.667H14.1901C13.04 11.3048 12.8509 9.51202 12.725 7.85831C12.7144 7.71914 12.7043 7.58088 12.6942 7.44358C12.6277 6.53401 12.5643 5.66665 12.383 4.85529C12.1773 3.93415 11.8277 3.13076 11.182 2.48501C10.3381 1.6411 9.19348 1.16699 8.00001 1.16699ZM6.30745 16.0678C6.54632 15.9293 6.85228 16.0106 6.99084 16.2495C7.0934 16.4263 7.2406 16.573 7.41771 16.675C7.59482 16.777 7.79562 16.8307 8.00001 16.8307C8.2044 16.8307 8.4052 16.777 8.5823 16.675C8.75941 16.573 8.90662 16.4263 9.00917 16.2495C9.14773 16.0106 9.4537 15.9293 9.69256 16.0678C9.93142 16.2064 10.0127 16.5124 9.87417 16.7512C9.68371 17.0796 9.41033 17.3521 9.08142 17.5416C8.7525 17.731 8.37958 17.8307 8.00001 17.8307C7.62043 17.8307 7.24751 17.731 6.91859 17.5416C6.58968 17.3521 6.3163 17.0796 6.12584 16.7512C5.98728 16.5124 6.06859 16.2064 6.30745 16.0678Z" fill="#E72696"/>
</svg>
