<svg width="33" height="32" viewBox="0 0 33 32" xmlns="http://www.w3.org/2000/svg">
<path d="M19.5 29L12.5 24L5.5 29V13C5.5 12.4696 5.71071 11.9609 6.08579 11.5858C6.46086 11.2107 6.96957 11 7.5 11H17.5C18.0304 11 18.5391 11.2107 18.9142 11.5858C19.2893 11.9609 19.5 12.4696 19.5 13V29Z"  stroke-width="2" stroke-linecap="round" stroke-linejoin="round"/>
<path d="M12.5 6C12.5 3.79086 14.2909 2 16.5 2H26.5C28.7091 2 30.5 3.79086 30.5 6V13C30.5 15.2091 28.7091 17 26.5 17H16.5C14.2909 17 12.5 15.2091 12.5 13V6Z" />
<path d="M20.1992 10.7891H21.166V12.1543H20.1992V14H18.5059V12.1543H15.0078L14.9316 11.0879L18.4883 5.46875H20.1992V10.7891ZM16.6191 10.7891H18.5059V7.77734L18.3945 7.9707L16.6191 10.7891ZM27.0898 10.7891H28.0566V12.1543H27.0898V14H25.3965V12.1543H21.8984L21.8223 11.0879L25.3789 5.46875H27.0898V10.7891ZM23.5098 10.7891H25.3965V7.77734L25.2852 7.9707L23.5098 10.7891Z" fill="white"/>
<path d="M16.5 3.6H26.5V0.4H16.5V3.6ZM28.9 6V13H32.1V6H28.9ZM26.5 15.4H16.5V18.6H26.5V15.4ZM14.1 13V6H10.9V13H14.1ZM16.5 15.4C15.1745 15.4 14.1 14.3255 14.1 13H10.9C10.9 16.0928 13.4072 18.6 16.5 18.6V15.4ZM28.9 13C28.9 14.3255 27.8255 15.4 26.5 15.4V18.6C29.5928 18.6 32.1 16.0928 32.1 13H28.9ZM26.5 3.6C27.8255 3.6 28.9 4.67452 28.9 6H32.1C32.1 2.90721 29.5928 0.4 26.5 0.4V3.6ZM16.5 0.4C13.4072 0.4 10.9 2.90721 10.9 6H14.1C14.1 4.67452 15.1745 3.6 16.5 3.6V0.4Z"/>
</svg>
