<svg width="40" height="40" viewBox="0 0 40 40"  xmlns="http://www.w3.org/2000/svg">
<path d="M14.0665 33.4609L13.5109 34.2924L14.0665 33.4609ZM10.1328 28.6677L9.20894 29.0504H9.20894L10.1328 28.6677ZM9.52505 22.4969L8.54426 22.3018V22.3019L9.52505 22.4969ZM12.448 17.0284L11.7409 16.3213H11.7409L12.448 17.0284ZM17.9165 14.1055L18.1116 15.0863H18.1116L17.9165 14.1055ZM24.0873 14.7132L23.7046 15.6371H23.7046L24.0873 14.7132ZM28.8805 18.6469L28.049 19.2025L28.8805 18.6469ZM30.6804 5L31.6091 5.37087C31.7322 5.0628 31.6944 4.71378 31.5084 4.43914C31.3223 4.1645 31.0122 4 30.6804 4V5ZM23.5602 5V4C23.1513 4 22.7836 4.24895 22.6318 4.62861L23.5602 5ZM26.3015 15.9651L25.7105 16.7718C25.96 16.9545 26.28 17.0116 26.5772 16.9264C26.8745 16.8411 27.1156 16.6231 27.2302 16.3359L26.3015 15.9651ZM13.6988 15.9651L12.7701 16.336C12.8847 16.6232 13.1258 16.8411 13.4231 16.9264C13.7203 17.0116 14.0403 16.9545 14.2898 16.7718L13.6988 15.9651ZM16.44 5L17.3685 4.62861C17.2166 4.24895 16.8489 4 16.44 4V5ZM9.31983 5V4C8.9881 4 8.67797 4.1645 8.49192 4.43914C8.30587 4.71378 8.26812 5.0628 8.39114 5.37087L9.31983 5ZM16.4646 25.2876L17.1717 24.5805H17.1717L16.4646 25.2876ZM16.4646 23.8734L15.7575 23.1663L16.4646 23.8734ZM20.7072 28.1161L20.0001 27.409L20.7072 28.1161ZM19.293 28.1161L18.5859 28.8232L19.293 28.1161ZM23.5357 23.8734L24.2428 23.1663L23.5357 23.8734ZM23.5357 25.2876L24.2428 25.9947L23.5357 25.2876ZM20.7072 21.045L20.0001 21.7521L20.7072 21.045ZM19.293 21.045L20.0001 21.7521L19.293 21.045ZM20.0001 34.2609C18.0856 34.2609 16.214 33.6931 14.622 32.6294L13.5109 34.2924C15.4317 35.5758 17.69 36.2609 20.0001 36.2609V34.2609ZM14.622 32.6294C13.0301 31.5658 11.7894 30.0539 11.0567 28.2851L9.20894 29.0504C10.093 31.1847 11.5901 33.0089 13.5109 34.2924L14.622 32.6294ZM11.0567 28.2851C10.324 26.5162 10.1323 24.5698 10.5058 22.692L8.54426 22.3019C8.09358 24.5676 8.32488 26.9161 9.20894 29.0504L11.0567 28.2851ZM10.5058 22.692C10.8794 20.8142 11.8013 19.0894 13.1551 17.7356L11.7409 16.3213C10.1074 17.9549 8.99495 20.0361 8.54426 22.3018L10.5058 22.692ZM13.1551 17.7356C13.5083 17.3824 13.8867 17.0586 14.2865 16.7663L13.1061 15.1518C12.6237 15.5045 12.1671 15.8952 11.7409 16.3213L13.1551 17.7356ZM14.2865 16.7663C15.4193 15.938 16.7237 15.3623 18.1116 15.0863L17.7214 13.1247C16.0467 13.4578 14.4729 14.1524 13.1061 15.1518L14.2865 16.7663ZM18.1116 15.0863C18.7365 14.962 19.3691 14.9003 20.0001 14.9003L20.0001 12.9003C19.2387 12.9003 18.4755 12.9747 17.7214 13.1247L18.1116 15.0863ZM20.0001 14.9003C21.2653 14.9003 22.5245 15.1483 23.7046 15.6371L24.47 13.7894C23.046 13.1995 21.5266 12.9003 20.0001 12.9003L20.0001 14.9003ZM23.7046 15.6371C24.4207 15.9337 25.0946 16.3136 25.7137 16.7663L26.8942 15.1518C26.1471 14.6056 25.334 14.1472 24.47 13.7894L23.7046 15.6371ZM25.7137 16.7663C26.6241 17.4319 27.4159 18.255 28.049 19.2025L29.712 18.0913C28.948 16.9481 27.9926 15.9549 26.8942 15.1518L25.7137 16.7663ZM28.049 19.2025C29.1127 20.7944 29.6804 22.666 29.6804 24.5806H31.6804C31.6804 22.2704 30.9954 20.0121 29.712 18.0913L28.049 19.2025ZM29.6804 24.5806C29.6804 27.1479 28.6606 29.6102 26.8451 31.4256L28.2594 32.8398C30.4498 30.6493 31.6804 27.6784 31.6804 24.5806H29.6804ZM26.8451 31.4256C25.0297 33.241 22.5675 34.2609 20.0001 34.2609V36.2609C23.0979 36.2609 26.0689 35.0303 28.2594 32.8398L26.8451 31.4256ZM30.6804 4H23.5602V6H30.6804V4ZM22.6318 4.62861L19.0717 13.5289L20.9286 14.2716L24.4887 5.37139L22.6318 4.62861ZM19.9991 14.9003C22.0533 14.9023 24.0535 15.5578 25.7105 16.7718L26.8925 15.1585C24.8932 13.6936 22.4797 12.9028 20.0011 12.9003L19.9991 14.9003ZM27.2302 16.3359L27.2327 16.3298L25.3752 15.5882L25.3728 15.5943L27.2302 16.3359ZM27.2326 16.3299L31.6091 5.37087L29.7518 4.62913L25.3753 15.5882L27.2326 16.3299ZM14.2898 16.7718C15.9468 15.5578 17.947 14.9023 20.0011 14.9003L19.9991 12.9003C17.5206 12.9028 15.1071 13.6936 13.1077 15.1585L14.2898 16.7718ZM20.9286 13.5289L17.3685 4.62861L15.5116 5.37139L19.0717 14.2716L20.9286 13.5289ZM16.44 4H9.31983V6H16.44V4ZM8.39114 5.37087L12.7676 16.3299L14.625 15.5882L10.2485 4.62913L8.39114 5.37087ZM12.7676 16.3299L12.7701 16.336L14.6274 15.5943L14.625 15.5882L12.7676 16.3299ZM20.0001 21.7521L22.8285 24.5805L24.2428 23.1663L21.4143 20.3379L20.0001 21.7521ZM22.8285 24.5805L20.0001 27.409L21.4143 28.8232L24.2428 25.9947L22.8285 24.5805ZM20.0001 27.409L17.1717 24.5805L15.7575 25.9947L18.5859 28.8232L20.0001 27.409ZM17.1717 24.5805L20.0001 21.7521L18.5859 20.3379L15.7575 23.1663L17.1717 24.5805ZM17.1717 24.5805V24.5805L15.7575 23.1663C14.9764 23.9474 14.9764 25.2137 15.7575 25.9947L17.1717 24.5805ZM20.0001 27.409V27.409L18.5859 28.8232C19.367 29.6042 20.6333 29.6042 21.4143 28.8232L20.0001 27.409ZM22.8285 24.5805V24.5805L24.2428 25.9947C25.0238 25.2137 25.0238 23.9474 24.2428 23.1663L22.8285 24.5805ZM21.4143 20.3379C20.6333 19.5568 19.367 19.5568 18.5859 20.3379L20.0001 21.7521L21.4143 20.3379Z" />
</svg>
