<svg width="20" height="19" viewBox="0 0 20 19" fill="none" xmlns="http://www.w3.org/2000/svg">
<path fill-rule="evenodd" clip-rule="evenodd" d="M0.333333 0.833984C0.333333 0.557842 0.557191 0.333984 0.833333 0.333984H4.16667C4.40498 0.333984 4.61017 0.502177 4.65694 0.735856L5.41046 4.50065H19.1667C19.3157 4.50065 19.4569 4.56711 19.5519 4.68193C19.6469 4.79674 19.6857 4.94794 19.6578 5.09431L18.3245 12.086L18.3238 12.0897C18.2247 12.5885 17.9534 13.0365 17.5572 13.3554C17.1625 13.6732 16.6688 13.8425 16.1622 13.834H8.0711C7.56449 13.8425 7.07086 13.6732 6.67609 13.3554C6.28013 13.0366 6.00885 12.5888 5.90969 12.0903C5.90965 12.0901 5.90962 12.0899 5.90958 12.0897L4.51563 5.12516C4.51127 5.10816 4.50779 5.09082 4.50522 5.07318L3.75682 1.33398H0.833333C0.557191 1.33398 0.333333 1.11013 0.333333 0.833984ZM5.61061 5.50065L6.89028 11.8942L6.89042 11.8949C6.94376 12.1635 7.08987 12.4047 7.30315 12.5764C7.51644 12.7481 7.78333 12.8393 8.05709 12.8341L8.06667 12.8339V12.834H16.1667H16.1762L16.1762 12.8341C16.45 12.8393 16.7169 12.7481 16.9302 12.5764C17.143 12.4051 17.289 12.1645 17.3426 11.8966C17.3427 11.896 17.3428 11.8955 17.3429 11.8949L18.5623 5.50065H5.61061ZM7.5 17.1673C7.3159 17.1673 7.16667 17.3166 7.16667 17.5007C7.16667 17.6847 7.3159 17.834 7.5 17.834C7.68409 17.834 7.83333 17.6847 7.83333 17.5007C7.83333 17.3166 7.68409 17.1673 7.5 17.1673ZM6.16667 17.5007C6.16667 16.7643 6.76362 16.1673 7.5 16.1673C8.23638 16.1673 8.83333 16.7643 8.83333 17.5007C8.83333 18.237 8.23638 18.834 7.5 18.834C6.76362 18.834 6.16667 18.237 6.16667 17.5007ZM16.6667 17.1673C16.4826 17.1673 16.3333 17.3166 16.3333 17.5007C16.3333 17.6847 16.4826 17.834 16.6667 17.834C16.8508 17.834 17 17.6847 17 17.5007C17 17.3166 16.8508 17.1673 16.6667 17.1673ZM15.3333 17.5007C15.3333 16.7643 15.9303 16.1673 16.6667 16.1673C17.403 16.1673 18 16.7643 18 17.5007C18 18.237 17.403 18.834 16.6667 18.834C15.9303 18.834 15.3333 18.237 15.3333 17.5007Z" fill="#E72696"/>
</svg>
