<svg width="20" height="20" viewBox="0 0 20 20" xmlns="http://www.w3.org/2000/svg">
<path fill-rule="evenodd" clip-rule="evenodd" d="M0.75 2.5C0.75 2.22386 0.973858 2 1.25 2H12.5C12.7761 2 13 2.22386 13 2.5V5.125H15.625C15.7576 5.125 15.8848 5.17768 15.9786 5.27145L19.1036 8.39645C19.1973 8.49021 19.25 8.61739 19.25 8.75V14.375C19.25 14.6511 19.0261 14.875 18.75 14.875H16.8412C16.8634 15.0176 16.875 15.1637 16.875 15.3125C16.875 16.8658 15.6158 18.125 14.0625 18.125C12.5092 18.125 11.25 16.8658 11.25 15.3125C11.25 15.1637 11.2616 15.0176 11.2838 14.875H8.09117C8.11344 15.0176 8.125 15.1637 8.125 15.3125C8.125 16.8658 6.8658 18.125 5.3125 18.125C3.7592 18.125 2.5 16.8658 2.5 15.3125C2.5 15.1637 2.51156 15.0176 2.53383 14.875H1.25C0.973858 14.875 0.75 14.6511 0.75 14.375V2.5ZM11.6446 13.875C12.1352 13.0516 13.0344 12.5 14.0625 12.5C15.0906 12.5 15.9898 13.0516 16.4804 13.875H18.25V8.95711L15.4179 6.125H13V10C13 10.2761 12.7761 10.5 12.5 10.5C12.2239 10.5 12 10.2761 12 10V5.625V3H1.75V13.875H2.89461C3.38519 13.0516 4.28443 12.5 5.3125 12.5C6.34057 12.5 7.23981 13.0516 7.73039 13.875H11.6446ZM5.3125 17.125C6.31352 17.125 7.125 16.3135 7.125 15.3125C7.125 14.3115 6.31352 13.5 5.3125 13.5C4.31148 13.5 3.5 14.3115 3.5 15.3125C3.5 16.3135 4.31148 17.125 5.3125 17.125ZM15.875 15.3125C15.875 16.3135 15.0635 17.125 14.0625 17.125C13.0615 17.125 12.25 16.3135 12.25 15.3125C12.25 14.3115 13.0615 13.5 14.0625 13.5C15.0635 13.5 15.875 14.3115 15.875 15.3125Z"/>
</svg>
