<svg width="23" height="23" viewBox="0 0 23 23" fill="none" xmlns="http://www.w3.org/2000/svg">
<path fill-rule="evenodd" clip-rule="evenodd" d="M19 2.37891C18.7026 2.37891 18.4174 2.49705 18.2071 2.70733L8.90296 12.0115L8.37437 14.1259L10.4888 13.5973L19.7929 4.29312C20.0032 4.08283 20.1213 3.79762 20.1213 3.50023C20.1213 3.20283 20.0032 2.91762 19.7929 2.70733C19.5826 2.49705 19.2974 2.37891 19 2.37891ZM16.7929 1.29312C17.3783 0.707759 18.1722 0.378906 19 0.378906C19.8278 0.378906 20.6217 0.707759 21.2071 1.29312C21.7925 1.87848 22.1213 2.6724 22.1213 3.50023C22.1213 4.32805 21.7925 5.12197 21.2071 5.70733L11.7071 15.2073C11.5789 15.3355 11.4184 15.4264 11.2425 15.4704L7.24254 16.4704C6.90176 16.5556 6.54127 16.4557 6.29289 16.2073C6.04451 15.959 5.94466 15.5985 6.02986 15.2577L7.02986 11.2577C7.07382 11.0819 7.16473 10.9213 7.29289 10.7931L16.7929 1.29312ZM0.87868 3.37891C1.44129 2.8163 2.20435 2.50023 3 2.50023H10C10.5523 2.50023 11 2.94794 11 3.50023C11 4.05251 10.5523 4.50023 10 4.50023H3C2.73478 4.50023 2.48043 4.60558 2.29289 4.79312C2.10536 4.98066 2 5.23501 2 5.50023V19.5002C2 19.7654 2.10536 20.0198 2.29289 20.2073C2.48043 20.3949 2.73478 20.5002 3 20.5002H17C17.2652 20.5002 17.5196 20.3949 17.7071 20.2073C17.8946 20.0198 18 19.7654 18 19.5002V12.5002C18 11.9479 18.4477 11.5002 19 11.5002C19.5523 11.5002 20 11.9479 20 12.5002V19.5002C20 20.2959 19.6839 21.0589 19.1213 21.6215C18.5587 22.1842 17.7957 22.5002 17 22.5002H3C2.20435 22.5002 1.44129 22.1842 0.87868 21.6215C0.31607 21.0589 0 20.2959 0 19.5002V5.50023C0 4.70458 0.31607 3.94152 0.87868 3.37891Z" fill="#00ADEF"/>
</svg>
