<svg width="16" height="18" viewBox="0 0 16 18" fill="none" xmlns="http://www.w3.org/2000/svg">
<path fill-rule="evenodd" clip-rule="evenodd" d="M11.1323 1.58398C10.4451 1.58398 9.78652 1.85578 9.30127 2.33885L2.20962 9.39874C1.43485 10.17 1 11.2157 1 12.3055C1 13.3953 1.43485 14.4409 2.20962 15.2122C2.98446 15.9836 4.03584 16.4173 5.1326 16.4173C6.22936 16.4173 7.28074 15.9836 8.05558 15.2122L15.1472 8.1523C15.3429 7.95748 15.6595 7.95819 15.8543 8.15389C16.0492 8.34959 16.0485 8.66617 15.8528 8.86099L8.7611 15.9209C7.79838 16.8793 6.49313 17.4173 5.1326 17.4173C3.77207 17.4173 2.46682 16.8793 1.5041 15.9209C0.541302 14.9624 0 13.6619 0 12.3055C0 10.949 0.541302 9.64853 1.5041 8.69005L8.59575 1.63016C9.26888 0.960046 10.1814 0.583984 11.1323 0.583984C12.0833 0.583984 12.9958 0.960046 13.6689 1.63016C15.0543 3.00927 15.0543 5.30783 13.6689 6.68694L13.6687 6.68714L6.56956 13.7468C6.56952 13.7469 6.56948 13.7469 6.56944 13.747C6.56941 13.747 6.56939 13.747 6.56936 13.747C6.18585 14.1287 5.66623 14.3428 5.12488 14.3428C4.58345 14.3428 4.06374 14.1286 3.68021 13.7468C3.2966 13.3649 3.08068 12.8465 3.08068 12.3055C3.08068 11.7644 3.2966 11.246 3.68021 10.8641L3.68042 10.8639L4.03297 11.2184C3.68042 10.8639 3.68043 10.8639 3.68046 10.8638L3.6806 10.8637L3.68115 10.8632L3.68332 10.861L3.69195 10.8524L3.72589 10.8187L3.85699 10.6883L4.3443 10.2038L5.99672 8.56068L10.2319 4.34943C10.4277 4.15472 10.7443 4.15562 10.939 4.35143C11.1337 4.54725 11.1328 4.86383 10.937 5.05854L6.70182 9.26979L5.0494 10.9129L4.56209 11.3974L4.43099 11.5278L4.39705 11.5615L4.38842 11.5701L4.38625 11.5723L4.38573 11.5728C4.19015 11.7675 4.08068 12.0311 4.08068 12.3055C4.08068 12.5798 4.19015 12.8434 4.38573 13.0381C4.58138 13.2329 4.84722 13.3428 5.12488 13.3428C5.40254 13.3428 5.66838 13.2329 5.86404 13.0381L5.86423 13.038L12.9634 5.97825C13.9561 4.99002 13.9561 3.32708 12.9634 2.33885C12.4782 1.85578 11.8196 1.58398 11.1323 1.58398Z" fill="#00ADEF"/>
</svg>
