<svg width="16" height="16" viewBox="0 0 16 16" xmlns="http://www.w3.org/2000/svg">
<path d="M8.16 15.312C7.14667 15.312 6.19733 15.12 5.312 14.736C4.42667 14.3627 3.64267 13.84 2.96 13.168C2.288 12.4853 1.76 11.7013 1.376 10.816C1.00267 9.93067 0.816 8.98133 0.816 7.968C0.816 6.95467 1.00267 6.00533 1.376 5.12C1.76 4.23467 2.288 3.456 2.96 2.784C3.64267 2.10133 4.42667 1.57333 5.312 1.2C6.19733 0.816 7.14667 0.624 8.16 0.624C9.17333 0.624 10.1227 0.816 11.008 1.2C11.8933 1.57333 12.672 2.10133 13.344 2.784C14.0267 3.456 14.5547 4.23467 14.928 5.12C15.312 6.00533 15.504 6.95467 15.504 7.968C15.504 8.98133 15.312 9.93067 14.928 10.816C14.5547 11.7013 14.0267 12.4853 13.344 13.168C12.672 13.84 11.8933 14.3627 11.008 14.736C10.1227 15.12 9.17333 15.312 8.16 15.312ZM7.344 11.984V6.096H8.96V11.984H7.344ZM8.16 13.936C8.98133 13.936 9.74933 13.7813 10.464 13.472C11.1893 13.1627 11.824 12.736 12.368 12.192C12.9227 11.6373 13.3547 11.0027 13.664 10.288C13.9733 9.56267 14.128 8.78933 14.128 7.968C14.128 7.14667 13.9733 6.37867 13.664 5.664C13.3547 4.93867 12.9227 4.304 12.368 3.76C11.824 3.20533 11.1893 2.77333 10.464 2.464C9.74933 2.15467 8.98133 2 8.16 2C7.33867 2 6.56533 2.15467 5.84 2.464C5.12533 2.77333 4.49067 3.20533 3.936 3.76C3.392 4.304 2.96533 4.93867 2.656 5.664C2.34667 6.37867 2.192 7.14667 2.192 7.968C2.192 8.78933 2.34667 9.56267 2.656 10.288C2.96533 11.0027 3.392 11.6373 3.936 12.192C4.49067 12.736 5.12533 13.1627 5.84 13.472C6.56533 13.7813 7.33867 13.936 8.16 13.936ZM8.16 5.36C7.92533 5.36 7.71733 5.30667 7.536 5.2C7.36533 5.08267 7.28 4.87467 7.28 4.576C7.28 4.256 7.37067 4.048 7.552 3.952C7.744 3.84533 7.94667 3.792 8.16 3.792C8.736 3.792 9.024 4.05333 9.024 4.576C9.024 4.87467 8.93333 5.08267 8.752 5.2C8.57067 5.30667 8.37333 5.36 8.16 5.36Z"/>
</svg>
