<svg width="40" height="40" viewBox="0 0 40 40"  xmlns="http://www.w3.org/2000/svg">
<path d="M19.5137 23.7217C18.9657 23.6524 18.4654 24.0405 18.3961 24.5884C18.3268 25.1363 18.7148 25.6366 19.2628 25.7059L19.5137 23.7217ZM22.2472 24.2036L21.7864 23.3162H21.7864L22.2472 24.2036ZM24.3091 22.1583L23.4254 21.6903V21.6903L24.3091 22.1583ZM24.8423 19.3035L25.8354 19.1861L24.8423 19.3035ZM23.6578 16.6519L22.9076 17.3131L23.6578 16.6519ZM18.2765 15.3149L18.63 16.2503L18.2765 15.3149ZM15.9887 17.1038L16.8114 17.6724L15.9887 17.1038ZM14.1239 19.8763C14.1239 20.4285 14.5716 20.8763 15.1239 20.8763C15.6761 20.8763 16.1239 20.4285 16.1239 19.8763H14.1239ZM35.6668 20.0002C35.6668 28.6526 28.6526 35.6668 20.0002 35.6668V37.6668C29.7572 37.6668 37.6668 29.7572 37.6668 20.0002H35.6668ZM20.0002 35.6668C11.3477 35.6668 4.3335 28.6526 4.3335 20.0002H2.3335C2.3335 29.7572 10.2431 37.6668 20.0002 37.6668V35.6668ZM4.3335 20.0002C4.3335 11.3477 11.3477 4.3335 20.0002 4.3335V2.3335C10.2431 2.3335 2.3335 10.2431 2.3335 20.0002H4.3335ZM20.0002 4.3335C28.6526 4.3335 35.6668 11.3477 35.6668 20.0002H37.6668C37.6668 10.2431 29.7572 2.3335 20.0002 2.3335V4.3335ZM19.2628 25.7059C20.447 25.8557 21.6488 25.6412 22.7081 25.0911L21.7864 23.3162C21.0876 23.6791 20.2948 23.8205 19.5137 23.7217L19.2628 25.7059ZM22.7081 25.0911C23.7675 24.541 24.6341 23.6812 25.1928 22.6264L23.4254 21.6903C23.0568 22.3862 22.4851 22.9533 21.7864 23.3162L22.7081 25.0911ZM25.1928 22.6264C25.7514 21.5715 25.9756 20.3715 25.8354 19.1861L23.8492 19.421C23.9417 20.2029 23.7939 20.9945 23.4254 21.6903L25.1928 22.6264ZM25.8354 19.1861C25.6952 18.0006 25.1973 16.886 24.4079 15.9906L22.9076 17.3131C23.4283 17.9038 23.7567 18.639 23.8492 19.421L25.8354 19.1861ZM24.4079 15.9906C23.6186 15.0952 22.5753 14.4614 21.4168 14.1735L20.9346 16.1145C21.6987 16.3044 22.3869 16.7225 22.9076 17.3131L24.4079 15.9906ZM21.4168 14.1735C20.2584 13.8857 19.0397 13.9575 17.9231 14.3794L18.63 16.2503C19.3665 15.972 20.1704 15.9247 20.9346 16.1145L21.4168 14.1735ZM17.9231 14.3794C16.8064 14.8013 15.8448 15.5533 15.1661 16.5353L16.8114 17.6724C17.2591 17.0247 17.8934 16.5286 18.63 16.2503L17.9231 14.3794ZM15.1661 16.5353C14.4874 17.5172 14.1239 18.6826 14.1239 19.8763H16.1239C16.1239 19.0889 16.3637 18.3201 16.8114 17.6724L15.1661 16.5353Z"/>
</svg>
