<svg width="20" height="20" viewBox="0 0 20 20" fill="none" xmlns="http://www.w3.org/2000/svg">
<path fill-rule="evenodd" clip-rule="evenodd" d="M5.83268 3C5.52326 3 5.22652 3.12292 5.00772 3.34171C4.78893 3.5605 4.66602 3.85725 4.66602 4.16667V16.5284L9.70873 12.9265C9.88258 12.8023 10.1161 12.8023 10.29 12.9265L15.3327 16.5284V4.16667C15.3327 3.85725 15.2098 3.5605 14.991 3.34171C14.7722 3.12292 14.4754 3 14.166 3H5.83268ZM4.30062 2.6346C4.70695 2.22827 5.25805 2 5.83268 2H14.166C14.7407 2 15.2918 2.22827 15.6981 2.6346C16.1044 3.04093 16.3327 3.59203 16.3327 4.16667V17.5C16.3327 17.6873 16.228 17.8589 16.0615 17.9446C15.8949 18.0303 15.6945 18.0157 15.5421 17.9069L9.99935 13.9478L4.45663 17.9069C4.30423 18.0157 4.10376 18.0303 3.93722 17.9446C3.77069 17.8589 3.66602 17.6873 3.66602 17.5V4.16667C3.66602 3.59203 3.89429 3.04093 4.30062 2.6346Z" fill="#00ADEF"/>
</svg>
