<svg width="18" height="18" viewBox="0 0 18 18" fill="none" xmlns="http://www.w3.org/2000/svg">
<path fill-rule="evenodd" clip-rule="evenodd" d="M8.99999 1.16604C4.67375 1.16604 1.16665 4.67314 1.16665 8.99938C1.16665 13.3256 4.67375 16.8327 8.99999 16.8327C13.3262 16.8327 16.8333 13.3256 16.8333 8.99938C16.8333 4.67314 13.3262 1.16604 8.99999 1.16604ZM0.166651 8.99938C0.166651 4.12086 4.12147 0.166041 8.99999 0.166041C13.8785 0.166041 17.8333 4.12086 17.8333 8.99938C17.8333 13.8779 13.8785 17.8327 8.99999 17.8327C4.12147 17.8327 0.166651 13.8779 0.166651 8.99938ZM5.84963 5.52252C6.05775 5.45689 6.28439 5.53383 6.40956 5.71259L8.99998 9.4121L11.5904 5.71259C11.7156 5.53383 11.9422 5.45689 12.1503 5.52252C12.3585 5.58814 12.5 5.78115 12.5 5.99937V11.9994C12.5 12.2755 12.2761 12.4994 12 12.4994C11.7238 12.4994 11.5 12.2755 11.5 11.9994V7.58517L9.40956 10.5706C9.31599 10.7042 9.16312 10.7838 8.99998 10.7838C8.83685 10.7838 8.68398 10.7042 8.59041 10.5706L6.49998 7.58517V11.9994C6.49998 12.2755 6.27613 12.4994 5.99998 12.4994C5.72384 12.4994 5.49998 12.2755 5.49998 11.9994V5.99937C5.49998 5.78115 5.64151 5.58814 5.84963 5.52252Z" fill="#B8B8B8"/>
</svg>
