<svg width="19" height="18" viewBox="0 0 19 18" fill="none" xmlns="http://www.w3.org/2000/svg">
<path fill-rule="evenodd" clip-rule="evenodd" d="M9.49999 1.16699C5.17376 1.16699 1.66666 4.6741 1.66666 9.00033C1.66666 13.3266 5.17376 16.8337 9.49999 16.8337C13.8262 16.8337 17.3333 13.3266 17.3333 9.00033C17.3333 4.6741 13.8262 1.16699 9.49999 1.16699ZM0.666656 9.00033C0.666656 4.12181 4.62147 0.166992 9.49999 0.166992C14.3785 0.166992 18.3333 4.12181 18.3333 9.00033C18.3333 13.8788 14.3785 17.8337 9.49999 17.8337C4.62147 17.8337 0.666656 13.8788 0.666656 9.00033ZM9.49999 5.16699C9.77613 5.16699 9.99999 5.39085 9.99999 5.66699V11.1266L12.4798 8.64677C12.675 8.45151 12.9916 8.45151 13.1869 8.64677C13.3821 8.84203 13.3821 9.15862 13.1869 9.35388L9.85354 12.6872C9.65828 12.8825 9.3417 12.8825 9.14644 12.6872L5.8131 9.35388C5.61784 9.15862 5.61784 8.84203 5.8131 8.64677C6.00837 8.45151 6.32495 8.45151 6.52021 8.64677L8.99999 11.1266V5.66699C8.99999 5.39085 9.22385 5.16699 9.49999 5.16699Z" fill="#00ADEF"/>
</svg>
