<svg width="20" height="20" viewBox="0 0 20 20" fill="none" xmlns="http://www.w3.org/2000/svg">
<path fill-rule="evenodd" clip-rule="evenodd" d="M6.70186 2.44813C6.48721 2.26353 6.21276 2.16329 5.92966 2.16607L5.92474 2.16612V2.1661H3.42504C3.26313 2.16627 3.10303 2.20015 2.95492 2.26557C2.80676 2.33101 2.67386 2.42659 2.56466 2.54621C2.45546 2.66583 2.37237 2.80688 2.32067 2.96038C2.26936 3.11274 2.25009 3.27404 2.26406 3.43418C2.52981 5.9304 3.3795 8.32901 4.74438 10.4359L4.74676 10.4396L4.74675 10.4396C5.98683 12.3911 7.64138 14.0457 9.5929 15.2858L9.5968 15.2882L9.59679 15.2883C11.694 16.6483 14.0807 17.4977 16.5655 17.7685C16.726 17.7824 16.8876 17.763 17.0402 17.7114C17.1941 17.6593 17.3354 17.5757 17.4551 17.4659C17.5748 17.3561 17.6703 17.2224 17.7354 17.0736C17.8892 16.7218 17.9281 16.2626 17.9134 15.7195C17.9069 15.4765 17.8904 15.2315 17.8736 14.9818C17.8719 14.9572 17.8703 14.9325 17.8686 14.9078C17.8506 14.6379 17.8331 14.36 17.8331 14.0994V14.087L17.8332 14.087C17.8403 13.8009 17.742 13.5222 17.557 13.3039C17.3725 13.0861 17.1145 12.9435 16.8319 12.9031C16.3947 12.8451 15.9166 12.6873 15.4883 12.5459C15.3587 12.5031 15.2336 12.4618 15.1156 12.4253C14.5575 12.2523 14.1066 12.1628 13.7283 12.2435C13.5106 12.2899 13.3107 12.3977 13.1522 12.554C13.1519 12.5543 13.1516 12.5546 13.1513 12.555L12.095 13.6113C11.9358 13.7705 11.6899 13.8037 11.4943 13.6924C9.32974 12.4616 7.53754 10.6694 6.30676 8.50491C6.1955 8.30925 6.2287 8.06337 6.38785 7.90421L7.4451 6.84696C7.60146 6.6885 7.70922 6.48861 7.75566 6.27087C7.80218 6.05273 7.7852 5.82582 7.70672 5.61703L7.70629 5.6159C7.41128 4.82531 7.20656 4.00391 7.09603 3.16734C7.05602 2.88782 6.91598 2.63228 6.70186 2.44813ZM5.92244 1.1661C6.44726 1.16157 6.95592 1.34769 7.3539 1.68995C7.75253 2.03277 8.0129 2.50885 8.08649 3.02945L8.08714 3.03405L8.08711 3.03405C8.1877 3.79672 8.37425 4.54556 8.64319 5.26629L8.17474 5.4411L8.64277 5.26517C8.78852 5.65292 8.82007 6.07432 8.73367 6.47945C8.64726 6.88458 8.44654 7.25645 8.15527 7.551L8.1533 7.55299L8.15329 7.55298L7.36852 8.33775C8.43551 10.0914 9.90774 11.5637 11.6614 12.6306L12.4462 11.8459L12.4482 11.8439C12.7427 11.5526 13.1146 11.3519 13.5197 11.2655C14.1744 11.1259 14.8472 11.2952 15.4116 11.4701C15.5752 11.5208 15.7294 11.5715 15.8763 11.6199C16.2806 11.753 16.6291 11.8677 16.9651 11.9121L16.9696 11.9126L16.9696 11.9127C17.4958 11.9869 17.9764 12.252 18.32 12.6575C18.6621 13.0612 18.8445 13.5761 18.8331 14.105C18.833 14.1073 18.833 14.1096 18.8329 14.1118L18.3331 14.0994H18.8331C18.8331 14.1013 18.8331 14.1032 18.8331 14.105C18.8333 14.326 18.8483 14.5703 18.8664 14.841C18.868 14.866 18.8697 14.8911 18.8715 14.9165C18.8881 15.163 18.9059 15.4281 18.9131 15.6925C18.9286 16.2665 18.8977 16.9114 18.6516 17.4742C18.5308 17.7506 18.3535 17.9988 18.1312 18.2028C17.9088 18.4067 17.6464 18.562 17.3605 18.6587C17.0747 18.7553 16.7719 18.7912 16.4714 18.7641L16.4624 18.7633L16.4624 18.7632C13.8211 18.4762 11.2839 17.5738 9.05461 16.1285C9.05527 16.1289 9.05592 16.1294 9.05658 16.1298L9.32474 15.7078L9.05269 16.1273C9.05333 16.1277 9.05397 16.1281 9.05461 16.1285C6.98065 14.8102 5.22217 13.0517 3.9039 10.9778C3.9043 10.9784 3.9047 10.979 3.9051 10.9796L4.32474 10.7078L3.90273 10.9759C3.90312 10.9765 3.90351 10.9771 3.9039 10.9778C2.45355 8.73829 1.55095 6.18875 1.2692 3.53556L1.26838 3.52777L1.26844 3.52776C1.24136 3.22819 1.27697 2.92625 1.37298 2.64119C1.46899 2.35613 1.6233 2.09418 1.8261 1.87202C2.02889 1.64986 2.27572 1.47237 2.55088 1.35083C2.82603 1.22929 3.12347 1.16638 3.42427 1.1661L3.42474 1.1661L5.92244 1.1661ZM5.92244 1.1661C5.92157 1.1661 5.92069 1.16611 5.91982 1.16612L5.92474 1.6661V1.1661H5.92244Z" fill="#B8B8B8"/>
</svg>
