<svg width="12" height="12" viewBox="0 0 12 12" fill="none" xmlns="http://www.w3.org/2000/svg">
<path fill-rule="evenodd" clip-rule="evenodd" d="M6.00078 1.19922C5.55895 1.19922 5.20078 1.55739 5.20078 1.99922V5.19922H2.00078C1.55895 5.19922 1.20078 5.55739 1.20078 5.99922C1.20078 6.44105 1.55895 6.79922 2.00078 6.79922H5.20078V9.99922C5.20078 10.441 5.55895 10.7992 6.00078 10.7992C6.44261 10.7992 6.80078 10.441 6.80078 9.99922V6.79922H10.0008C10.4426 6.79922 10.8008 6.44105 10.8008 5.99922C10.8008 5.55739 10.4426 5.19922 10.0008 5.19922H6.80078V1.99922C6.80078 1.55739 6.44261 1.19922 6.00078 1.19922Z" fill="#0C131D"/>
</svg>
