<svg width="20" height="20" viewBox="0 0 20 20" fill="none" xmlns="http://www.w3.org/2000/svg">
<path fill-rule="evenodd" clip-rule="evenodd" d="M12.3372 1.19311C12.5392 1.12379 12.763 1.19047 12.8941 1.35908L18.7274 8.85908C18.8679 9.03963 18.8679 9.29246 18.7274 9.47302L12.8941 16.973C12.763 17.1416 12.5392 17.2083 12.3372 17.139C12.1351 17.0697 11.9994 16.8796 11.9994 16.666V13.0024C7.26102 13.0595 4.92987 13.9326 3.73176 14.957C2.60971 15.9164 2.40344 17.0624 2.20935 18.1406C2.19221 18.2359 2.17516 18.3306 2.15758 18.4246C2.11121 18.6726 1.88732 18.8472 1.63548 18.8318C1.38364 18.8163 1.18277 18.6157 1.16706 18.3638C1.02602 16.1029 1.24194 12.8619 2.81168 10.1679C4.35416 7.52059 7.16408 5.4713 11.9994 5.33946V1.66605C11.9994 1.45244 12.1351 1.26243 12.3372 1.19311ZM12.9994 3.12331V5.83271C12.9994 6.10885 12.7756 6.33271 12.4994 6.33271C7.6815 6.33271 5.07645 8.2673 3.67571 10.6713C2.8732 12.0486 2.45256 13.6039 2.26233 15.0882C2.48095 14.7814 2.74941 14.4813 3.08188 14.197C4.59925 12.8995 7.3545 11.9994 12.4994 11.9994C12.7756 11.9994 12.9994 12.2232 12.9994 12.4994V15.2088L17.6993 9.16605L12.9994 3.12331Z" fill="#00ADEF"/>
</svg>
