<svg width="40" height="40" viewBox="0 0 40 40"  xmlns="http://www.w3.org/2000/svg">
<path d="M25.1709 12.1422L20.9429 3.57674C20.5572 2.79528 19.4428 2.79528 19.0571 3.57674L14.8291 12.1422C14.6761 12.4523 14.3804 12.6673 14.0383 12.7173L4.58164 14.0995C3.71948 14.2255 3.37586 15.2853 4.00003 15.8932L10.8411 22.5564C11.0891 22.798 11.2023 23.1462 11.1438 23.4875L9.52954 32.8996C9.3822 33.7586 10.2839 34.4137 11.0554 34.008L19.5106 29.5615C19.817 29.4003 20.1831 29.4003 20.4895 29.5615L28.9447 34.008C29.7161 34.4137 30.6178 33.7586 30.4705 32.8996L28.8562 23.4875C28.7977 23.1462 28.9109 22.798 29.1589 22.5564L36 15.8932C36.6242 15.2853 36.2806 14.2255 35.4184 14.0995L25.9618 12.7173C25.6197 12.6673 25.324 12.4523 25.1709 12.1422Z" />
</svg>
