<svg width="20" height="20" viewBox="0 0 20 20" fill="none" xmlns="http://www.w3.org/2000/svg">
<path d="M17.5 5.33326H15.8333M15.8333 5.33326H2.5M15.8333 5.33326L15.8333 15.9999C15.8333 16.442 15.6577 16.8659 15.3452 17.1784C15.0326 17.491 14.6087 17.6666 14.1667 17.6666H5.83333C5.3913 17.6666 4.96738 17.491 4.65482 17.1784C4.34226 16.8659 4.16667 16.442 4.16667 15.9999V5.33326L15.8333 5.33326ZM13.3333 5.33326V3.66659C13.3333 3.22456 13.1577 2.80064 12.8452 2.48808C12.5326 2.17552 12.1087 1.99992 11.6667 1.99992H8.33333C7.89131 1.99992 7.46738 2.17552 7.15482 2.48808C6.84226 2.80064 6.66667 3.22456 6.66667 3.66659V5.33326" stroke="#C8CBCE" stroke-linecap="round" stroke-linejoin="round"/>
</svg>
