<svg width="20" height="20" viewBox="0 0 20 20" fill="none" xmlns="http://www.w3.org/2000/svg">
<path d="M2.5 5.33333H4.16667M4.16667 5.33333H17.5M4.16667 5.33333L4.16667 16C4.16667 16.442 4.34226 16.866 4.65482 17.1785C4.96738 17.4911 5.39131 17.6667 5.83333 17.6667H14.1667C14.6087 17.6667 15.0326 17.4911 15.3452 17.1785C15.6577 16.866 15.8333 16.442 15.8333 16V5.33333L4.16667 5.33333ZM6.66667 5.33333V3.66667C6.66667 3.22464 6.84226 2.80072 7.15482 2.48816C7.46738 2.17559 7.89131 2 8.33333 2H11.6667C12.1087 2 12.5326 2.17559 12.8452 2.48816C13.1577 2.80072 13.3333 3.22464 13.3333 3.66667V5.33333" stroke="#00ADEF" stroke-linecap="round" stroke-linejoin="round"/>
</svg>
