<svg width="16" height="18" viewBox="0 0 16 18" fill="none" xmlns="http://www.w3.org/2000/svg">
<path fill-rule="evenodd" clip-rule="evenodd" d="M4.66667 0.166016C4.94281 0.166016 5.16667 0.389873 5.16667 0.666016V1.83268H10.8333V0.666016C10.8333 0.389873 11.0572 0.166016 11.3333 0.166016C11.6095 0.166016 11.8333 0.389873 11.8333 0.666016V1.83268H13.8333C15.03 1.83268 16 2.80273 16 3.99935V7.33268V15.666C16 16.8626 15.03 17.8327 13.8333 17.8327H2.16667C0.97005 17.8327 0 16.8626 0 15.666V7.33268V3.99935C0 2.80273 0.97005 1.83268 2.16667 1.83268H4.16667V0.666016C4.16667 0.389873 4.39052 0.166016 4.66667 0.166016ZM4.16667 2.83268H2.16667C1.52233 2.83268 1 3.35502 1 3.99935V6.83268H15V3.99935C15 3.35502 14.4777 2.83268 13.8333 2.83268H11.8333V3.99935C11.8333 4.27549 11.6095 4.49935 11.3333 4.49935C11.0572 4.49935 10.8333 4.27549 10.8333 3.99935V2.83268H5.16667V3.99935C5.16667 4.27549 4.94281 4.49935 4.66667 4.49935C4.39052 4.49935 4.16667 4.27549 4.16667 3.99935V2.83268ZM15 7.83268H1V15.666C1 16.3103 1.52233 16.8327 2.16667 16.8327H13.8333C14.4777 16.8327 15 16.3103 15 15.666V7.83268Z" fill="#00adef"/>
</svg>
