<svg style="display: none;" aria-hidden="true" xmlns="http://www.w3.org/2000/svg" xmlns:xlink="http://www.w3.org/1999/xlink"><symbol viewBox="0 0 24 24" fill="none" id="arrow-down"><path d="M19 8.5L12 15.5L5 8.5"/></symbol><symbol viewBox="0 0 12 12" fill="none" id="arrow-down-bold"><path d="M9.5 4.5L6 8L2.5 4.5"/></symbol><symbol viewBox="0 0 24 24" fill="none" id="arrow-left"><path d="M15.5 19L8.5 12L15.5 5"/></symbol><symbol viewBox="0 0 24 24" fill="none" id="arrow-right"><path d="M8.5 5L15.5 12L8.5 19"/></symbol><symbol viewBox="0 0 24 24" fill="none" id="arrow-up"><path d="M5 15.5L12 8.5L19 15.5"/></symbol><symbol viewBox="0 0 16 18" fill="none" id="bell"><path fill-rule="evenodd" clip-rule="evenodd" d="M4.11092 1.77791C5.14237 0.746455 6.54132 0.166992 8.00001 0.166992C9.4587 0.166992 10.8576 0.746455 11.8891 1.77791C12.7124 2.60124 13.1276 3.6016 13.359 4.63729C13.5576 5.52635 13.6266 6.47499 13.6922 7.37782C13.7021 7.51383 13.7119 7.64881 13.7221 7.78238C13.8823 9.88595 14.1407 11.6599 15.7774 12.751C15.9607 12.8732 16.0424 13.101 15.9786 13.3119C15.9147 13.5228 15.7203 13.667 15.5 13.667H0.500008C0.279675 13.667 0.0853115 13.5228 0.0214623 13.3119C-0.0423868 13.101 0.0393297 12.8732 0.222658 12.751C1.85931 11.6599 2.11772 9.88595 2.27791 7.78238C2.28808 7.64881 2.2979 7.51384 2.30779 7.37782C2.37344 6.475 2.44243 5.52635 2.64103 4.63729C2.87238 3.6016 3.28759 2.60124 4.11092 1.77791ZM8.00001 1.16699C6.80653 1.16699 5.66194 1.6411 4.81803 2.48501C4.17228 3.13076 3.82274 3.93415 3.61698 4.85529C3.43574 5.66665 3.3723 6.53401 3.30577 7.44359C3.29573 7.58088 3.28562 7.71914 3.27502 7.85831C3.14909 9.51202 2.95999 11.3048 1.80993 12.667H14.1901C13.04 11.3048 12.8509 9.51202 12.725 7.85831C12.7144 7.71914 12.7043 7.58088 12.6942 7.44358C12.6277 6.53401 12.5643 5.66665 12.383 4.85529C12.1773 3.93415 11.8277 3.13076 11.182 2.48501C10.3381 1.6411 9.19348 1.16699 8.00001 1.16699ZM6.30745 16.0678C6.54632 15.9293 6.85228 16.0106 6.99084 16.2495C7.0934 16.4263 7.2406 16.573 7.41771 16.675C7.59482 16.777 7.79562 16.8307 8.00001 16.8307C8.2044 16.8307 8.4052 16.777 8.5823 16.675C8.75941 16.573 8.90662 16.4263 9.00917 16.2495C9.14773 16.0106 9.4537 15.9293 9.69256 16.0678C9.93142 16.2064 10.0127 16.5124 9.87417 16.7512C9.68371 17.0796 9.41033 17.3521 9.08142 17.5416C8.7525 17.731 8.37958 17.8307 8.00001 17.8307C7.62043 17.8307 7.24751 17.731 6.91859 17.5416C6.58968 17.3521 6.3163 17.0796 6.12584 16.7512C5.98728 16.5124 6.06859 16.2064 6.30745 16.0678Z" fill="#E72696"/></symbol><symbol viewBox="0 0 24 24" fill="none" id="book"><path fill-rule="evenodd" clip-rule="evenodd" d="M1 3C1 2.44772 1.44772 2 2 2H8C9.32608 2 10.5979 2.52678 11.5355 3.46447C11.7038 3.63274 11.8589 3.81178 12 3.99997C12.1411 3.81178 12.2962 3.63274 12.4645 3.46447C13.4021 2.52678 14.6739 2 16 2H22C22.5523 2 23 2.44772 23 3V18C23 18.5523 22.5523 19 22 19H15C14.4696 19 13.9609 19.2107 13.5858 19.5858C13.2107 19.9609 13 20.4696 13 21C13 21.5523 12.5523 22 12 22C11.4477 22 11 21.5523 11 21C11 20.4696 10.7893 19.9609 10.4142 19.5858C10.0391 19.2107 9.53043 19 9 19H2C1.44772 19 1 18.5523 1 18V3ZM11 17.5359C10.3971 17.1878 9.70823 17 9 17H3V4H8C8.79565 4 9.55871 4.31607 10.1213 4.87868C10.6839 5.44129 11 6.20435 11 7V17.5359ZM13 17.5359C13.6029 17.1878 14.2918 17 15 17H21V4H16C15.2043 4 14.4413 4.31607 13.8787 4.87868C13.3161 5.44129 13 6.20435 13 7V17.5359Z" fill="#00ADEF"/></symbol><symbol viewBox="0 0 33 32" id="bookmark"><path d="M19.5 29L12.5 24L5.5 29V13C5.5 12.4696 5.71071 11.9609 6.08579 11.5858C6.46086 11.2107 6.96957 11 7.5 11H17.5C18.0304 11 18.5391 11.2107 18.9142 11.5858C19.2893 11.9609 19.5 12.4696 19.5 13V29Z"/><path d="M12.5 6C12.5 3.79086 14.2909 2 16.5 2H26.5C28.7091 2 30.5 3.79086 30.5 6V13C30.5 15.2091 28.7091 17 26.5 17H16.5C14.2909 17 12.5 15.2091 12.5 13V6Z"/><path d="M20.1992 10.7891H21.166V12.1543H20.1992V14H18.5059V12.1543H15.0078L14.9316 11.0879L18.4883 5.46875H20.1992V10.7891ZM16.6191 10.7891H18.5059V7.77734L18.3945 7.9707L16.6191 10.7891ZM27.0898 10.7891H28.0566V12.1543H27.0898V14H25.3965V12.1543H21.8984L21.8223 11.0879L25.3789 5.46875H27.0898V10.7891ZM23.5098 10.7891H25.3965V7.77734L25.2852 7.9707L23.5098 10.7891Z" fill="#fff"/><path d="M16.5 3.6H26.5V0.4H16.5V3.6ZM28.9 6V13H32.1V6H28.9ZM26.5 15.4H16.5V18.6H26.5V15.4ZM14.1 13V6H10.9V13H14.1ZM16.5 15.4C15.1745 15.4 14.1 14.3255 14.1 13H10.9C10.9 16.0928 13.4072 18.6 16.5 18.6V15.4ZM28.9 13C28.9 14.3255 27.8255 15.4 26.5 15.4V18.6C29.5928 18.6 32.1 16.0928 32.1 13H28.9ZM26.5 3.6C27.8255 3.6 28.9 4.67452 28.9 6H32.1C32.1 2.90721 29.5928 0.4 26.5 0.4V3.6ZM16.5 0.4C13.4072 0.4 10.9 2.90721 10.9 6H14.1C14.1 4.67452 15.1745 3.6 16.5 3.6V0.4Z"/></symbol><symbol viewBox="0 0 40 40" id="brend"><path d="M14.0665 33.4609L13.5109 34.2924L14.0665 33.4609ZM10.1328 28.6677L9.20894 29.0504H9.20894L10.1328 28.6677ZM9.52505 22.4969L8.54426 22.3018V22.3019L9.52505 22.4969ZM12.448 17.0284L11.7409 16.3213H11.7409L12.448 17.0284ZM17.9165 14.1055L18.1116 15.0863H18.1116L17.9165 14.1055ZM24.0873 14.7132L23.7046 15.6371H23.7046L24.0873 14.7132ZM28.8805 18.6469L28.049 19.2025L28.8805 18.6469ZM30.6804 5L31.6091 5.37087C31.7322 5.0628 31.6944 4.71378 31.5084 4.43914C31.3223 4.1645 31.0122 4 30.6804 4V5ZM23.5602 5V4C23.1513 4 22.7836 4.24895 22.6318 4.62861L23.5602 5ZM26.3015 15.9651L25.7105 16.7718C25.96 16.9545 26.28 17.0116 26.5772 16.9264C26.8745 16.8411 27.1156 16.6231 27.2302 16.3359L26.3015 15.9651ZM13.6988 15.9651L12.7701 16.336C12.8847 16.6232 13.1258 16.8411 13.4231 16.9264C13.7203 17.0116 14.0403 16.9545 14.2898 16.7718L13.6988 15.9651ZM16.44 5L17.3685 4.62861C17.2166 4.24895 16.8489 4 16.44 4V5ZM9.31983 5V4C8.9881 4 8.67797 4.1645 8.49192 4.43914C8.30587 4.71378 8.26812 5.0628 8.39114 5.37087L9.31983 5ZM16.4646 25.2876L17.1717 24.5805H17.1717L16.4646 25.2876ZM16.4646 23.8734L15.7575 23.1663L16.4646 23.8734ZM20.7072 28.1161L20.0001 27.409L20.7072 28.1161ZM19.293 28.1161L18.5859 28.8232L19.293 28.1161ZM23.5357 23.8734L24.2428 23.1663L23.5357 23.8734ZM23.5357 25.2876L24.2428 25.9947L23.5357 25.2876ZM20.7072 21.045L20.0001 21.7521L20.7072 21.045ZM19.293 21.045L20.0001 21.7521L19.293 21.045ZM20.0001 34.2609C18.0856 34.2609 16.214 33.6931 14.622 32.6294L13.5109 34.2924C15.4317 35.5758 17.69 36.2609 20.0001 36.2609V34.2609ZM14.622 32.6294C13.0301 31.5658 11.7894 30.0539 11.0567 28.2851L9.20894 29.0504C10.093 31.1847 11.5901 33.0089 13.5109 34.2924L14.622 32.6294ZM11.0567 28.2851C10.324 26.5162 10.1323 24.5698 10.5058 22.692L8.54426 22.3019C8.09358 24.5676 8.32488 26.9161 9.20894 29.0504L11.0567 28.2851ZM10.5058 22.692C10.8794 20.8142 11.8013 19.0894 13.1551 17.7356L11.7409 16.3213C10.1074 17.9549 8.99495 20.0361 8.54426 22.3018L10.5058 22.692ZM13.1551 17.7356C13.5083 17.3824 13.8867 17.0586 14.2865 16.7663L13.1061 15.1518C12.6237 15.5045 12.1671 15.8952 11.7409 16.3213L13.1551 17.7356ZM14.2865 16.7663C15.4193 15.938 16.7237 15.3623 18.1116 15.0863L17.7214 13.1247C16.0467 13.4578 14.4729 14.1524 13.1061 15.1518L14.2865 16.7663ZM18.1116 15.0863C18.7365 14.962 19.3691 14.9003 20.0001 14.9003L20.0001 12.9003C19.2387 12.9003 18.4755 12.9747 17.7214 13.1247L18.1116 15.0863ZM20.0001 14.9003C21.2653 14.9003 22.5245 15.1483 23.7046 15.6371L24.47 13.7894C23.046 13.1995 21.5266 12.9003 20.0001 12.9003L20.0001 14.9003ZM23.7046 15.6371C24.4207 15.9337 25.0946 16.3136 25.7137 16.7663L26.8942 15.1518C26.1471 14.6056 25.334 14.1472 24.47 13.7894L23.7046 15.6371ZM25.7137 16.7663C26.6241 17.4319 27.4159 18.255 28.049 19.2025L29.712 18.0913C28.948 16.9481 27.9926 15.9549 26.8942 15.1518L25.7137 16.7663ZM28.049 19.2025C29.1127 20.7944 29.6804 22.666 29.6804 24.5806H31.6804C31.6804 22.2704 30.9954 20.0121 29.712 18.0913L28.049 19.2025ZM29.6804 24.5806C29.6804 27.1479 28.6606 29.6102 26.8451 31.4256L28.2594 32.8398C30.4498 30.6493 31.6804 27.6784 31.6804 24.5806H29.6804ZM26.8451 31.4256C25.0297 33.241 22.5675 34.2609 20.0001 34.2609V36.2609C23.0979 36.2609 26.0689 35.0303 28.2594 32.8398L26.8451 31.4256ZM30.6804 4H23.5602V6H30.6804V4ZM22.6318 4.62861L19.0717 13.5289L20.9286 14.2716L24.4887 5.37139L22.6318 4.62861ZM19.9991 14.9003C22.0533 14.9023 24.0535 15.5578 25.7105 16.7718L26.8925 15.1585C24.8932 13.6936 22.4797 12.9028 20.0011 12.9003L19.9991 14.9003ZM27.2302 16.3359L27.2327 16.3298L25.3752 15.5882L25.3728 15.5943L27.2302 16.3359ZM27.2326 16.3299L31.6091 5.37087L29.7518 4.62913L25.3753 15.5882L27.2326 16.3299ZM14.2898 16.7718C15.9468 15.5578 17.947 14.9023 20.0011 14.9003L19.9991 12.9003C17.5206 12.9028 15.1071 13.6936 13.1077 15.1585L14.2898 16.7718ZM20.9286 13.5289L17.3685 4.62861L15.5116 5.37139L19.0717 14.2716L20.9286 13.5289ZM16.44 4H9.31983V6H16.44V4ZM8.39114 5.37087L12.7676 16.3299L14.625 15.5882L10.2485 4.62913L8.39114 5.37087ZM12.7676 16.3299L12.7701 16.336L14.6274 15.5943L14.625 15.5882L12.7676 16.3299ZM20.0001 21.7521L22.8285 24.5805L24.2428 23.1663L21.4143 20.3379L20.0001 21.7521ZM22.8285 24.5805L20.0001 27.409L21.4143 28.8232L24.2428 25.9947L22.8285 24.5805ZM20.0001 27.409L17.1717 24.5805L15.7575 25.9947L18.5859 28.8232L20.0001 27.409ZM17.1717 24.5805L20.0001 21.7521L18.5859 20.3379L15.7575 23.1663L17.1717 24.5805ZM17.1717 24.5805V24.5805L15.7575 23.1663C14.9764 23.9474 14.9764 25.2137 15.7575 25.9947L17.1717 24.5805ZM20.0001 27.409V27.409L18.5859 28.8232C19.367 29.6042 20.6333 29.6042 21.4143 28.8232L20.0001 27.409ZM22.8285 24.5805V24.5805L24.2428 25.9947C25.0238 25.2137 25.0238 23.9474 24.2428 23.1663L22.8285 24.5805ZM21.4143 20.3379C20.6333 19.5568 19.367 19.5568 18.5859 20.3379L20.0001 21.7521L21.4143 20.3379Z"/></symbol><symbol viewBox="0 0 24 24" fill="none" id="burger"><path d="M17 10H3M21 6H3M21 14H3M17 18H3" stroke="#00ADEF" stroke-width="1.6" stroke-linecap="round" stroke-linejoin="round"/></symbol><symbol viewBox="0 0 20 19" fill="none" id="buy-cart"><path fill-rule="evenodd" clip-rule="evenodd" d="M0.333333 0.833984C0.333333 0.557842 0.557191 0.333984 0.833333 0.333984H4.16667C4.40498 0.333984 4.61017 0.502177 4.65694 0.735856L5.41046 4.50065H19.1667C19.3157 4.50065 19.4569 4.56711 19.5519 4.68193C19.6469 4.79674 19.6857 4.94794 19.6578 5.09431L18.3245 12.086L18.3238 12.0897C18.2247 12.5885 17.9534 13.0365 17.5572 13.3554C17.1625 13.6732 16.6688 13.8425 16.1622 13.834H8.0711C7.56449 13.8425 7.07086 13.6732 6.67609 13.3554C6.28013 13.0366 6.00885 12.5888 5.90969 12.0903C5.90965 12.0901 5.90962 12.0899 5.90958 12.0897L4.51563 5.12516C4.51127 5.10816 4.50779 5.09082 4.50522 5.07318L3.75682 1.33398H0.833333C0.557191 1.33398 0.333333 1.11013 0.333333 0.833984ZM5.61061 5.50065L6.89028 11.8942L6.89042 11.8949C6.94376 12.1635 7.08987 12.4047 7.30315 12.5764C7.51644 12.7481 7.78333 12.8393 8.05709 12.8341L8.06667 12.8339V12.834H16.1667H16.1762L16.1762 12.8341C16.45 12.8393 16.7169 12.7481 16.9302 12.5764C17.143 12.4051 17.289 12.1645 17.3426 11.8966C17.3427 11.896 17.3428 11.8955 17.3429 11.8949L18.5623 5.50065H5.61061ZM7.5 17.1673C7.3159 17.1673 7.16667 17.3166 7.16667 17.5007C7.16667 17.6847 7.3159 17.834 7.5 17.834C7.68409 17.834 7.83333 17.6847 7.83333 17.5007C7.83333 17.3166 7.68409 17.1673 7.5 17.1673ZM6.16667 17.5007C6.16667 16.7643 6.76362 16.1673 7.5 16.1673C8.23638 16.1673 8.83333 16.7643 8.83333 17.5007C8.83333 18.237 8.23638 18.834 7.5 18.834C6.76362 18.834 6.16667 18.237 6.16667 17.5007ZM16.6667 17.1673C16.4826 17.1673 16.3333 17.3166 16.3333 17.5007C16.3333 17.6847 16.4826 17.834 16.6667 17.834C16.8508 17.834 17 17.6847 17 17.5007C17 17.3166 16.8508 17.1673 16.6667 17.1673ZM15.3333 17.5007C15.3333 16.7643 15.9303 16.1673 16.6667 16.1673C17.403 16.1673 18 16.7643 18 17.5007C18 18.237 17.403 18.834 16.6667 18.834C15.9303 18.834 15.3333 18.237 15.3333 17.5007Z" fill="#E72696"/></symbol><symbol viewBox="0 0 25 24" id="cart"><g clip-path="url(#alclip0)"><path d="M9.5 22C10.0523 22 10.5 21.5523 10.5 21C10.5 20.4477 10.0523 20 9.5 20C8.94772 20 8.5 20.4477 8.5 21C8.5 21.5523 8.94772 22 9.5 22Z"/><path d="M20.5 22C21.0523 22 21.5 21.5523 21.5 21C21.5 20.4477 21.0523 20 20.5 20C19.9477 20 19.5 20.4477 19.5 21C19.5 21.5523 19.9477 22 20.5 22Z" stroke="#133050" stroke-width="2" stroke-linecap="round" stroke-linejoin="round"/><path d="M1.5 1H5.5L8.18 14.39C8.27144 14.8504 8.52191 15.264 8.88755 15.5583C9.25318 15.8526 9.7107 16.009 10.18 16H19.9C20.3693 16.009 20.8268 15.8526 21.1925 15.5583C21.5581 15.264 21.8086 14.8504 21.9 14.39L23.5 6H6.5"/></g><defs><clipPath id="alclip0"><path transform="translate(.5)" d="M0 0H24V24H0z"/></clipPath></defs></symbol><symbol viewBox="0 0 24 24" id="cross"><path fill-rule="evenodd" clip-rule="evenodd" d="M5.46967 6.53033C5.17678 6.23744 5.17678 5.76256 5.46967 5.46967C5.76256 5.17678 6.23744 5.17678 6.53033 5.46967L12 10.9393L17.4697 5.46967C17.7626 5.17678 18.2374 5.17678 18.5303 5.46967C18.8232 5.76256 18.8232 6.23744 18.5303 6.53033L13.0607 12L18.5303 17.4697C18.8232 17.7626 18.8232 18.2374 18.5303 18.5303C18.2374 18.8232 17.7626 18.8232 17.4697 18.5303L12 13.0607L6.53033 18.5303C6.23744 18.8232 5.76256 18.8232 5.46967 18.5303C5.17678 18.2374 5.17678 17.7626 5.46967 17.4697L10.9393 12L5.46967 6.53033Z"/></symbol><symbol viewBox="0 0 20 20" id="delivery"><path fill-rule="evenodd" clip-rule="evenodd" d="M0.75 2.5C0.75 2.22386 0.973858 2 1.25 2H12.5C12.7761 2 13 2.22386 13 2.5V5.125H15.625C15.7576 5.125 15.8848 5.17768 15.9786 5.27145L19.1036 8.39645C19.1973 8.49021 19.25 8.61739 19.25 8.75V14.375C19.25 14.6511 19.0261 14.875 18.75 14.875H16.8412C16.8634 15.0176 16.875 15.1637 16.875 15.3125C16.875 16.8658 15.6158 18.125 14.0625 18.125C12.5092 18.125 11.25 16.8658 11.25 15.3125C11.25 15.1637 11.2616 15.0176 11.2838 14.875H8.09117C8.11344 15.0176 8.125 15.1637 8.125 15.3125C8.125 16.8658 6.8658 18.125 5.3125 18.125C3.7592 18.125 2.5 16.8658 2.5 15.3125C2.5 15.1637 2.51156 15.0176 2.53383 14.875H1.25C0.973858 14.875 0.75 14.6511 0.75 14.375V2.5ZM11.6446 13.875C12.1352 13.0516 13.0344 12.5 14.0625 12.5C15.0906 12.5 15.9898 13.0516 16.4804 13.875H18.25V8.95711L15.4179 6.125H13V10C13 10.2761 12.7761 10.5 12.5 10.5C12.2239 10.5 12 10.2761 12 10V5.625V3H1.75V13.875H2.89461C3.38519 13.0516 4.28443 12.5 5.3125 12.5C6.34057 12.5 7.23981 13.0516 7.73039 13.875H11.6446ZM5.3125 17.125C6.31352 17.125 7.125 16.3135 7.125 15.3125C7.125 14.3115 6.31352 13.5 5.3125 13.5C4.31148 13.5 3.5 14.3115 3.5 15.3125C3.5 16.3135 4.31148 17.125 5.3125 17.125ZM15.875 15.3125C15.875 16.3135 15.0635 17.125 14.0625 17.125C13.0615 17.125 12.25 16.3135 12.25 15.3125C12.25 14.3115 13.0615 13.5 14.0625 13.5C15.0635 13.5 15.875 14.3115 15.875 15.3125Z"/></symbol><symbol viewBox="0 0 24 24" fill="none" id="download"><path d="M14 2H6C5.46957 2 4.96086 2.21071 4.58579 2.58579C4.21071 2.96086 4 3.46957 4 4V20C4 20.5304 4.21071 21.0391 4.58579 21.4142C4.96086 21.7893 5.46957 22 6 22H18C18.5304 22 19.0391 21.7893 19.4142 21.4142C19.7893 21.0391 20 20.5304 20 20V8L14 2Z" stroke="#00ADEF" stroke-linecap="round" stroke-linejoin="round"/><path d="M14 2V8H20M12 18V12M9 15L12 18 15 15" stroke="#00ADEF" stroke-linecap="round" stroke-linejoin="round"/></symbol><symbol viewBox="0 0 14 8" id="dropdown"><path fill-rule="evenodd" clip-rule="evenodd" d="M0.81295 0.730431C1.00821 0.535169 1.3248 0.535169 1.52006 0.730431L6.99984 6.21021L12.4796 0.730431C12.6749 0.535169 12.9915 0.535169 13.1867 0.730431C13.382 0.925693 13.382 1.24228 13.1867 1.43754L7.35339 7.27087C7.15813 7.46613 6.84155 7.46613 6.64628 7.27087L0.812951 1.43754C0.617688 1.24228 0.617688 0.925693 0.81295 0.730431Z"/></symbol><symbol viewBox="0 0 16 16" fill="none" id="eye"><path d="M7.99984 2.66675C3.33317 2.66675 0.666504 8.00008 0.666504 8.00008C0.666504 8.00008 3.33317 13.3334 7.99984 13.3334C12.6665 13.3334 15.3332 8.00008 15.3332 8.00008C15.3332 8.00008 12.6665 2.66675 7.99984 2.66675Z" stroke="#B8B8B8" stroke-linecap="round" stroke-linejoin="round"/></symbol><symbol viewBox="0 0 16 16" fill="none" id="eye-off"><path d="M6.59984 2.82666C7.05872 2.71924 7.52855 2.66555 7.99984 2.66666C12.6665 2.66666 15.3332 7.99999 15.3332 7.99999C14.9285 8.75706 14.4459 9.46981 13.8932 10.1267M9.41317 9.41332C9.23007 9.60982 9.00927 9.76743 8.76394 9.87674C8.51861 9.98605 8.25377 10.0448 7.98523 10.0496C7.71669 10.0543 7.44995 10.0049 7.20091 9.90432C6.95188 9.80373 6.72565 9.65401 6.53573 9.46409C6.34582 9.27418 6.1961 9.04795 6.09551 8.79892C5.99492 8.54988 5.94552 8.28314 5.95026 8.0146C5.955 7.74606 6.01378 7.48122 6.12309 7.23589C6.2324 6.99056 6.39001 6.76976 6.5865 6.58666M1.99984 2L13.9998 14M11.9598 11.96C10.8202 12.8287 9.43258 13.3099 7.99984 13.3333C3.33317 13.3333 0.666504 7.99999 0.666504 7.99999C1.49576 6.45459 2.64593 5.1044 4.03984 4.03999L11.9598 11.96Z" stroke="#B8B8B8" stroke-linecap="round" stroke-linejoin="round"/></symbol><symbol viewBox="0 0 14 16" id="favorite"><path d="M7.00008 11.3333L12.8334 15.5V2.16667C12.8334 1.72464 12.6578 1.30072 12.3453 0.988155C12.0327 0.675595 11.6088 0.5 11.1667 0.5H2.83341C2.39139 0.5 1.96746 0.675595 1.6549 0.988155C1.34234 1.30072 1.16675 1.72464 1.16675 2.16667V15.5L7.00008 11.3333Z"/></symbol><symbol viewBox="0 0 24 20" fill="none" id="filter"><path fill-rule="evenodd" clip-rule="evenodd" d="M4 0C4.55228 0 5 0.447715 5 1V8C5 8.55228 4.55228 9 4 9C3.44772 9 3 8.55228 3 8V1C3 0.447715 3.44772 0 4 0ZM12 0C12.5523 0 13 0.447715 13 1V5H15C15.5523 5 16 5.44772 16 6C16 6.55228 15.5523 7 15 7H12H9C8.44772 7 8 6.55228 8 6C8 5.44772 8.44772 5 9 5H11V1C11 0.447715 11.4477 0 12 0ZM20 0C20.5523 0 21 0.447715 21 1V10C21 10.5523 20.5523 11 20 11C19.4477 11 19 10.5523 19 10V1C19 0.447715 19.4477 0 20 0ZM12 9C12.5523 9 13 9.44771 13 10V19C13 19.5523 12.5523 20 12 20C11.4477 20 11 19.5523 11 19V10C11 9.44771 11.4477 9 12 9ZM0 12C0 11.4477 0.447715 11 1 11H4H7C7.55228 11 8 11.4477 8 12C8 12.5523 7.55228 13 7 13H5V19C5 19.5523 4.55228 20 4 20C3.44772 20 3 19.5523 3 19V13H1C0.447715 13 0 12.5523 0 12ZM16 14C16 13.4477 16.4477 13 17 13H20H23C23.5523 13 24 13.4477 24 14C24 14.5523 23.5523 15 23 15H21V19C21 19.5523 20.5523 20 20 20C19.4477 20 19 19.5523 19 19V15H17C16.4477 15 16 14.5523 16 14Z" fill="#0C131D"/></symbol><symbol viewBox="0 0 24 24" fill="none" id="gear"><path fill-rule="evenodd" clip-rule="evenodd" d="M12 3C11.783 3 11.5749 3.0862 11.4215 3.23964C11.268 3.39308 11.1818 3.60119 11.1818 3.81818V3.97273V3.97672H11.1818C11.1799 4.46427 11.0354 4.94062 10.7662 5.34712C10.497 5.75362 10.1148 6.07253 9.66666 6.26459C9.58505 6.29957 9.49934 6.32344 9.41182 6.33573C9.0071 6.47577 8.57198 6.50987 8.14833 6.43305C7.65682 6.34393 7.20328 6.10962 6.84619 5.76032L6.8383 5.7526L6.83835 5.75256L6.7838 5.69801L6.78341 5.69762C6.70742 5.62155 6.61719 5.5612 6.51786 5.52003C6.41853 5.47885 6.31207 5.45766 6.20455 5.45766C6.09702 5.45766 5.99056 5.47885 5.89123 5.52003C5.7919 5.5612 5.70167 5.62155 5.62568 5.69762L5.6249 5.69841C5.54882 5.7744 5.48848 5.86463 5.4473 5.96396C5.40613 6.06328 5.38493 6.16975 5.38493 6.27727C5.38493 6.38479 5.40613 6.49126 5.4473 6.59059C5.48847 6.68991 5.54882 6.78015 5.6249 6.85614L5.62529 6.85653L5.67983 6.91107L5.68763 6.91887L5.68759 6.91892C6.03689 7.27601 6.2712 7.72955 6.36032 8.22106C6.44756 8.70219 6.39175 9.19811 6.20017 9.6475C6.025 10.1058 5.71874 10.5027 5.31929 10.7884C4.91127 11.0802 4.42489 11.2425 3.92338 11.2543L3.9 11.2545H3.81818C3.60119 11.2545 3.39308 11.3407 3.23964 11.4942C3.0862 11.6476 3 11.8557 3 12.0727C3 12.2897 3.0862 12.4978 3.23964 12.6513C3.39308 12.8047 3.60119 12.8909 3.81818 12.8909H3.97273H3.97672V12.8909C4.46427 12.8929 4.94062 13.0373 5.34712 13.3065C5.75214 13.5748 6.0702 13.9551 6.26249 14.4012C6.46244 14.8569 6.52185 15.3619 6.43305 15.8517C6.34393 16.3432 6.10962 16.7967 5.76032 17.1538L5.75261 17.1617L5.75256 17.1616L5.69802 17.2162L5.69762 17.2166C5.62155 17.2926 5.5612 17.3828 5.52003 17.4821C5.47885 17.5815 5.45766 17.6879 5.45766 17.7955C5.45766 17.903 5.47885 18.0094 5.52003 18.1088C5.5612 18.2081 5.62155 18.2983 5.69762 18.3743L5.69841 18.3751C5.77439 18.4512 5.86463 18.5115 5.96396 18.5527C6.06328 18.5939 6.16975 18.6151 6.27727 18.6151C6.38479 18.6151 6.49126 18.5939 6.59059 18.5527C6.68992 18.5115 6.78015 18.4512 6.85614 18.3751L6.85652 18.3747L6.91106 18.3202L6.91887 18.3124L6.91892 18.3124C7.27601 17.9631 7.72955 17.7288 8.22106 17.6397C8.70219 17.5524 9.1981 17.6082 9.64749 17.7998C10.1058 17.975 10.5027 18.2813 10.7884 18.6807C11.0802 19.0887 11.2425 19.5751 11.2543 20.0766L11.2545 20.1V20.1818C11.2545 20.3988 11.3407 20.6069 11.4942 20.7604C11.6476 20.9138 11.8557 21 12.0727 21C12.2897 21 12.4978 20.9138 12.6513 20.7604C12.8047 20.6069 12.8909 20.3988 12.8909 20.1818V20.0273L12.8909 20.0233C12.8929 19.5357 13.0373 19.0594 13.3065 18.6529C13.5748 18.2479 13.9551 17.9298 14.4012 17.7375C14.8569 17.5376 15.3619 17.4781 15.8517 17.5669C16.3432 17.6561 16.7967 17.8904 17.1538 18.2397L17.1617 18.2474L17.1616 18.2474L17.2162 18.302L17.2166 18.3024C17.2926 18.3784 17.3828 18.4388 17.4821 18.48C17.5815 18.5211 17.6879 18.5423 17.7955 18.5423C17.903 18.5423 18.0094 18.5211 18.1088 18.48C18.2081 18.4388 18.2983 18.3784 18.3743 18.3024L18.3751 18.3016C18.4512 18.2256 18.5115 18.1354 18.5527 18.036C18.5939 17.9367 18.6151 17.8302 18.6151 17.7227C18.6151 17.6152 18.5939 17.5087 18.5527 17.4094C18.5115 17.3101 18.4512 17.2198 18.3751 17.1439L18.3747 17.1435L18.3202 17.0889L18.3124 17.0811L18.3124 17.0811C17.9631 16.724 17.7288 16.2705 17.6397 15.7789C17.5509 15.2892 17.6103 14.7842 17.8102 14.3284C18.0025 13.8824 18.3206 13.502 18.7256 13.2338C19.1321 12.9646 19.6085 12.8201 20.096 12.8182L20.1 12.8182L20.1818 12.8182C20.3988 12.8182 20.6069 12.732 20.7604 12.5785C20.9138 12.4251 21 12.217 21 12C21 11.783 20.9138 11.5749 20.7604 11.4215C20.6069 11.268 20.3988 11.1818 20.1818 11.1818H20.0273L20.0233 11.1818C19.5357 11.1799 19.0594 11.0354 18.6529 10.7662C18.2464 10.497 17.9275 10.1148 17.7354 9.66666C17.7004 9.58505 17.6766 9.49934 17.6643 9.41182C17.5242 9.0071 17.4901 8.57198 17.5669 8.14833C17.6561 7.65682 17.8904 7.20328 18.2397 6.84619L18.2474 6.83831L18.2474 6.83835L18.302 6.78381L18.3024 6.78341C18.3784 6.70742 18.4388 6.61718 18.48 6.51786C18.5211 6.41853 18.5423 6.31206 18.5423 6.20455C18.5423 6.09703 18.5211 5.99056 18.48 5.89123C18.4388 5.79191 18.3784 5.70167 18.3024 5.62568L18.3016 5.6249C18.2256 5.54882 18.1354 5.48847 18.036 5.4473C17.9367 5.40613 17.8302 5.38493 17.7227 5.38493C17.6152 5.38493 17.5087 5.40613 17.4094 5.4473C17.3101 5.48848 17.2198 5.54882 17.1439 5.6249L17.1435 5.62529L17.0889 5.67984L17.0811 5.68763L17.0811 5.68759C16.724 6.03689 16.2705 6.2712 15.7789 6.36032C15.2892 6.44912 14.7842 6.38971 14.3284 6.18976C13.8824 5.99748 13.502 5.67941 13.2338 5.27439C12.9646 4.86789 12.8201 4.39155 12.8182 3.90399L12.8182 3.9V3.81818C12.8182 3.60119 12.732 3.39308 12.5785 3.23964C12.4251 3.0862 12.217 3 12 3ZM10.0072 1.82543C10.5358 1.29691 11.2526 1 12 1C12.7474 1 13.4642 1.29691 13.9928 1.82543C14.5213 2.35394 14.8182 3.07075 14.8182 3.81818V3.89756C14.8189 3.99453 14.8477 4.08922 14.9013 4.17009C14.9551 4.25139 15.0316 4.31517 15.1212 4.35359L15.1311 4.35781L15.131 4.35786C15.2224 4.3982 15.3238 4.41023 15.4221 4.39241C15.5191 4.37483 15.6087 4.32898 15.6797 4.26067L15.7289 4.21147C15.729 4.21134 15.7291 4.2112 15.7293 4.21107C15.9909 3.94923 16.3016 3.74151 16.6435 3.59975C16.9857 3.45793 17.3524 3.38493 17.7227 3.38493C18.0931 3.38493 18.4598 3.45793 18.8019 3.59975C19.1437 3.74144 19.4542 3.94903 19.7158 4.21068C19.9778 4.47241 20.1857 4.78323 20.3275 5.12535C20.4693 5.46747 20.5423 5.83419 20.5423 6.20455C20.5423 6.5749 20.4693 6.94162 20.3275 7.28374C20.1857 7.62586 19.9778 7.93668 19.7158 8.19841L19.6666 8.24759C19.5983 8.31856 19.5524 8.40816 19.5349 8.50515C19.517 8.60345 19.5291 8.70484 19.5694 8.79623C19.5951 8.8544 19.6151 8.91472 19.6292 8.97636C19.6641 9.02419 19.7073 9.06569 19.7572 9.0987C19.8381 9.15228 19.9328 9.18116 20.0298 9.18182H20.1818C20.9292 9.18182 21.6461 9.47873 22.1746 10.0072C22.7031 10.5358 23 11.2526 23 12C23 12.7474 22.7031 13.4642 22.1746 13.9928C21.6461 14.5213 20.9292 14.8182 20.1818 14.8182H20.1024C20.0055 14.8189 19.9108 14.8477 19.8299 14.9013C19.7486 14.9551 19.6848 15.0316 19.6464 15.1212L19.6422 15.1311L19.6421 15.131C19.6018 15.2224 19.5898 15.3238 19.6076 15.4221C19.6252 15.5191 19.671 15.6087 19.7393 15.6797L19.7885 15.7289C20.0506 15.9906 20.2584 16.3014 20.4002 16.6435C20.5421 16.9857 20.6151 17.3524 20.6151 17.7227C20.6151 18.0931 20.5421 18.4598 20.4002 18.8019C20.2584 19.144 20.0506 19.4549 19.7885 19.7166L19.0822 19.0095L19.7893 19.7158C19.5276 19.9778 19.2168 20.1857 18.8746 20.3275C18.5325 20.4693 18.1658 20.5423 17.7955 20.5423C17.4251 20.5423 17.0584 20.4693 16.7163 20.3275C16.3741 20.1857 16.0633 19.9778 15.8016 19.7158L15.7524 19.6666C15.6814 19.5983 15.5918 19.5524 15.4949 19.5349C15.3965 19.517 15.2952 19.5291 15.2038 19.5694L15.194 19.5737L15.1939 19.5737C15.1043 19.6121 15.0279 19.6759 14.974 19.7572C14.9205 19.8381 14.8916 19.9327 14.8909 20.0297V20.1818C14.8909 20.9292 14.594 21.6461 14.0655 22.1746C13.537 22.7031 12.8202 23 12.0727 23C11.3253 23 10.6085 22.7031 10.08 22.1746C9.55146 21.6461 9.25455 20.9292 9.25455 20.1818V20.1148C9.2506 20.0176 9.21834 19.9235 9.16164 19.8442C9.10327 19.7626 9.02171 19.7004 8.92755 19.6658C8.90777 19.6585 8.88824 19.6506 8.86896 19.6421C8.77756 19.6018 8.67618 19.5898 8.57787 19.6076C8.48089 19.6252 8.39129 19.671 8.32032 19.7393L8.27114 19.7885C8.27101 19.7887 8.27088 19.7888 8.27075 19.7889C8.0091 20.0508 7.69842 20.2585 7.35647 20.4002C7.01435 20.5421 6.64762 20.6151 6.27727 20.6151C5.90692 20.6151 5.5402 20.5421 5.19808 20.4002C4.85596 20.2584 4.54514 20.0506 4.28341 19.7885C4.02175 19.527 3.81416 19.2164 3.67248 18.8746C3.53066 18.5325 3.45766 18.1658 3.45766 17.7955C3.45766 17.4251 3.53066 17.0584 3.67248 16.7163C3.81423 16.3743 4.02196 16.0636 4.2838 15.802C4.28385 15.8019 4.2839 15.8019 4.28395 15.8018C4.28403 15.8018 4.28411 15.8017 4.2842 15.8016L4.3334 15.7524C4.40171 15.6814 4.44755 15.5918 4.46514 15.4949C4.48296 15.3965 4.47093 15.2952 4.43059 15.2038L4.42626 15.194L4.42631 15.1939C4.3879 15.1043 4.32412 15.0279 4.24282 14.974C4.16195 14.9205 4.06726 14.8916 3.97029 14.8909H3.81818C3.07075 14.8909 2.35394 14.594 1.82543 14.0655C1.29691 13.537 1 12.8202 1 12.0727C1 11.3253 1.29691 10.6085 1.82543 10.08C2.35394 9.55146 3.07075 9.25455 3.81818 9.25455H3.88517C3.98244 9.2506 4.07651 9.21835 4.1558 9.16164C4.2374 9.10327 4.29956 9.02171 4.33419 8.92755C4.34146 8.90777 4.34936 8.88824 4.35786 8.86896C4.3982 8.77756 4.41023 8.67618 4.39241 8.57787C4.37483 8.4809 4.32898 8.39131 4.26068 8.32035L4.21147 8.27114C4.21134 8.27101 4.21121 8.27087 4.21108 8.27074C3.94924 8.00909 3.74151 7.69842 3.59975 7.35647C3.45793 7.01435 3.38493 6.64762 3.38493 6.27727C3.38493 5.90692 3.45793 5.5402 3.59975 5.19808C3.74151 4.85613 3.94924 4.54545 4.21107 4.2838C4.47273 4.02196 4.7834 3.81423 5.12535 3.67248C5.46747 3.53066 5.83419 3.45766 6.20455 3.45766C6.5749 3.45766 6.94162 3.53066 7.28374 3.67248C7.62569 3.81423 7.93637 4.02196 8.19802 4.2838C8.19807 4.28385 8.19812 4.2839 8.19817 4.28396C8.19825 4.28404 8.19833 4.28412 8.19841 4.2842L8.24762 4.3334C8.31858 4.40171 8.40817 4.44755 8.50515 4.46514C8.60345 4.48296 8.70484 4.47093 8.79623 4.43059C8.8544 4.40492 8.91473 4.38492 8.97637 4.37078C9.0242 4.33592 9.0657 4.29266 9.0987 4.24282C9.15228 4.16191 9.18116 4.06717 9.18182 3.97015V3.81818C9.18182 3.07075 9.47873 2.35394 10.0072 1.82543ZM12 10.2727C11.0461 10.2727 10.2727 11.0461 10.2727 12C10.2727 12.9539 11.0461 13.7273 12 13.7273C12.9539 13.7273 13.7273 12.9539 13.7273 12C13.7273 11.0461 12.9539 10.2727 12 10.2727ZM8.27273 12C8.27273 9.94148 9.94148 8.27273 12 8.27273C14.0585 8.27273 15.7273 9.94148 15.7273 12C15.7273 14.0585 14.0585 15.7273 12 15.7273C9.94148 15.7273 8.27273 14.0585 8.27273 12Z" fill="#00ADEF"/></symbol><symbol viewBox="0 0 16 15" id="info"><path d="M1.5 7.5C1.5 3.91015 4.41015 1 8 1C11.5899 1 14.5 3.91015 14.5 7.5C14.5 11.0899 11.5899 14 8 14C4.41015 14 1.5 11.0899 1.5 7.5ZM8 0C3.85786 0 0.5 3.35786 0.5 7.5C0.5 11.6421 3.85786 15 8 15C12.1421 15 15.5 11.6421 15.5 7.5C15.5 3.35786 12.1421 0 8 0ZM7.79004 10.475C7.5139 10.475 7.29004 10.6989 7.29004 10.975C7.29004 11.2512 7.5139 11.475 7.79004 11.475H7.79671C8.07285 11.475 8.29671 11.2512 8.29671 10.975C8.29671 10.6989 8.07285 10.475 7.79671 10.475H7.79004ZM8.24255 8.14623C8.55057 8.11559 8.85169 8.02669 9.12935 7.8825C9.57111 7.65308 9.93253 7.29457 10.1655 6.85466C10.3985 6.41476 10.4919 5.91434 10.4335 5.42C10.375 4.92566 10.1674 4.46085 9.8382 4.08744C9.50904 3.71402 9.07395 3.44971 8.59085 3.32969C8.10775 3.20966 7.59956 3.23961 7.1339 3.41555C6.66825 3.59149 6.26722 3.90507 5.98419 4.31457C5.70116 4.72406 5.54956 5.21004 5.54956 5.70782C5.54956 5.98397 5.77342 6.20782 6.04956 6.20782C6.3257 6.20782 6.54956 5.98397 6.54956 5.70782C6.54956 5.41318 6.6393 5.12552 6.80682 4.88314C6.97435 4.64076 7.21172 4.45514 7.48735 4.351C7.76297 4.24686 8.06378 4.22914 8.34973 4.30018C8.63568 4.37123 8.89321 4.52767 9.08805 4.7487C9.28289 4.96973 9.40579 5.24485 9.4404 5.53746C9.47501 5.83006 9.41968 6.12627 9.28178 6.38665C9.14389 6.64703 8.92996 6.85924 8.66847 6.99504C8.40699 7.13083 8.11034 7.18377 7.81803 7.1468C7.58936 7.11789 7.37726 7.24827 7.29324 7.45148C7.26078 7.51777 7.24255 7.5923 7.24255 7.67109V8.69816C7.24255 8.9743 7.46641 9.19816 7.74255 9.19816C8.0187 9.19816 8.24255 8.9743 8.24255 8.69816V8.14623Z"/></symbol><symbol viewBox="0 0 20 20" id="list-view"><path d="M0 1C0 .447715.447715 0 1 0H4C4.55228 0 5 .447715 5 1V4C5 4.55228 4.55228 5 4 5H1C.447715 5 0 4.55228 0 4V1zM0 8.5C0 7.94772.447715 7.5 1 7.5H4C4.55228 7.5 5 7.94772 5 8.5V11.5C5 12.0523 4.55228 12.5 4 12.5H1C.447715 12.5 0 12.0523 0 11.5V8.5zM0 16C0 15.4477.447715 15 1 15H4C4.55228 15 5 15.4477 5 16V19C5 19.5523 4.55228 20 4 20H1C.447715 20 0 19.5523 0 19V16zM7 1C7 .447715 7.44772 0 8 0H19C19.5523 0 20 .447715 20 1V4C20 4.55228 19.5523 5 19 5H8C7.44772 5 7 4.55228 7 4V1zM7 8.5C7 7.94772 7.44772 7.5 8 7.5H19C19.5523 7.5 20 7.94772 20 8.5V11.5C20 12.0523 19.5523 12.5 19 12.5H8C7.44772 12.5 7 12.0523 7 11.5V8.5zM7 16C7 15.4477 7.44772 15 8 15H19C19.5523 15 20 15.4477 20 16V19C20 19.5523 19.5523 20 19 20H8C7.44772 20 7 19.5523 7 19V16z"/></symbol><symbol viewBox="0 0 40 40" id="logo"><path d="M19.5137 23.7217C18.9657 23.6524 18.4654 24.0405 18.3961 24.5884C18.3268 25.1363 18.7148 25.6366 19.2628 25.7059L19.5137 23.7217ZM22.2472 24.2036L21.7864 23.3162H21.7864L22.2472 24.2036ZM24.3091 22.1583L23.4254 21.6903V21.6903L24.3091 22.1583ZM24.8423 19.3035L25.8354 19.1861L24.8423 19.3035ZM23.6578 16.6519L22.9076 17.3131L23.6578 16.6519ZM18.2765 15.3149L18.63 16.2503L18.2765 15.3149ZM15.9887 17.1038L16.8114 17.6724L15.9887 17.1038ZM14.1239 19.8763C14.1239 20.4285 14.5716 20.8763 15.1239 20.8763C15.6761 20.8763 16.1239 20.4285 16.1239 19.8763H14.1239ZM35.6668 20.0002C35.6668 28.6526 28.6526 35.6668 20.0002 35.6668V37.6668C29.7572 37.6668 37.6668 29.7572 37.6668 20.0002H35.6668ZM20.0002 35.6668C11.3477 35.6668 4.3335 28.6526 4.3335 20.0002H2.3335C2.3335 29.7572 10.2431 37.6668 20.0002 37.6668V35.6668ZM4.3335 20.0002C4.3335 11.3477 11.3477 4.3335 20.0002 4.3335V2.3335C10.2431 2.3335 2.3335 10.2431 2.3335 20.0002H4.3335ZM20.0002 4.3335C28.6526 4.3335 35.6668 11.3477 35.6668 20.0002H37.6668C37.6668 10.2431 29.7572 2.3335 20.0002 2.3335V4.3335ZM19.2628 25.7059C20.447 25.8557 21.6488 25.6412 22.7081 25.0911L21.7864 23.3162C21.0876 23.6791 20.2948 23.8205 19.5137 23.7217L19.2628 25.7059ZM22.7081 25.0911C23.7675 24.541 24.6341 23.6812 25.1928 22.6264L23.4254 21.6903C23.0568 22.3862 22.4851 22.9533 21.7864 23.3162L22.7081 25.0911ZM25.1928 22.6264C25.7514 21.5715 25.9756 20.3715 25.8354 19.1861L23.8492 19.421C23.9417 20.2029 23.7939 20.9945 23.4254 21.6903L25.1928 22.6264ZM25.8354 19.1861C25.6952 18.0006 25.1973 16.886 24.4079 15.9906L22.9076 17.3131C23.4283 17.9038 23.7567 18.639 23.8492 19.421L25.8354 19.1861ZM24.4079 15.9906C23.6186 15.0952 22.5753 14.4614 21.4168 14.1735L20.9346 16.1145C21.6987 16.3044 22.3869 16.7225 22.9076 17.3131L24.4079 15.9906ZM21.4168 14.1735C20.2584 13.8857 19.0397 13.9575 17.9231 14.3794L18.63 16.2503C19.3665 15.972 20.1704 15.9247 20.9346 16.1145L21.4168 14.1735ZM17.9231 14.3794C16.8064 14.8013 15.8448 15.5533 15.1661 16.5353L16.8114 17.6724C17.2591 17.0247 17.8934 16.5286 18.63 16.2503L17.9231 14.3794ZM15.1661 16.5353C14.4874 17.5172 14.1239 18.6826 14.1239 19.8763H16.1239C16.1239 19.0889 16.3637 18.3201 16.8114 17.6724L15.1661 16.5353Z"/></symbol><symbol viewBox="0 0 20 20" id="mail"><path d="M10 12.4L8.02057 10.5808L2.36114 15.6748C2.56686 15.8752 2.84457 16 3.15086 16H16.8491C17.1543 16 17.4309 15.8752 17.6354 15.6748L11.9794 10.5808L10 12.4Z"/><path d="M17.6389 4.3252C17.4331 4.1236 17.1566 4 16.8491 4H3.15086C2.84571 4 2.56914 4.1248 2.36343 4.3276L10 11.2 17.6389 4.3252zM2 5.0536V15.0232L7.52343 10.0948 2 5.0536zM12.4766 10.0948L18 15.0232V5.05L12.4766 10.0948z"/></symbol><symbol viewBox="0 0 24 24" id="mail-dashed"><path fill-rule="evenodd" clip-rule="evenodd" d="M3.10654 5.55395C3.27192 5.22692 3.612 5 3.99996 5H20C20.3879 5 20.728 5.22692 20.8934 5.55395L12 11.7793L3.10654 5.55395ZM1.00001 5.98289C0.999852 5.99268 0.999835 6.00247 0.999963 6.01225V18C0.999963 19.6523 2.34768 21 3.99996 21H20C21.6522 21 23 19.6523 23 18V6.01222M21 7.92065V18C21 18.5477 20.5477 19 20 19H3.99996C3.45225 19 2.99996 18.5477 2.99996 18V7.92066L11.4265 13.8192C11.7708 14.0603 12.2291 14.0603 12.5734 13.8192L21 7.92065ZM22.9999 5.98402C22.9913 4.33904 21.6469 3 20 3H3.99996C2.35338 3 1.00928 4.33842 1.00001 5.98289"/></symbol><symbol viewBox="0 0 20 20" id="map-pin"><path fill-rule="evenodd" clip-rule="evenodd" d="M10 17C10 17 16 13.1818 16 8.72727C16 7.20831 15.3679 5.75155 14.2426 4.67748C13.1174 3.60341 11.5913 3 10 3C8.4087 3 6.88258 3.60341 5.75736 4.67748C4.63214 5.75155 4 7.20831 4 8.72727C4 13.1818 10 17 10 17ZM12.5 8.5C12.5 9.88071 11.3807 11 10 11C8.61929 11 7.5 9.88071 7.5 8.5C7.5 7.11929 8.61929 6 10 6C11.3807 6 12.5 7.11929 12.5 8.5Z"/></symbol><symbol viewBox="0 0 16 16" id="map-pin-dashed"><path fill-rule="evenodd" clip-rule="evenodd" d="M8 1.16675C6.54131 1.16675 5.14236 1.74621 4.11091 2.77766C3.07946 3.80911 2.5 5.20806 2.5 6.66675C2.5 8.79911 3.88287 10.8439 5.36298 12.4062C6.09281 13.1766 6.82433 13.8067 7.37396 14.2444C7.62883 14.4473 7.8437 14.6082 8 14.7218C8.15629 14.6082 8.37117 14.4473 8.62604 14.2444C9.17567 13.8067 9.90719 13.1766 10.637 12.4062C12.1171 10.8439 13.5 8.79911 13.5 6.66675C13.5 5.20806 12.9205 3.80911 11.8891 2.77766C10.8576 1.74621 9.45869 1.16675 8 1.16675ZM8 15.3334C7.72265 15.7494 7.72252 15.7494 7.72236 15.7492L7.72194 15.749L7.72068 15.7481L7.71653 15.7453L7.70186 15.7354C7.68928 15.7269 7.67119 15.7145 7.64793 15.6984C7.60143 15.6662 7.53429 15.619 7.44944 15.5578C7.2798 15.4352 7.03912 15.256 6.75104 15.0266C6.17567 14.5685 5.40719 13.9069 4.63702 13.094C3.11713 11.4896 1.5 9.20105 1.5 6.66675C1.5 4.94284 2.18482 3.28954 3.40381 2.07055C4.62279 0.851567 6.27609 0.166748 8 0.166748C9.72391 0.166748 11.3772 0.851567 12.5962 2.07055C13.8152 3.28954 14.5 4.94284 14.5 6.66675C14.5 9.20105 12.8829 11.4896 11.363 13.094C10.5928 13.9069 9.82433 14.5685 9.24896 15.0266C8.96088 15.256 8.7202 15.4352 8.55056 15.5578C8.46571 15.619 8.39857 15.6662 8.35207 15.6984C8.32881 15.7145 8.31072 15.7269 8.29814 15.7354L8.28347 15.7453L8.27932 15.7481L8.27806 15.749L8.27764 15.7492C8.27748 15.7494 8.27735 15.7494 8 15.3334ZM8 15.3334L8.27735 15.7494C8.1094 15.8614 7.8906 15.8614 7.72265 15.7494L8 15.3334ZM8 5.16675C7.17157 5.16675 6.5 5.83832 6.5 6.66675C6.5 7.49518 7.17157 8.16675 8 8.16675C8.82843 8.16675 9.5 7.49518 9.5 6.66675C9.5 5.83832 8.82843 5.16675 8 5.16675ZM5.5 6.66675C5.5 5.28604 6.61929 4.16675 8 4.16675C9.38071 4.16675 10.5 5.28604 10.5 6.66675C10.5 8.04746 9.38071 9.16675 8 9.16675C6.61929 9.16675 5.5 8.04746 5.5 6.66675Z"/></symbol><symbol viewBox="0 0 20 20" fill="none" id="mark"><path fill-rule="evenodd" clip-rule="evenodd" d="M5.83268 3C5.52326 3 5.22652 3.12292 5.00772 3.34171C4.78893 3.5605 4.66602 3.85725 4.66602 4.16667V16.5284L9.70873 12.9265C9.88258 12.8023 10.1161 12.8023 10.29 12.9265L15.3327 16.5284V4.16667C15.3327 3.85725 15.2098 3.5605 14.991 3.34171C14.7722 3.12292 14.4754 3 14.166 3H5.83268ZM4.30062 2.6346C4.70695 2.22827 5.25805 2 5.83268 2H14.166C14.7407 2 15.2918 2.22827 15.6981 2.6346C16.1044 3.04093 16.3327 3.59203 16.3327 4.16667V17.5C16.3327 17.6873 16.228 17.8589 16.0615 17.9446C15.8949 18.0303 15.6945 18.0157 15.5421 17.9069L9.99935 13.9478L4.45663 17.9069C4.30423 18.0157 4.10376 18.0303 3.93722 17.9446C3.77069 17.8589 3.66602 17.6873 3.66602 17.5V4.16667C3.66602 3.59203 3.89429 3.04093 4.30062 2.6346Z" fill="#00ADEF"/></symbol><symbol viewBox="0 0 25 24" fill="none" id="menu"><path d="M2.5 10.9619L7.5 10.9619M2.5 4H20.5M2.5 18L6.5 18M22.5 21L19.6 18.1M21.1667 14.3334C21.1667 17.2789 18.7789 19.6667 15.8333 19.6667 12.8878 19.6667 10.5 17.2789 10.5 14.3334 10.5 11.3878 12.8878 9 15.8333 9 18.7789 9 21.1667 11.3878 21.1667 14.3334z" stroke="#fff" stroke-width="1.5" stroke-linecap="round" stroke-linejoin="round"/></symbol><symbol viewBox="0 0 12 12" fill="none" id="minus"><path fill-rule="evenodd" clip-rule="evenodd" d="M2.00078 6.79922L10.0008 6.79922C10.4426 6.79922 10.8008 6.44105 10.8008 5.99922C10.8008 5.55739 10.4426 5.19922 10.0008 5.19922L2.00078 5.19922C1.55895 5.19922 1.20078 5.55739 1.20078 5.99922C1.20078 6.44105 1.55895 6.79922 2.00078 6.79922Z" fill="#0C131D"/></symbol><symbol viewBox="0 0 20 20" id="mosaic-view"><path d="M0 1C0 .447715.447715 0 1 0H7C7.55228 0 8 .447715 8 1V7C8 7.55228 7.55228 8 7 8H1C.447715 8 0 7.55228 0 7V1zM0 13C0 12.4477.447715 12 1 12H7C7.55228 12 8 12.4477 8 13V19C8 19.5523 7.55228 20 7 20H1C.447715 20 0 19.5523 0 19V13zM12 1C12 .447715 12.4477 0 13 0H19C19.5523 0 20 .447715 20 1V7C20 7.55228 19.5523 8 19 8H13C12.4477 8 12 7.55228 12 7V1zM12 13C12 12.4477 12.4477 12 13 12H19C19.5523 12 20 12.4477 20 13V19C20 19.5523 19.5523 20 19 20H13C12.4477 20 12 19.5523 12 19V13z"/></symbol><symbol viewBox="0 0 40 40" id="needls"><path d="M8.3335 35L31.6668 35M11.6667 17.6468L27.7655 21.9605M8.3335 5L31.6668 5M11.6667 10L27.7655 14.3137M11.6667 25.2938L27.7655 29.6075M11.6667 31.6667L11.6667 8.33333C11.6667 6.49238 12.9104 5 14.4445 5L25.5556 5C27.0897 5 28.3334 6.49238 28.3334 8.33333L28.3334 31.6667C28.3334 33.5076 27.0897 35 25.5556 35H14.4445C12.9104 35 11.6667 33.5076 11.6667 31.6667Z" stroke="#000" stroke-width="2" stroke-linecap="round" stroke-linejoin="round"/></symbol><symbol viewBox="0 0 20 20" id="phone"><path d="M17.4928 14.3379C17.5246 14.5816 17.4504 14.7934 17.2705 14.9735L15.1586 17.0709C15.0633 17.1768 14.9389 17.2669 14.7854 17.341C14.6319 17.4152 14.4811 17.4628 14.3329 17.484C14.3224 17.484 14.2905 17.4867 14.2376 17.492C14.1847 17.4973 14.1159 17.5 14.0312 17.5C13.83 17.5 13.5045 17.4656 13.0545 17.3967C12.6046 17.3278 12.0542 17.1583 11.4032 16.8882C10.752 16.6181 10.0136 16.2128 9.18792 15.6726C8.36222 15.1325 7.48353 14.3909 6.55193 13.4481C5.81089 12.7171 5.19689 12.018 4.70992 11.3506C4.22295 10.6832 3.83125 10.0662 3.53484 9.49946C3.23839 8.93272 3.01608 8.41895 2.86787 7.95815C2.71967 7.49734 2.6191 7.1001 2.56616 6.76641C2.51323 6.43273 2.49206 6.17054 2.50265 5.97987C2.51323 5.78919 2.51853 5.68326 2.51853 5.66207C2.5397 5.51377 2.58734 5.36281 2.66144 5.20921C2.73555 5.05561 2.82553 4.93114 2.93139 4.8358L5.04336 2.72246C5.19157 2.57415 5.36095 2.5 5.5515 2.5C5.68912 2.5 5.81087 2.53972 5.91673 2.61917C6.02259 2.69862 6.11258 2.79661 6.18668 2.91313L7.88578 6.13876C7.98106 6.30826 8.00752 6.49364 7.96518 6.69491C7.92283 6.89618 7.83285 7.06567 7.69523 7.20338L6.91713 7.98198C6.89596 8.00317 6.87744 8.0376 6.86156 8.08527C6.84568 8.13294 6.83774 8.17266 6.83774 8.20444C6.88008 8.4269 6.97536 8.68113 7.12357 8.96715C7.2506 9.22139 7.44645 9.53124 7.71111 9.8967C7.97576 10.2622 8.35158 10.6832 8.83855 11.1599C9.31493 11.6473 9.73838 12.0259 10.1089 12.2961C10.4793 12.5661 10.7891 12.7648 11.0379 12.8919C11.2867 13.0191 11.4772 13.0959 11.6095 13.1223L11.808 13.162C11.8291 13.162 11.8636 13.154 11.9112 13.1382C11.9588 13.1223 11.9932 13.1037 12.0144 13.0825L12.9195 12.1609C13.1102 11.9915 13.3324 11.9067 13.5865 11.9067C13.7665 11.9067 13.9094 11.9385 14.0152 12.0021H14.0311L17.0958 13.8135C17.3182 13.9513 17.4505 14.126 17.4928 14.3379Z"/></symbol><symbol viewBox="0 0 16 16" fill="none" id="phone-dashed"><path fill-rule="evenodd" clip-rule="evenodd" d="M9.53618 0.611342C9.56667 0.336888 9.81388 0.139115 10.0883 0.169605C11.5539 0.33242 12.9206 0.988731 13.964 2.03078C15.0073 3.07282 15.6653 4.43867 15.83 5.90405C15.8608 6.17846 15.6634 6.42592 15.389 6.45675C15.1145 6.48759 14.8671 6.29013 14.8363 6.01571C14.6969 4.77577 14.1401 3.62006 13.2573 2.73833C12.3744 1.8566 11.218 1.30126 9.97792 1.16349C9.70347 1.133 9.50569 0.885796 9.53618 0.611342ZM5.29628 2.03466C5.14296 1.90281 4.94692 1.8312 4.74471 1.83319L4.73979 1.83324V1.83321H2.74004C2.62443 1.83335 2.5101 1.85755 2.40434 1.90427C2.29852 1.95101 2.20358 2.01928 2.12558 2.10472C2.04758 2.19017 1.98823 2.29092 1.95131 2.40056C1.91475 2.50909 1.90096 2.62399 1.91079 2.73807C2.12185 4.71908 2.79624 6.62263 3.87943 8.2947L3.88182 8.29838L3.8818 8.29839C4.86599 9.84721 6.17913 11.1604 7.72795 12.1445L7.73185 12.147L7.73184 12.147C9.39616 13.2263 11.2902 13.9005 13.2621 14.1156C13.3764 14.1254 13.4915 14.1114 13.6001 14.0747C13.71 14.0375 13.811 13.9778 13.8965 13.8994C13.982 13.8209 14.0502 13.7255 14.0967 13.6191C14.2105 13.3589 14.2424 13.01 14.2308 12.5786C14.2256 12.3863 14.2125 12.1924 14.1991 11.9923C14.1978 11.9727 14.1964 11.953 14.1951 11.9332C14.1807 11.7176 14.1665 11.4922 14.1665 11.2799V11.2675L14.1666 11.2675C14.1717 11.0631 14.1015 10.8641 13.9693 10.7081C13.8376 10.5526 13.6535 10.4508 13.4519 10.4219C13.0918 10.3741 12.6961 10.2433 12.3524 10.1298C12.2506 10.0962 12.1533 10.0641 12.0629 10.0361C11.617 9.89792 11.2785 9.8343 11.0035 9.89295C10.8481 9.92608 10.7055 10.0029 10.5923 10.1144C10.592 10.1148 10.5917 10.1151 10.5914 10.1154L9.74668 10.9601C9.58752 11.1193 9.34164 11.1525 9.14598 11.0412C7.39871 10.0477 5.952 8.60096 4.95848 6.85369C4.84722 6.65803 4.88042 6.41215 5.03957 6.25299L5.88513 5.40744C5.99669 5.29429 6.07358 5.1516 6.10673 4.99618C6.13996 4.84036 6.12783 4.67828 6.07177 4.52914L6.07134 4.52802C5.83277 3.88866 5.66719 3.22439 5.57776 2.54786C5.54908 2.34841 5.44909 2.16608 5.29628 2.03466ZM4.73753 0.833215C5.18145 0.829488 5.61169 0.986971 5.94832 1.27648C6.28563 1.56656 6.50594 1.9694 6.5682 2.40991L6.56885 2.4145L6.56883 2.4145C6.64832 3.01716 6.79572 3.60889 7.00824 4.17841L6.53979 4.35321L7.00782 4.17728C7.13115 4.50538 7.15784 4.86196 7.08473 5.20476C7.01162 5.54756 6.84178 5.86222 6.59532 6.11145L6.59335 6.11344L6.59335 6.11343L6.02131 6.68547C6.84936 8.02305 7.97662 9.15032 9.31421 9.97836L9.88624 9.40633L9.88822 9.40435L9.88822 9.40436C10.1375 9.1579 10.4521 8.98805 10.7949 8.91494C11.3463 8.79735 11.9067 8.94078 12.3589 9.08087C12.495 9.12306 12.6214 9.16467 12.7405 9.20385C13.0601 9.30906 13.3263 9.3967 13.5852 9.43084L13.5896 9.43143L13.5896 9.43145C14.0349 9.49427 14.4416 9.71856 14.7323 10.0617C15.0215 10.403 15.1759 10.8383 15.1665 11.2854C15.1667 11.4582 15.1784 11.6501 15.1929 11.8665C15.1942 11.8865 15.1956 11.9067 15.197 11.927C15.2102 12.124 15.2246 12.3381 15.2304 12.5516C15.2429 13.0139 15.219 13.5484 15.0129 14.0198C14.9106 14.2537 14.7606 14.4636 14.5725 14.6362C14.3844 14.8088 14.1623 14.9402 13.9205 15.022C13.6786 15.1038 13.4224 15.1342 13.1681 15.1112L13.1591 15.1104L13.1591 15.1103C11.0307 14.879 8.98615 14.1519 7.18967 12.9873C5.5184 11.9249 4.10133 10.5078 3.03896 8.83655C1.87028 7.03188 1.14297 4.97738 0.915922 2.83935L0.915094 2.83155L0.915155 2.83155C0.892248 2.57806 0.922374 2.32258 1.00361 2.08137C1.08485 1.84016 1.21543 1.61851 1.38702 1.43053C1.55862 1.24256 1.76748 1.09237 2.0003 0.989527C2.23312 0.886688 2.4848 0.833455 2.73932 0.833215L2.73979 0.833214L4.73753 0.833215ZM9.54238 3.23747C9.59526 2.96644 9.85784 2.78959 10.1289 2.84247C10.8777 2.98857 11.5659 3.3548 12.1054 3.89428C12.6449 4.43377 13.0111 5.12197 13.1572 5.8708C13.2101 6.14183 13.0332 6.40441 12.7622 6.45729C12.4912 6.51017 12.2286 6.33333 12.1757 6.06229C12.0677 5.50881 11.797 5.00014 11.3983 4.60139C10.9995 4.20264 10.4909 3.93195 9.93738 3.82396C9.66635 3.77108 9.4895 3.5085 9.54238 3.23747Z" fill="#00ADEF"/></symbol><symbol viewBox="0 0 12 12" fill="none" id="plus"><path fill-rule="evenodd" clip-rule="evenodd" d="M6.00078 1.19922C5.55895 1.19922 5.20078 1.55739 5.20078 1.99922V5.19922H2.00078C1.55895 5.19922 1.20078 5.55739 1.20078 5.99922C1.20078 6.44105 1.55895 6.79922 2.00078 6.79922H5.20078V9.99922C5.20078 10.441 5.55895 10.7992 6.00078 10.7992C6.44261 10.7992 6.80078 10.441 6.80078 9.99922V6.79922H10.0008C10.4426 6.79922 10.8008 6.44105 10.8008 5.99922C10.8008 5.55739 10.4426 5.19922 10.0008 5.19922H6.80078V1.99922C6.80078 1.55739 6.44261 1.19922 6.00078 1.19922Z" fill="#0C131D"/></symbol><symbol viewBox="0 0 10 10" fill="none" id="remove"><path d="M1 1L5 5M5 5L9 9M5 5L9 1M5 5L1 9" stroke="#fff" stroke-linecap="round" stroke-linejoin="round"/></symbol><symbol viewBox="0 0 25 24" id="search"><path fill-rule="evenodd" clip-rule="evenodd" d="M11.5 4C7.63401 4 4.5 7.13401 4.5 11C4.5 14.866 7.63401 18 11.5 18C13.3859 18 15.0977 17.2542 16.3564 16.0414C16.3827 16.0072 16.4115 15.9742 16.4429 15.9429C16.4742 15.9115 16.5072 15.8827 16.5414 15.8564C17.7542 14.5977 18.5 12.8859 18.5 11C18.5 7.13401 15.366 4 11.5 4ZM18.5319 16.6177C19.7635 15.078 20.5 13.125 20.5 11C20.5 6.02944 16.4706 2 11.5 2C6.52944 2 2.5 6.02944 2.5 11C2.5 15.9706 6.52944 20 11.5 20C13.625 20 15.578 19.2635 17.1177 18.0319L20.7929 21.7071C21.1834 22.0976 21.8166 22.0976 22.2071 21.7071C22.5976 21.3166 22.5976 20.6834 22.2071 20.2929L18.5319 16.6177Z"/></symbol><symbol viewBox="0 0 20 20" fill="none" id="share"><path fill-rule="evenodd" clip-rule="evenodd" d="M12.3372 1.19311C12.5392 1.12379 12.763 1.19047 12.8941 1.35908L18.7274 8.85908C18.8679 9.03963 18.8679 9.29246 18.7274 9.47302L12.8941 16.973C12.763 17.1416 12.5392 17.2083 12.3372 17.139C12.1351 17.0697 11.9994 16.8796 11.9994 16.666V13.0024C7.26102 13.0595 4.92987 13.9326 3.73176 14.957C2.60971 15.9164 2.40344 17.0624 2.20935 18.1406C2.19221 18.2359 2.17516 18.3306 2.15758 18.4246C2.11121 18.6726 1.88732 18.8472 1.63548 18.8318C1.38364 18.8163 1.18277 18.6157 1.16706 18.3638C1.02602 16.1029 1.24194 12.8619 2.81168 10.1679C4.35416 7.52059 7.16408 5.4713 11.9994 5.33946V1.66605C11.9994 1.45244 12.1351 1.26243 12.3372 1.19311ZM12.9994 3.12331V5.83271C12.9994 6.10885 12.7756 6.33271 12.4994 6.33271C7.6815 6.33271 5.07645 8.2673 3.67571 10.6713C2.8732 12.0486 2.45256 13.6039 2.26233 15.0882C2.48095 14.7814 2.74941 14.4813 3.08188 14.197C4.59925 12.8995 7.3545 11.9994 12.4994 11.9994C12.7756 11.9994 12.9994 12.2232 12.9994 12.4994V15.2088L17.6993 9.16605L12.9994 3.12331Z" fill="#00ADEF"/></symbol><symbol viewBox="0 0 40 40" id="star"><path d="M25.1709 12.1422L20.9429 3.57674C20.5572 2.79528 19.4428 2.79528 19.0571 3.57674L14.8291 12.1422C14.6761 12.4523 14.3804 12.6673 14.0383 12.7173L4.58164 14.0995C3.71948 14.2255 3.37586 15.2853 4.00003 15.8932L10.8411 22.5564C11.0891 22.798 11.2023 23.1462 11.1438 23.4875L9.52954 32.8996C9.3822 33.7586 10.2839 34.4137 11.0554 34.008L19.5106 29.5615C19.817 29.4003 20.1831 29.4003 20.4895 29.5615L28.9447 34.008C29.7161 34.4137 30.6178 33.7586 30.4705 32.8996L28.8562 23.4875C28.7977 23.1462 28.9109 22.798 29.1589 22.5564L36 15.8932C36.6242 15.2853 36.2806 14.2255 35.4184 14.0995L25.9618 12.7173C25.6197 12.6673 25.324 12.4523 25.1709 12.1422Z"/></symbol><symbol viewBox="0 0 40 40" id="tools"><path d="M13.7533 30.7652C12.4367 32.9402 11.845 35.0002 9.5 35.0002C7.015 35.0002 5 32.9285 5 30.3718C5 27.8152 7.015 25.7418 9.5 25.7418C11.8333 25.7418 13.75 27.5668 13.9767 29.9052C13.9965 30.2079 13.9182 30.5089 13.7533 30.7635V30.7652ZM13.7533 30.7652L17 24.9718M26.2467 30.7652C27.5633 32.9402 28.155 35.0002 30.5 35.0002C32.985 35.0002 35 32.9285 35 30.3718C35 27.8152 32.985 25.7418 30.5 25.7418C28.1667 25.7418 26.25 27.5668 26.0217 29.9052C25.9933 30.2085 26.0883 30.5052 26.2467 30.7635M26.2467 30.7652V30.7635M26.2467 30.7652L11.8217 5.57683C11.7333 5.41724 11.6065 5.28217 11.4529 5.18384C11.2992 5.0855 11.1234 5.02699 10.9415 5.01359C10.7596 5.0002 10.5771 5.03233 10.4107 5.1071C10.2443 5.18186 10.0991 5.29691 9.98833 5.44183C7.14833 9.09183 7.43167 14.3585 10.6467 17.6635L26.2467 30.7635M19.9183 19.7152L28.1733 5.5585C28.2629 5.40045 28.3903 5.26705 28.544 5.17022C28.6977 5.07339 28.8731 5.01615 29.0543 5.0036C29.2356 4.99106 29.4171 5.0236 29.5827 5.09833C29.7483 5.17305 29.8928 5.28763 30.0033 5.43183C32.8483 9.0885 32.565 14.3618 29.345 17.6735L27.5 19.5702" stroke="#000" stroke-width="2" stroke-linecap="round" stroke-linejoin="round"/></symbol><symbol viewBox="0 0 16 10" fill="none" id="union"><path fill-rule="evenodd" clip-rule="evenodd" d="M0.292893 0.792893C0.683417 0.402369 1.31658 0.402369 1.70711 0.792893L8 7.08579L14.2929 0.792893C14.6834 0.402369 15.3166 0.402369 15.7071 0.792893C16.0976 1.18342 16.0976 1.81658 15.7071 2.20711L8.70711 9.20711C8.31658 9.59763 7.68342 9.59763 7.29289 9.20711L0.292893 2.20711C-0.0976311 1.81658 -0.0976311 1.18342 0.292893 0.792893Z" fill="#00ADEF"/></symbol><symbol viewBox="0 0 25 24" id="user"><path d="M20.5 21V19C20.5 17.9391 20.0786 16.9217 19.3284 16.1716 18.5783 15.4214 17.5609 15 16.5 15H8.5C7.43913 15 6.42172 15.4214 5.67157 16.1716 4.92143 16.9217 4.5 17.9391 4.5 19V21M12.5 11C14.7091 11 16.5 9.20914 16.5 7 16.5 4.79086 14.7091 3 12.5 3 10.2909 3 8.5 4.79086 8.5 7 8.5 9.20914 10.2909 11 12.5 11z"/></symbol></svg>