<svg width="40" height="41" viewBox="0 0 40 41" fill="none" xmlns="http://www.w3.org/2000/svg">
<path d="M14.0665 34.2109L13.5109 35.0424L14.0665 34.2109ZM10.1328 29.4177L9.20894 29.8004H9.20894L10.1328 29.4177ZM9.52505 23.2469L8.54426 23.0518V23.0519L9.52505 23.2469ZM12.448 17.7784L11.7409 17.0713H11.7409L12.448 17.7784ZM17.9165 14.8555L18.1116 15.8363H18.1116L17.9165 14.8555ZM24.0873 15.4632L23.7046 16.3871H23.7046L24.0873 15.4632ZM28.8805 19.3969L28.049 19.9525L28.8805 19.3969ZM30.6804 5.75L31.6091 6.12087C31.7322 5.8128 31.6944 5.46378 31.5084 5.18914C31.3223 4.9145 31.0122 4.75 30.6804 4.75V5.75ZM23.5602 5.75V4.75C23.1513 4.75 22.7836 4.99895 22.6318 5.37861L23.5602 5.75ZM26.3015 16.7151L25.7105 17.5218C25.96 17.7045 26.28 17.7616 26.5772 17.6764C26.8745 17.5911 27.1156 17.3731 27.2302 17.0859L26.3015 16.7151ZM13.6988 16.7151L12.7701 17.086C12.8847 17.3732 13.1258 17.5911 13.4231 17.6764C13.7203 17.7616 14.0403 17.7045 14.2898 17.5218L13.6988 16.7151ZM16.44 5.75L17.3685 5.37861C17.2166 4.99895 16.8489 4.75 16.44 4.75V5.75ZM9.31983 5.75V4.75C8.9881 4.75 8.67797 4.9145 8.49192 5.18914C8.30587 5.46378 8.26812 5.8128 8.39114 6.12087L9.31983 5.75ZM16.4646 26.0376L17.1717 25.3305H17.1717L16.4646 26.0376ZM16.4646 24.6234L15.7575 23.9163L16.4646 24.6234ZM20.7072 28.8661L20.0001 28.159L20.7072 28.8661ZM19.293 28.8661L18.5859 29.5732L19.293 28.8661ZM23.5357 24.6234L24.2428 23.9163L23.5357 24.6234ZM23.5357 26.0376L24.2428 26.7447L23.5357 26.0376ZM20.7072 21.795L20.0001 22.5021L20.7072 21.795ZM19.293 21.795L20.0001 22.5021L19.293 21.795ZM20.0001 35.0109C18.0856 35.0109 16.214 34.4431 14.622 33.3794L13.5109 35.0424C15.4317 36.3258 17.69 37.0109 20.0001 37.0109V35.0109ZM14.622 33.3794C13.0301 32.3158 11.7894 30.8039 11.0567 29.0351L9.20894 29.8004C10.093 31.9347 11.5901 33.7589 13.5109 35.0424L14.622 33.3794ZM11.0567 29.0351C10.324 27.2662 10.1323 25.3198 10.5058 23.442L8.54426 23.0519C8.09358 25.3176 8.32488 27.6661 9.20894 29.8004L11.0567 29.0351ZM10.5058 23.442C10.8794 21.5642 11.8013 19.8394 13.1551 18.4856L11.7409 17.0713C10.1074 18.7049 8.99495 20.7861 8.54426 23.0518L10.5058 23.442ZM13.1551 18.4856C13.5083 18.1324 13.8867 17.8086 14.2865 17.5163L13.1061 15.9018C12.6237 16.2545 12.1671 16.6452 11.7409 17.0713L13.1551 18.4856ZM14.2865 17.5163C15.4193 16.688 16.7237 16.1123 18.1116 15.8363L17.7214 13.8747C16.0467 14.2078 14.4729 14.9024 13.1061 15.9018L14.2865 17.5163ZM18.1116 15.8363C18.7365 15.712 19.3691 15.6503 20.0001 15.6503L20.0001 13.6503C19.2387 13.6503 18.4755 13.7247 17.7214 13.8747L18.1116 15.8363ZM20.0001 15.6503C21.2653 15.6503 22.5245 15.8983 23.7046 16.3871L24.47 14.5394C23.046 13.9495 21.5266 13.6503 20.0001 13.6503L20.0001 15.6503ZM23.7046 16.3871C24.4207 16.6837 25.0946 17.0636 25.7137 17.5163L26.8942 15.9018C26.1471 15.3556 25.334 14.8972 24.47 14.5394L23.7046 16.3871ZM25.7137 17.5163C26.6241 18.1819 27.4159 19.005 28.049 19.9525L29.712 18.8413C28.948 17.6981 27.9926 16.7049 26.8942 15.9018L25.7137 17.5163ZM28.049 19.9525C29.1127 21.5444 29.6804 23.416 29.6804 25.3306H31.6804C31.6804 23.0204 30.9954 20.7621 29.712 18.8413L28.049 19.9525ZM29.6804 25.3306C29.6804 27.8979 28.6606 30.3602 26.8451 32.1756L28.2594 33.5898C30.4498 31.3993 31.6804 28.4284 31.6804 25.3306H29.6804ZM26.8451 32.1756C25.0297 33.991 22.5675 35.0109 20.0001 35.0109V37.0109C23.0979 37.0109 26.0689 35.7803 28.2594 33.5898L26.8451 32.1756ZM30.6804 4.75H23.5602V6.75H30.6804V4.75ZM22.6318 5.37861L19.0717 14.2789L20.9286 15.0216L24.4887 6.12139L22.6318 5.37861ZM19.9991 15.6503C22.0533 15.6523 24.0535 16.3078 25.7105 17.5218L26.8925 15.9085C24.8932 14.4436 22.4797 13.6528 20.0011 13.6503L19.9991 15.6503ZM27.2302 17.0859L27.2327 17.0798L25.3752 16.3382L25.3728 16.3443L27.2302 17.0859ZM27.2326 17.0799L31.6091 6.12087L29.7518 5.37913L25.3753 16.3382L27.2326 17.0799ZM14.2898 17.5218C15.9468 16.3078 17.947 15.6523 20.0011 15.6503L19.9991 13.6503C17.5206 13.6528 15.1071 14.4436 13.1077 15.9085L14.2898 17.5218ZM20.9286 14.2789L17.3685 5.37861L15.5116 6.12139L19.0717 15.0216L20.9286 14.2789ZM16.44 4.75H9.31983V6.75H16.44V4.75ZM8.39114 6.12087L12.7676 17.0799L14.625 16.3382L10.2485 5.37913L8.39114 6.12087ZM12.7676 17.0799L12.7701 17.086L14.6274 16.3443L14.625 16.3382L12.7676 17.0799ZM20.0001 22.5021L22.8285 25.3305L24.2428 23.9163L21.4143 21.0879L20.0001 22.5021ZM22.8285 25.3305L20.0001 28.159L21.4143 29.5732L24.2428 26.7447L22.8285 25.3305ZM20.0001 28.159L17.1717 25.3305L15.7575 26.7447L18.5859 29.5732L20.0001 28.159ZM17.1717 25.3305L20.0001 22.5021L18.5859 21.0879L15.7575 23.9163L17.1717 25.3305ZM17.1717 25.3305V25.3305L15.7575 23.9163C14.9764 24.6974 14.9764 25.9637 15.7575 26.7447L17.1717 25.3305ZM20.0001 28.159V28.159L18.5859 29.5732C19.367 30.3542 20.6333 30.3542 21.4143 29.5732L20.0001 28.159ZM22.8285 25.3305V25.3305L24.2428 26.7447C25.0238 25.9637 25.0238 24.6974 24.2428 23.9163L22.8285 25.3305ZM21.4143 21.0879C20.6333 20.3068 19.367 20.3068 18.5859 21.0879L20.0001 22.5021L21.4143 21.0879Z" fill="#00ADEF"/>
</svg>
