<svg width="40" height="41" viewBox="0 0 40 41" fill="none" xmlns="http://www.w3.org/2000/svg">
<path d="M25.1709 12.8924L20.9429 4.32692C20.5572 3.54546 19.4428 3.54546 19.0571 4.32692L14.8291 12.8924C14.6761 13.2025 14.3804 13.4175 14.0383 13.4675L4.58164 14.8497C3.71948 14.9757 3.37586 16.0355 4.00003 16.6434L10.8411 23.3066C11.0891 23.5482 11.2023 23.8964 11.1438 24.2377L9.52954 33.6497C9.3822 34.5088 10.2839 35.1639 11.0554 34.7582L19.5106 30.3116C19.817 30.1505 20.1831 30.1505 20.4895 30.3116L28.9447 34.7582C29.7161 35.1639 30.6178 34.5088 30.4705 33.6497L28.8562 24.2377C28.7977 23.8964 28.9109 23.5482 29.1589 23.3066L36 16.6434C36.6242 16.0355 36.2806 14.9757 35.4184 14.8497L25.9618 13.4675C25.6197 13.4175 25.324 13.2025 25.1709 12.8924Z" stroke="#00ADEF" stroke-width="2" stroke-linecap="round" stroke-linejoin="round"/>
</svg>
