<svg width="54" height="52" viewBox="0 0 54 52" fill="none" xmlns="http://www.w3.org/2000/svg">
<path d="M31.5563 37.9656C31.5563 37.6939 31.5261 37.5731 31.375 37.3919C31.2541 37.241 30.2571 36.0936 29.9851 35.7916H25.453C25.1811 36.0936 24.184 37.241 24.0631 37.3919C23.912 37.5731 23.8818 37.6939 23.8818 37.9656C23.8818 38.0864 23.8818 50.3755 23.8818 50.3755L27.7191 50.2548L31.5563 50.3755C31.5563 50.3755 31.5563 38.0864 31.5563 37.9656Z" fill="#0E3E8A"/>
<path d="M29.9853 35.7616V34.5538C29.9853 34.1613 29.6831 33.8594 29.2903 33.8594H26.1481C25.7553 33.8594 25.4531 34.1613 25.4531 34.5538V35.7616H29.9853Z" fill="white"/>
<path fill-rule="evenodd" clip-rule="evenodd" d="M25.2178 34.5539C25.2178 34.0309 25.6256 33.6239 26.148 33.6239H29.2903C29.8126 33.6239 30.2205 34.0309 30.2205 34.5539V35.9972H25.2178V34.5539ZM26.148 34.0949C25.8848 34.0949 25.6883 34.2918 25.6883 34.5539V35.5262H29.7499V34.5539C29.7499 34.2918 29.5535 34.0949 29.2903 34.0949H26.148Z" fill="#828282"/>
<path d="M32.9765 50.3758C32.9765 49.9531 32.6441 49.621 32.2211 49.621H23.2173C22.7943 49.621 22.4619 49.9531 22.4619 50.3758V51.0099C22.4619 51.4326 22.7943 51.7648 23.2173 51.7648H32.2513C32.6743 51.7648 33.0067 51.4326 33.0067 51.0099V50.3758H32.9765Z" fill="white"/>
<path fill-rule="evenodd" clip-rule="evenodd" d="M22.2275 50.3754C22.2275 49.8222 22.6656 49.385 23.2182 49.385H32.222C32.6934 49.385 33.0814 49.7031 33.1853 50.1399H33.2429V51.0095C33.2429 51.5626 32.8048 51.9998 32.2523 51.9998H23.2182C22.6656 51.9998 22.2275 51.5626 22.2275 51.0095V50.3754ZM32.7723 50.6109H32.7421V50.3754C32.7421 50.0831 32.5155 49.856 32.222 49.856H23.2182C22.9248 49.856 22.6981 50.0831 22.6981 50.3754V51.0095C22.6981 51.3017 22.9248 51.5288 23.2182 51.5288H32.2523C32.5457 51.5288 32.7723 51.3017 32.7723 51.0095V50.6109Z" fill="#7A7A7A"/>
<path d="M22.6426 38.6904C22.8239 38.479 22.8843 38.3582 22.8843 38.1167C22.8843 37.9053 22.8843 36.3956 22.8843 36.0031L19.4701 33.0742C19.0471 33.1346 17.5666 33.346 17.3551 33.3762C17.1134 33.4064 17.0227 33.4667 16.8112 33.6781C16.7206 33.7687 8.68359 43.0686 8.68359 43.0686L11.6446 45.4841L14.4847 48.0809C14.515 48.0809 22.552 38.781 22.6426 38.6904Z" fill="#4392C8"/>
<path d="M22.885 36.0031L23.6706 35.0671C23.9123 34.7651 23.8821 34.3424 23.6101 34.1009L21.2534 32.0476C20.9513 31.8061 20.5283 31.8363 20.2865 32.1382L19.501 33.0742L22.885 36.0031Z" fill="white"/>
<path fill-rule="evenodd" clip-rule="evenodd" d="M20.106 31.9891C20.4357 31.5797 21.0071 31.5487 21.4015 31.864L21.4053 31.8671L23.7675 33.9251C24.1395 34.2555 24.1702 34.8215 23.8554 35.2147L23.852 35.219L22.9128 36.3379L19.1729 33.1009L20.106 31.9891ZM21.1042 32.2292C20.8956 32.0652 20.6245 32.0946 20.4714 32.2859L20.468 32.2901L19.8316 33.0484L22.8596 35.6691L23.4897 34.9183C23.6564 34.7081 23.6267 34.4305 23.4559 34.2781L21.1042 32.2292Z" fill="#828282"/>
<path d="M15.6027 49.017C15.8746 48.7151 15.8444 48.2319 15.512 47.9602L8.68358 42.0421C8.38144 41.7703 7.89801 41.8005 7.62608 42.1327L7.20308 42.6158C6.93115 42.9177 6.96137 43.4008 7.29373 43.6726L14.1222 49.5907C14.4243 49.8624 14.9077 49.8322 15.1797 49.5001L15.6027 49.017Z" fill="white"/>
<path fill-rule="evenodd" clip-rule="evenodd" d="M8.83906 41.8654L15.6636 47.7801C16.0962 48.1364 16.1391 48.7716 15.7785 49.1735L15.3589 49.6527C15.0026 50.0843 14.3683 50.127 13.9666 49.7675L7.14205 43.8528C6.70945 43.4965 6.6665 42.8613 7.0271 42.4594L7.44669 41.9802C7.80306 41.5486 8.43736 41.5059 8.83906 41.8654ZM8.52628 42.2173C8.32459 42.0359 7.99549 42.053 7.80801 42.282L7.80554 42.285L7.3778 42.7735C7.19659 42.9748 7.21348 43.303 7.44252 43.4902L7.44513 43.4924L14.2794 49.4155C14.4811 49.5969 14.8101 49.5799 14.9976 49.3509L15.0001 49.3479L15.4278 48.8593C15.609 48.6581 15.5922 48.3299 15.3631 48.1427L15.3605 48.1405L8.52628 42.2173Z" fill="#7A7A7A"/>
<path d="M16.0873 33.044C16.3593 32.9534 16.4499 32.8628 16.5708 32.6816C16.6614 32.5005 17.4168 31.2021 17.6283 30.8398L16.1478 26.5824C15.755 26.4314 14.3651 25.8879 14.1536 25.7973C13.9421 25.7067 13.791 25.7067 13.5493 25.7973C13.4285 25.8275 1.82617 29.8736 1.82617 29.8736L3.18582 33.4667L4.33396 37.1202C4.33396 37.1202 15.9665 33.0742 16.0873 33.044Z" fill="#299152"/>
<path d="M17.628 30.8401L18.7762 30.4476C19.1387 30.3268 19.32 29.9342 19.1992 29.5719L18.2021 26.5827C18.0812 26.2203 17.6884 26.0392 17.3259 26.1599L16.1777 26.5525L17.628 30.8401Z" fill="white"/>
<path fill-rule="evenodd" clip-rule="evenodd" d="M17.2518 25.9363C17.7292 25.7773 18.2608 26.014 18.4255 26.5079L19.4226 29.4972C19.5819 29.9748 19.3447 30.5058 18.8516 30.6706L17.4811 31.1391L15.8799 26.4054L17.2518 25.9363ZM17.4012 26.383L16.4761 26.6993L17.7755 30.5407L18.7021 30.2239C18.9336 30.1468 19.0586 29.8931 18.9763 29.6463L17.9792 26.6571C17.9023 26.4266 17.6488 26.301 17.4012 26.383Z" fill="#828282"/>
<path d="M4.81844 38.4488C5.21123 38.2978 5.42273 37.8751 5.27166 37.4825L2.31066 28.9677C2.15958 28.5752 1.73658 28.3638 1.3438 28.5148L0.739512 28.7261C0.346726 28.8771 0.135226 29.2998 0.286297 29.6924L3.2473 38.2072C3.39837 38.5997 3.82137 38.8111 4.21416 38.6601L4.81844 38.4488Z" fill="white"/>
<path fill-rule="evenodd" clip-rule="evenodd" d="M1.26148 28.2936C1.78553 28.0944 2.33576 28.3818 2.52867 28.883L2.53005 28.8866L5.49113 37.4017C5.69057 37.9262 5.40222 38.4761 4.90124 38.6686L4.89789 38.6699L4.29337 38.8814C3.76933 39.0805 3.21911 38.7931 3.02621 38.2919L3.02482 38.2883L0.0637362 29.7732C-0.135698 29.2487 0.152655 28.6989 0.653632 28.5063L0.656977 28.505L1.26148 28.2936ZM2.08828 29.0491C1.97848 28.7687 1.68603 28.6349 1.4266 28.7347L1.42325 28.7359L0.819239 28.9472C0.537968 29.0571 0.404836 29.3493 0.504309 29.6077L0.505694 29.6113L3.46659 38.1259C3.5764 38.4063 3.86884 38.54 4.12828 38.4403L4.13162 38.439L4.73565 38.2277C5.01691 38.1179 5.15004 37.8257 5.05056 37.5672L5.04918 37.5636L2.08828 29.0491Z" fill="#7A7A7A"/>
<path d="M13.9421 24.7105C14.214 24.8011 14.3349 24.8011 14.5464 24.7105C14.7276 24.6501 16.1477 24.1066 16.5405 23.9556L18.0512 19.7284C17.8397 19.3661 17.1146 18.0375 16.9937 17.8866C16.8729 17.6752 16.7822 17.6148 16.5103 17.494C16.4197 17.4336 4.84757 13.297 4.84757 13.297L3.66921 16.9505L2.27936 20.5135C2.24914 20.4833 13.8212 24.6501 13.9421 24.7105Z" fill="#EDB900"/>
<path d="M16.54 23.9555L17.6882 24.3782C18.0508 24.499 18.4435 24.3178 18.5644 23.9555L19.6219 21.0266C19.7428 20.6643 19.5615 20.2718 19.1989 20.151L18.0508 19.7283L16.54 23.9555Z" fill="white"/>
<path fill-rule="evenodd" clip-rule="evenodd" d="M17.9095 19.4253L19.2772 19.9289C19.7684 20.0948 20.0043 20.6246 19.8453 21.1013L19.8435 21.1068L18.7869 24.0331C18.621 24.525 18.0906 24.7605 17.6142 24.6018L17.6107 24.6006L16.2402 24.096L17.9095 19.4253ZM18.1926 20.0314L16.8404 23.8151L17.7659 24.1559C18.0127 24.2363 18.2649 24.1108 18.3415 23.881L18.3433 23.8755L19.3998 20.9497C19.4805 20.7037 19.3555 20.4514 19.1249 20.3746L19.1214 20.3734L18.1926 20.0314Z" fill="#828282"/>
<path d="M1.7647 21.8421C2.15748 21.9931 2.58048 21.7817 2.73155 21.3892L5.7832 12.9045C5.93427 12.512 5.72277 12.0893 5.32998 11.9383L4.7257 11.7269C4.33291 11.576 3.90991 11.7873 3.75884 12.1799L0.707195 20.6645C0.556124 21.057 0.767624 21.4798 1.16041 21.6307L1.7647 21.8421Z" fill="white"/>
<path fill-rule="evenodd" clip-rule="evenodd" d="M4.80591 11.5057L5.41041 11.7172L5.41376 11.7185C5.91513 11.9112 6.20354 12.4617 6.00319 12.9866L2.9506 21.4739C2.75768 21.9751 2.2074 22.2625 1.68335 22.0633L1.07885 21.8519L1.07551 21.8506C0.574133 21.6579 0.285721 21.1073 0.486085 20.5824L3.53867 12.0952C3.73158 11.5939 4.28186 11.3066 4.80591 11.5057ZM3.97869 12.2623L0.926238 20.7492C0.826766 21.0077 0.95984 21.2998 1.2411 21.4097L1.84513 21.621L1.84847 21.6222C2.10824 21.7221 2.40109 21.5879 2.51057 21.3068L5.56303 12.8199C5.6625 12.5614 5.52942 12.2692 5.24815 12.1594L4.64414 11.9481L4.6408 11.9468C4.38103 11.847 4.08817 11.9812 3.97869 12.2623Z" fill="#7A7A7A"/>
<path d="M34.397 15.954C34.1855 16.1352 34.1251 16.2258 34.0647 16.4673C34.0344 16.6787 33.7625 18.1582 33.6719 18.5508L36.4818 22.0533C36.9048 22.0533 38.4155 22.1137 38.5968 22.1137C38.8385 22.1137 38.9594 22.0835 39.1709 21.9023C39.2615 21.8118 48.8395 14.1122 48.8395 14.1122L46.3317 11.1833L44.0052 8.13367C44.0656 8.16386 34.4877 15.8936 34.397 15.954Z" fill="#0C0F06"/>
<path d="M43.1593 7.04649C42.827 7.31824 42.7968 7.77116 43.0385 8.1033L48.7188 15.1386C48.9907 15.4707 49.4439 15.5009 49.7763 15.2594L50.2597 14.8669C50.592 14.5951 50.6223 14.1422 50.3805 13.81L44.7305 6.77474C44.4585 6.4426 44.0053 6.41241 43.673 6.65396L43.1593 7.04649Z" fill="white"/>
<path fill-rule="evenodd" clip-rule="evenodd" d="M43.5345 6.46375C43.9575 6.15628 44.5536 6.18781 44.9122 6.62582L44.9136 6.62754L50.5672 13.6672L50.5705 13.6717C50.8784 14.0949 50.8467 14.6912 50.4083 15.0496L50.4077 15.0501L49.9194 15.4466L49.9143 15.4503C49.4912 15.7578 48.8952 15.7263 48.5365 15.2883L48.5355 15.287L42.8515 8.24711L42.8481 8.24234C42.5401 7.81919 42.5718 7.22291 43.0102 6.86445L43.0132 6.86201L43.5345 6.46375ZM43.8131 6.84338L43.3052 7.23151C43.0828 7.41566 43.054 7.72106 43.2252 7.96057L48.9005 14.9897C48.9007 14.9899 48.9008 14.9901 48.901 14.9903C49.0851 15.2145 49.3923 15.2443 49.6331 15.0726L50.1106 14.6848C50.1107 14.6848 50.1105 14.6849 50.1106 14.6848C50.3354 14.5008 50.3652 14.1937 50.1932 13.9533L44.5476 6.92361C44.3628 6.69872 44.0542 6.66964 43.8131 6.84338Z" fill="#7A7A7A"/>
<path d="M39.4717 23.2309C39.1998 23.2007 39.0789 23.2309 38.8674 23.3516C38.6861 23.4724 37.4473 24.2877 37.0848 24.5292L36.4805 28.998C36.7524 29.2999 37.7495 30.4473 37.9005 30.5983C38.0516 30.7795 38.1725 30.8399 38.4444 30.8701C38.5653 30.9003 50.7718 32.5006 50.7718 32.5006L51.1646 28.6961L51.7689 24.9218C51.7689 24.8614 39.5925 23.2309 39.4717 23.2309Z" fill="url(#paint0_linear_1450_53899)"/>
<path d="M37.0857 24.499L35.8771 24.348C35.4843 24.2876 35.152 24.5594 35.0916 24.9519L34.6686 28.0619C34.6081 28.4544 34.8801 28.7866 35.2728 28.847L36.4814 28.9979L37.0857 24.499Z" fill="white"/>
<path fill-rule="evenodd" clip-rule="evenodd" d="M35.9095 24.1147L37.3507 24.2947L36.6837 29.2605L35.2372 29.0798C34.7313 29.002 34.3548 28.5625 34.4358 28.0282L34.8591 24.916C34.937 24.41 35.3764 24.0346 35.9095 24.1147ZM35.3245 24.9859L34.9013 28.0978C34.8629 28.3466 35.0285 28.5697 35.3057 28.6137L36.2794 28.7353L36.821 24.7032L35.8415 24.5809C35.5912 24.5424 35.368 24.7091 35.3245 24.9859Z" fill="#828282"/>
<path d="M51.9818 23.4423C51.5588 23.3819 51.1962 23.6838 51.1358 24.0764L49.9574 33.0139C49.897 33.4366 50.1991 33.799 50.5919 33.8594L51.2264 33.95C51.6494 34.0103 52.012 33.7084 52.0724 33.3159L53.2508 24.3783C53.3112 23.9556 53.0091 23.5933 52.6163 23.5329L51.9818 23.4423Z" fill="white"/>
<path fill-rule="evenodd" clip-rule="evenodd" d="M50.9028 24.0407C50.9815 23.5296 51.4551 23.1294 52.0146 23.2093L52.6516 23.3002C53.1618 23.3787 53.5627 23.851 53.4835 24.4105L52.3046 33.3519C52.2259 33.863 51.7522 34.2631 51.1928 34.1833L50.5558 34.0923C50.0456 34.0139 49.6447 33.5415 49.7239 32.9821L50.9028 24.0407ZM51.3682 24.1101L50.1899 33.0474C50.1492 33.3325 50.3517 33.5838 50.6261 33.6266C50.6265 33.6266 50.6268 33.6267 50.6272 33.6267L51.2592 33.717C51.545 33.7578 51.7959 33.5553 51.8391 33.2825L53.0174 24.3451C53.0582 24.0601 52.8557 23.8088 52.5813 23.766L51.9481 23.6756C51.6624 23.6348 51.4115 23.8373 51.3682 24.1101Z" fill="#7A7A7A"/>
<path d="M38.2042 32.0478C38.0229 31.8364 37.902 31.776 37.6603 31.7458C37.4488 31.7156 35.9683 31.5647 35.5453 31.5043L32.252 34.5841C32.2822 35.0068 32.3124 36.5166 32.3426 36.6977C32.3426 36.9393 32.403 37.0601 32.5843 37.2714C32.675 37.362 41.0443 46.3599 41.0443 46.3599L43.7636 43.6726L46.634 41.1363C46.6944 41.1363 38.2948 32.1384 38.2042 32.0478Z" fill="#192B57"/>
<path d="M35.5749 31.5043L34.7289 30.5984C34.457 30.3267 34.034 30.2965 33.7621 30.5682L31.4658 32.7121C31.1938 32.9838 31.1636 33.4065 31.4356 33.6783L32.2816 34.5841L35.5749 31.5043Z" fill="white"/>
<path fill-rule="evenodd" clip-rule="evenodd" d="M33.5989 30.3985C33.9761 30.025 34.5463 30.083 34.8952 30.4317L34.8981 30.4346L35.9076 31.5155L32.2704 34.9169L31.2663 33.8418C30.8923 33.4647 30.9505 32.8942 31.2996 32.5453L31.3024 32.5425L33.5989 30.3985ZM34.5601 30.7624C34.3663 30.5712 34.0944 30.569 33.9284 30.7349L33.9255 30.7377L31.6295 32.8813C31.4382 33.0748 31.4361 33.3459 31.6019 33.5115L31.6047 33.5144L32.2929 34.2512L35.2424 31.4929L34.5601 30.7624Z" fill="#828282"/>
<path d="M47.7214 40.1397C47.4495 39.8378 46.966 39.8076 46.6639 40.1095L40.047 46.2692C39.7448 46.5409 39.7146 47.024 40.0168 47.326L40.4398 47.7789C40.7117 48.0808 41.1951 48.111 41.4973 47.8091L48.1142 41.6494C48.4163 41.3777 48.4465 40.8946 48.1444 40.5926L47.7214 40.1397Z" fill="white"/>
<path fill-rule="evenodd" clip-rule="evenodd" d="M47.8946 39.9804L48.3137 40.4291C48.7117 40.8303 48.6686 41.4658 48.273 41.8233L41.6603 47.979C41.2591 48.3763 40.624 48.3334 40.2665 47.9384L39.8474 47.4897C39.4494 47.0885 39.4925 46.4529 39.8881 46.0955L46.5008 39.9398C46.9019 39.5424 47.5371 39.5853 47.8946 39.9804ZM47.5466 40.2975C47.3609 40.0913 47.0328 40.0737 46.8301 40.2763L46.8271 40.2792L40.2042 46.4445C39.998 46.6299 39.9805 46.957 40.183 47.1594L40.1858 47.1623L40.6145 47.6213C40.8002 47.8275 41.1283 47.8451 41.331 47.6425L41.3339 47.6396L47.9569 41.4743C48.1631 41.2888 48.1806 40.9617 47.9781 40.7594L47.9753 40.7565L47.5466 40.2975Z" fill="#7A7A7A"/>
<path d="M33.4607 15.2595C33.4003 15.5312 33.3398 15.652 33.1585 15.803C33.0075 15.9238 31.8593 16.89 31.527 17.1617L27.0855 16.4371C26.874 16.0747 26.0884 14.8066 25.9675 14.6254C25.8467 14.414 25.8165 14.2933 25.8769 14.0215C25.9071 13.9007 27.9013 1.76257 27.9013 1.76257L31.678 2.48724L35.485 3.00055C35.485 3.03074 33.4909 15.1387 33.4607 15.2595Z" fill="#D21A1C"/>
<path d="M31.5569 17.162L31.3454 18.3697C31.285 18.7623 30.9224 19.0038 30.5599 18.9434L27.478 18.4301C27.1154 18.3697 26.8435 18.0074 26.9039 17.6149L27.1154 16.4071L31.5569 17.162Z" fill="white"/>
<path fill-rule="evenodd" clip-rule="evenodd" d="M26.9231 16.1357L31.8285 16.9695L31.5765 18.4082C31.4943 18.9331 31.007 19.2569 30.5202 19.1758L27.4384 18.6625C26.9474 18.5807 26.5905 18.0977 26.6704 17.5791L26.6711 17.5743L26.9231 16.1357ZM27.3057 16.6786L27.1351 17.653C27.0954 17.9185 27.2821 18.159 27.5156 18.1979L30.5975 18.7112C30.835 18.7507 31.072 18.5926 31.1119 18.3339L31.1126 18.3291L31.2833 17.3546L27.3057 16.6786Z" fill="#828282"/>
<path d="M36.9053 3.24202C36.8449 3.66475 36.4521 3.9365 36.0291 3.84591L27.1159 2.36638C26.6929 2.306 26.4209 1.91347 26.5116 1.49075L26.6022 0.856662C26.6626 0.43394 27.0554 0.16219 27.4784 0.252773L36.3917 1.7323C36.8147 1.79269 37.0866 2.18522 36.9959 2.60794L36.9053 3.24202Z" fill="white"/>
<path fill-rule="evenodd" clip-rule="evenodd" d="M27.4282 0.483251C27.136 0.420685 26.8749 0.604992 26.8341 0.890195L26.7423 1.53236L26.7406 1.54034C26.6782 1.83127 26.8618 2.09253 27.1481 2.1334L27.1533 2.13415L36.0719 3.61463L36.0773 3.61578C36.3694 3.67834 36.6306 3.49404 36.6714 3.20883L36.7632 2.56667L36.7649 2.55869C36.8273 2.26776 36.6437 2.0065 36.3574 1.96563L36.3521 1.96488L27.4335 0.484395L27.4282 0.483251ZM27.5209 0.0214388C26.9692 -0.0935001 26.4481 0.265149 26.3683 0.823473L26.2787 1.44999C26.1655 2.00042 26.5235 2.51846 27.0788 2.59931L35.9845 4.07759C36.5363 4.19253 37.0574 3.83388 37.1372 3.27556L37.2267 2.64904C37.34 2.09861 36.9819 1.58057 36.4267 1.49972L27.5209 0.0214388Z" fill="#7A7A7A"/>
<path d="M17.7788 16.9808C17.8997 17.2224 17.9903 17.313 18.2018 17.4338C18.3831 17.5243 19.7428 18.1584 20.1355 18.3094L24.2145 16.4373C24.3353 16.0448 24.7583 14.5955 24.7885 14.3841C24.849 14.1728 24.849 14.0218 24.7281 13.7802C24.6677 13.6595 19.5313 2.5177 19.5313 2.5177L16.0868 4.20859L12.5518 5.71831C12.5518 5.71831 17.7184 16.8903 17.7788 16.9808Z" fill="#FA5B15"/>
<path d="M20.1055 18.3094L20.6191 19.4265C20.7702 19.7889 21.1932 19.9399 21.5255 19.7587L24.3657 18.4603C24.698 18.3094 24.8491 17.8866 24.698 17.5243L24.1844 16.4071L20.1055 18.3094Z" fill="white"/>
<path fill-rule="evenodd" clip-rule="evenodd" d="M24.2984 16.0936L24.9127 17.4296L24.9143 17.4335C25.1087 17.8999 24.923 18.4652 24.4623 18.6746C24.4622 18.6747 24.4624 18.6746 24.4623 18.6746L21.6294 19.9697C21.1731 20.2125 20.6063 20.0026 20.4029 19.5214L19.793 18.1948L24.2984 16.0936ZM20.4162 18.4238L20.8338 19.3319L20.8354 19.3358C20.9345 19.5735 21.2064 19.664 21.4122 19.5518L21.4194 19.5478L24.2671 18.246L24.2676 18.2458C24.4705 18.1536 24.5867 17.8758 24.4815 17.6185L24.0686 16.7205L20.4162 18.4238Z" fill="#828282"/>
<path d="M11.2523 6.32186C11.4336 6.6842 11.8868 6.86537 12.2494 6.6842L20.4374 2.90989C20.8 2.72872 20.9813 2.27581 20.8 1.91347L20.5281 1.33978C20.3468 0.977445 19.8936 0.796278 19.531 0.977445L11.3731 4.75175C11.0106 4.93292 10.8293 5.38584 11.0106 5.74817L11.2523 6.32186Z" fill="white"/>
<path fill-rule="evenodd" clip-rule="evenodd" d="M19.4289 0.765236C19.9212 0.521762 20.5065 0.771779 20.7381 1.23451L20.7403 1.23899L21.0112 1.81059C21.256 2.30348 21.0051 2.88946 20.5421 3.12081L20.5388 3.12246L12.3505 6.89689C11.8583 7.14021 11.273 6.8902 11.0415 6.42753L11.0381 6.42066L10.7962 5.84645C10.5555 5.3546 10.8062 4.77179 11.2677 4.54123L11.2708 4.53965L19.4289 0.765236ZM20.3163 1.44341C20.1851 1.18398 19.8673 1.07263 19.6357 1.18836L19.6325 1.18994L11.475 4.96412C11.2156 5.09562 11.1053 5.41247 11.2206 5.6429L11.224 5.64977L11.4654 6.22283C11.5979 6.47925 11.9135 6.58877 12.1439 6.47367L12.1472 6.47202L20.335 2.69785C20.5942 2.5663 20.7045 2.24953 20.5893 2.01913L20.587 2.01465L20.3163 1.44341Z" fill="#7A7A7A"/>
<path d="M33.6715 18.5505L32.7348 19.3054C32.4327 19.547 32.3723 19.9697 32.614 20.2716L34.5779 22.7174C34.8196 23.0193 35.2426 23.0495 35.5448 22.808L36.4814 22.0531L33.6715 18.5505Z" fill="white"/>
<path fill-rule="evenodd" clip-rule="evenodd" d="M33.7084 18.2195L36.813 22.0893L35.6933 22.9917L35.6926 22.9923C35.2974 23.3081 34.7248 23.2765 34.3953 22.865C34.3953 22.865 34.3953 22.865 34.3953 22.865L32.4316 20.4195C32.1033 20.0094 32.1919 19.4394 32.5886 19.122L33.7084 18.2195ZM33.6365 18.8821L32.8826 19.4897C32.6754 19.6554 32.6435 19.9308 32.7985 20.1245C32.7985 20.1246 32.7984 20.1245 32.7985 20.1245L34.7623 22.5701C34.9161 22.7623 35.1895 22.7914 35.3986 22.6245C35.3987 22.6244 35.3985 22.6245 35.3986 22.6245L36.1518 22.0174L33.6365 18.8821Z" fill="#828282"/>
<defs>
<linearGradient id="paint0_linear_1450_53899" x1="43.3283" y1="33.1031" x2="44.7236" y2="22.3524" gradientUnits="userSpaceOnUse">
<stop offset="0.00395257" stop-color="#8E8C8C"/>
<stop offset="0.3399" stop-color="white"/>
<stop offset="0.6443" stop-color="#FAFAFA"/>
<stop offset="1" stop-color="#A19F9F"/>
</linearGradient>
</defs>
</svg>
