<svg width="22" height="22" viewBox="0 0 22 22" fill="none" xmlns="http://www.w3.org/2000/svg">
<path fill-rule="evenodd" clip-rule="evenodd" d="M11 2C6.02944 2 2 6.02944 2 11C2 15.9706 6.02944 20 11 20C15.9706 20 20 15.9706 20 11C20 6.02944 15.9706 2 11 2ZM0 11C0 4.92487 4.92487 0 11 0C17.0751 0 22 4.92487 22 11C22 17.0751 17.0751 22 11 22C4.92487 22 0 17.0751 0 11ZM10 5C10.5523 5 11 5.44772 11 6V11.382L14.4472 13.1056C14.9412 13.3526 15.1414 13.9532 14.8944 14.4472C14.6474 14.9412 14.0468 15.1414 13.5528 14.8944L9.55279 12.8944C9.214 12.725 9 12.3788 9 12V6C9 5.44772 9.44771 5 10 5Z" fill="#F2994A"/>
</svg>
