<svg width="23" height="22" viewBox="0 0 23 22" fill="none" xmlns="http://www.w3.org/2000/svg">
<path fill-rule="evenodd" clip-rule="evenodd" d="M11.5 2C6.52944 2 2.5 6.02944 2.5 11C2.5 15.9706 6.52944 20 11.5 20C16.4706 20 20.5 15.9706 20.5 11C20.5 6.02944 16.4706 2 11.5 2ZM0.5 11C0.5 4.92487 5.42487 0 11.5 0C17.5751 0 22.5 4.92487 22.5 11C22.5 17.0751 17.5751 22 11.5 22C5.42487 22 0.5 17.0751 0.5 11ZM17.2025 7.28835C17.5956 7.67634 17.5997 8.30949 17.2117 8.70253L11.2886 14.7025C10.9118 15.0842 10.3009 15.1007 9.90412 14.7398L6.8272 11.9416C6.4186 11.57 6.3886 10.9376 6.76018 10.529C7.13176 10.1204 7.76421 10.0904 8.1728 10.462L10.5396 12.6144L15.7883 7.29747C16.1763 6.90443 16.8095 6.90035 17.2025 7.28835Z" fill="#27AE60"/>
</svg>
