<svg width="16" height="15" viewBox="0 0 16 15"  xmlns="http://www.w3.org/2000/svg">
<path d="M1.5 7.5C1.5 3.91015 4.41015 1 8 1C11.5899 1 14.5 3.91015 14.5 7.5C14.5 11.0899 11.5899 14 8 14C4.41015 14 1.5 11.0899 1.5 7.5ZM8 0C3.85786 0 0.5 3.35786 0.5 7.5C0.5 11.6421 3.85786 15 8 15C12.1421 15 15.5 11.6421 15.5 7.5C15.5 3.35786 12.1421 0 8 0ZM7.79004 10.475C7.5139 10.475 7.29004 10.6989 7.29004 10.975C7.29004 11.2512 7.5139 11.475 7.79004 11.475H7.79671C8.07285 11.475 8.29671 11.2512 8.29671 10.975C8.29671 10.6989 8.07285 10.475 7.79671 10.475H7.79004ZM8.24255 8.14623C8.55057 8.11559 8.85169 8.02669 9.12935 7.8825C9.57111 7.65308 9.93253 7.29457 10.1655 6.85466C10.3985 6.41476 10.4919 5.91434 10.4335 5.42C10.375 4.92566 10.1674 4.46085 9.8382 4.08744C9.50904 3.71402 9.07395 3.44971 8.59085 3.32969C8.10775 3.20966 7.59956 3.23961 7.1339 3.41555C6.66825 3.59149 6.26722 3.90507 5.98419 4.31457C5.70116 4.72406 5.54956 5.21004 5.54956 5.70782C5.54956 5.98397 5.77342 6.20782 6.04956 6.20782C6.3257 6.20782 6.54956 5.98397 6.54956 5.70782C6.54956 5.41318 6.6393 5.12552 6.80682 4.88314C6.97435 4.64076 7.21172 4.45514 7.48735 4.351C7.76297 4.24686 8.06378 4.22914 8.34973 4.30018C8.63568 4.37123 8.89321 4.52767 9.08805 4.7487C9.28289 4.96973 9.40579 5.24485 9.4404 5.53746C9.47501 5.83006 9.41968 6.12627 9.28178 6.38665C9.14389 6.64703 8.92996 6.85924 8.66847 6.99504C8.40699 7.13083 8.11034 7.18377 7.81803 7.1468C7.58936 7.11789 7.37726 7.24827 7.29324 7.45148C7.26078 7.51777 7.24255 7.5923 7.24255 7.67109V8.69816C7.24255 8.9743 7.46641 9.19816 7.74255 9.19816C8.0187 9.19816 8.24255 8.9743 8.24255 8.69816V8.14623Z" />
</svg>
