<svg width="20" height="20" viewBox="0 0 20 20"  xmlns="http://www.w3.org/2000/svg">
<path d="M0 1C0 0.447715 0.447715 0 1 0H4C4.55228 0 5 0.447715 5 1V4C5 4.55228 4.55228 5 4 5H1C0.447715 5 0 4.55228 0 4V1Z" />
<path d="M0 8.5C0 7.94772 0.447715 7.5 1 7.5H4C4.55228 7.5 5 7.94772 5 8.5V11.5C5 12.0523 4.55228 12.5 4 12.5H1C0.447715 12.5 0 12.0523 0 11.5V8.5Z" />
<path d="M0 16C0 15.4477 0.447715 15 1 15H4C4.55228 15 5 15.4477 5 16V19C5 19.5523 4.55228 20 4 20H1C0.447715 20 0 19.5523 0 19V16Z" />
<path d="M7 1C7 0.447715 7.44772 0 8 0H19C19.5523 0 20 0.447715 20 1V4C20 4.55228 19.5523 5 19 5H8C7.44772 5 7 4.55228 7 4V1Z" />
<path d="M7 8.5C7 7.94772 7.44772 7.5 8 7.5H19C19.5523 7.5 20 7.94772 20 8.5V11.5C20 12.0523 19.5523 12.5 19 12.5H8C7.44772 12.5 7 12.0523 7 11.5V8.5Z" />
<path d="M7 16C7 15.4477 7.44772 15 8 15H19C19.5523 15 20 15.4477 20 16V19C20 19.5523 19.5523 20 19 20H8C7.44772 20 7 19.5523 7 19V16Z" />
</svg>
