<svg width="16" height="16" viewBox="0 0 16 16" xmlns="http://www.w3.org/2000/svg">
<path fill-rule="evenodd" clip-rule="evenodd" d="M8 1.16675C6.54131 1.16675 5.14236 1.74621 4.11091 2.77766C3.07946 3.80911 2.5 5.20806 2.5 6.66675C2.5 8.79911 3.88287 10.8439 5.36298 12.4062C6.09281 13.1766 6.82433 13.8067 7.37396 14.2444C7.62883 14.4473 7.8437 14.6082 8 14.7218C8.15629 14.6082 8.37117 14.4473 8.62604 14.2444C9.17567 13.8067 9.90719 13.1766 10.637 12.4062C12.1171 10.8439 13.5 8.79911 13.5 6.66675C13.5 5.20806 12.9205 3.80911 11.8891 2.77766C10.8576 1.74621 9.45869 1.16675 8 1.16675ZM8 15.3334C7.72265 15.7494 7.72252 15.7494 7.72236 15.7492L7.72194 15.749L7.72068 15.7481L7.71653 15.7453L7.70186 15.7354C7.68928 15.7269 7.67119 15.7145 7.64793 15.6984C7.60143 15.6662 7.53429 15.619 7.44944 15.5578C7.2798 15.4352 7.03912 15.256 6.75104 15.0266C6.17567 14.5685 5.40719 13.9069 4.63702 13.094C3.11713 11.4896 1.5 9.20105 1.5 6.66675C1.5 4.94284 2.18482 3.28954 3.40381 2.07055C4.62279 0.851567 6.27609 0.166748 8 0.166748C9.72391 0.166748 11.3772 0.851567 12.5962 2.07055C13.8152 3.28954 14.5 4.94284 14.5 6.66675C14.5 9.20105 12.8829 11.4896 11.363 13.094C10.5928 13.9069 9.82433 14.5685 9.24896 15.0266C8.96088 15.256 8.7202 15.4352 8.55056 15.5578C8.46571 15.619 8.39857 15.6662 8.35207 15.6984C8.32881 15.7145 8.31072 15.7269 8.29814 15.7354L8.28347 15.7453L8.27932 15.7481L8.27806 15.749L8.27764 15.7492C8.27748 15.7494 8.27735 15.7494 8 15.3334ZM8 15.3334L8.27735 15.7494C8.1094 15.8614 7.8906 15.8614 7.72265 15.7494L8 15.3334ZM8 5.16675C7.17157 5.16675 6.5 5.83832 6.5 6.66675C6.5 7.49518 7.17157 8.16675 8 8.16675C8.82843 8.16675 9.5 7.49518 9.5 6.66675C9.5 5.83832 8.82843 5.16675 8 5.16675ZM5.5 6.66675C5.5 5.28604 6.61929 4.16675 8 4.16675C9.38071 4.16675 10.5 5.28604 10.5 6.66675C10.5 8.04746 9.38071 9.16675 8 9.16675C6.61929 9.16675 5.5 8.04746 5.5 6.66675Z" />
</svg>
