<svg width="20" height="20" viewBox="0 0 20 20"  xmlns="http://www.w3.org/2000/svg">
<path d="M17.4928 14.3379C17.5246 14.5816 17.4504 14.7934 17.2705 14.9735L15.1586 17.0709C15.0633 17.1768 14.9389 17.2669 14.7854 17.341C14.6319 17.4152 14.4811 17.4628 14.3329 17.484C14.3224 17.484 14.2905 17.4867 14.2376 17.492C14.1847 17.4973 14.1159 17.5 14.0312 17.5C13.83 17.5 13.5045 17.4656 13.0545 17.3967C12.6046 17.3278 12.0542 17.1583 11.4032 16.8882C10.752 16.6181 10.0136 16.2128 9.18792 15.6726C8.36222 15.1325 7.48353 14.3909 6.55193 13.4481C5.81089 12.7171 5.19689 12.018 4.70992 11.3506C4.22295 10.6832 3.83125 10.0662 3.53484 9.49946C3.23839 8.93272 3.01608 8.41895 2.86787 7.95815C2.71967 7.49734 2.6191 7.1001 2.56616 6.76641C2.51323 6.43273 2.49206 6.17054 2.50265 5.97987C2.51323 5.78919 2.51853 5.68326 2.51853 5.66207C2.5397 5.51377 2.58734 5.36281 2.66144 5.20921C2.73555 5.05561 2.82553 4.93114 2.93139 4.8358L5.04336 2.72246C5.19157 2.57415 5.36095 2.5 5.5515 2.5C5.68912 2.5 5.81087 2.53972 5.91673 2.61917C6.02259 2.69862 6.11258 2.79661 6.18668 2.91313L7.88578 6.13876C7.98106 6.30826 8.00752 6.49364 7.96518 6.69491C7.92283 6.89618 7.83285 7.06567 7.69523 7.20338L6.91713 7.98198C6.89596 8.00317 6.87744 8.0376 6.86156 8.08527C6.84568 8.13294 6.83774 8.17266 6.83774 8.20444C6.88008 8.4269 6.97536 8.68113 7.12357 8.96715C7.2506 9.22139 7.44645 9.53124 7.71111 9.8967C7.97576 10.2622 8.35158 10.6832 8.83855 11.1599C9.31493 11.6473 9.73838 12.0259 10.1089 12.2961C10.4793 12.5661 10.7891 12.7648 11.0379 12.8919C11.2867 13.0191 11.4772 13.0959 11.6095 13.1223L11.808 13.162C11.8291 13.162 11.8636 13.154 11.9112 13.1382C11.9588 13.1223 11.9932 13.1037 12.0144 13.0825L12.9195 12.1609C13.1102 11.9915 13.3324 11.9067 13.5865 11.9067C13.7665 11.9067 13.9094 11.9385 14.0152 12.0021H14.0311L17.0958 13.8135C17.3182 13.9513 17.4505 14.126 17.4928 14.3379Z" />
</svg>
