<svg width="40" height="41" viewBox="0 0 40 41" fill="none" xmlns="http://www.w3.org/2000/svg">
<path d="M13.7533 31.015C12.4367 33.19 11.845 35.25 9.5 35.25C7.015 35.25 5 33.1784 5 30.6217C5 28.065 7.015 25.9917 9.5 25.9917C11.8333 25.9917 13.75 27.8167 13.9767 30.155C13.9965 30.4577 13.9182 30.7587 13.7533 31.0134V31.015ZM13.7533 31.015L17 25.2217M26.2467 31.015C27.5633 33.19 28.155 35.25 30.5 35.25C32.985 35.25 35 33.1784 35 30.6217C35 28.065 32.985 25.9917 30.5 25.9917C28.1667 25.9917 26.25 27.8167 26.0217 30.155C25.9933 30.4584 26.0883 30.755 26.2467 31.0134M26.2467 31.015V31.0134M26.2467 31.015L11.8217 5.82671C11.7333 5.66711 11.6065 5.53205 11.4529 5.43371C11.2992 5.33538 11.1234 5.27687 10.9415 5.26347C10.7596 5.25007 10.5771 5.28221 10.4107 5.35697C10.2443 5.43174 10.0991 5.54678 9.98833 5.69171C7.14833 9.34171 7.43167 14.6084 10.6467 17.9134L26.2467 31.0134M19.9183 19.965L28.1733 5.80838C28.2629 5.65033 28.3903 5.51693 28.544 5.4201C28.6977 5.32327 28.8731 5.26603 29.0543 5.25348C29.2356 5.24093 29.4171 5.27348 29.5827 5.3482C29.7483 5.42293 29.8928 5.53751 30.0033 5.68171C32.8483 9.33838 32.565 14.6117 29.345 17.9234L27.5 19.82" stroke="#00ADEF" stroke-width="2" stroke-linecap="round" stroke-linejoin="round"/>
</svg>
