<svg width="159" height="56" viewBox="0 0 159 56" fill="none" xmlns="http://www.w3.org/2000/svg">
<path d="M6.11596 48.6412C6.52396 48.8172 6.84796 49.0852 7.08796 49.4452C7.33596 49.7972 7.45996 50.2012 7.45996 50.6572C7.45996 51.3052 7.23196 51.8572 6.77596 52.3132C6.31996 52.7692 5.76796 52.9972 5.11996 52.9972H1.45996V44.5972H4.84396C5.46796 44.5972 5.99996 44.8212 6.43996 45.2692C6.87996 45.7092 7.09996 46.2372 7.09996 46.8532C7.09996 47.6372 6.77196 48.2332 6.11596 48.6412ZM4.84396 45.3892H2.29996V48.3172H4.84396C5.23596 48.3172 5.56796 48.1772 5.83996 47.8972C6.11996 47.6092 6.25996 47.2612 6.25996 46.8532C6.25996 46.4532 6.11996 46.1092 5.83996 45.8212C5.56796 45.5332 5.23596 45.3892 4.84396 45.3892ZM5.11996 52.2052C5.53596 52.2052 5.88796 52.0572 6.17596 51.7612C6.47196 51.4572 6.61996 51.0892 6.61996 50.6572C6.61996 50.2332 6.47196 49.8692 6.17596 49.5652C5.88796 49.2612 5.53596 49.1092 5.11996 49.1092H2.29996V52.2052H5.11996Z" fill="#86898E"/>
<path d="M11.5774 53.1412C10.6734 53.1412 9.92137 52.8412 9.32137 52.2412C8.72137 51.6332 8.42137 50.8852 8.42137 49.9972C8.42137 49.1092 8.72137 48.3652 9.32137 47.7652C9.92137 47.1572 10.6734 46.8532 11.5774 46.8532C12.1694 46.8532 12.7014 46.9972 13.1734 47.2852C13.6454 47.5652 13.9894 47.9452 14.2054 48.4252L13.5574 48.7972C13.3974 48.4372 13.1374 48.1532 12.7774 47.9452C12.4254 47.7292 12.0254 47.6212 11.5774 47.6212C10.9134 47.6212 10.3534 47.8532 9.89737 48.3172C9.44137 48.7732 9.21337 49.3332 9.21337 49.9972C9.21337 50.6612 9.44137 51.2252 9.89737 51.6892C10.3534 52.1452 10.9134 52.3732 11.5774 52.3732C12.0254 52.3732 12.4254 52.2692 12.7774 52.0612C13.1294 51.8452 13.4054 51.5572 13.6054 51.1972L14.2654 51.5812C14.0174 52.0612 13.6534 52.4412 13.1734 52.7212C12.6934 53.0012 12.1614 53.1412 11.5774 53.1412Z" fill="#86898E"/>
<path d="M18.1159 46.8532C19.0039 46.8532 19.7199 47.1692 20.2639 47.8012C20.8159 48.4252 21.0919 49.1652 21.0919 50.0212C21.0919 50.1092 21.0839 50.2332 21.0679 50.3932H15.7999C15.8799 51.0012 16.1359 51.4852 16.5679 51.8452C17.0079 52.1972 17.5479 52.3732 18.1879 52.3732C18.6439 52.3732 19.0359 52.2812 19.3639 52.0972C19.6999 51.9052 19.9519 51.6572 20.1199 51.3532L20.8159 51.7612C20.5519 52.1852 20.1919 52.5212 19.7359 52.7692C19.2799 53.0172 18.7599 53.1412 18.1759 53.1412C17.2319 53.1412 16.4639 52.8452 15.8719 52.2532C15.2799 51.6612 14.9839 50.9092 14.9839 49.9972C14.9839 49.1012 15.2759 48.3532 15.8599 47.7532C16.4439 47.1532 17.1959 46.8532 18.1159 46.8532ZM18.1159 47.6212C17.4919 47.6212 16.9679 47.8092 16.5439 48.1852C16.1279 48.5532 15.8799 49.0332 15.7999 49.6252H20.2759C20.1959 48.9932 19.9519 48.5012 19.5439 48.1492C19.1359 47.7972 18.6599 47.6212 18.1159 47.6212Z" fill="#86898E"/>
<path d="M30.3917 52.2292H31.2317V54.6052H30.4397V52.9972H25.5437V54.6052H24.7517V52.2292H25.4837C25.8917 51.6932 26.0957 50.9372 26.0957 49.9612V46.9972H30.3917V52.2292ZM26.4437 52.2292H29.5997V47.7652H26.8877V49.9612C26.8877 50.8812 26.7397 51.6372 26.4437 52.2292Z" fill="#86898E"/>
<path d="M37.3498 46.9972V52.9972H36.5578V47.7652H33.8458V50.4412C33.8458 51.4412 33.6538 52.1292 33.2698 52.5052C32.8938 52.8812 32.3738 53.0452 31.7098 52.9972V52.2532C32.1658 52.3012 32.5018 52.1932 32.7178 51.9292C32.9418 51.6652 33.0538 51.1692 33.0538 50.4412V46.9972H37.3498Z" fill="#86898E"/>
<path d="M43.3475 46.9972V52.9972H42.5555V50.6932H41.5235L39.6755 52.9972H38.6675L40.5635 50.6692C40.0835 50.5972 39.6875 50.3972 39.3755 50.0692C39.0635 49.7412 38.9075 49.3372 38.9075 48.8572C38.9075 48.3132 39.0995 47.8692 39.4835 47.5252C39.8755 47.1732 40.3515 46.9972 40.9115 46.9972H43.3475ZM40.9115 49.9492H42.5555V47.7652H40.9115C40.5755 47.7652 40.2875 47.8652 40.0475 48.0652C39.8155 48.2652 39.6995 48.5292 39.6995 48.8572C39.6995 49.1852 39.8155 49.4492 40.0475 49.6492C40.2875 49.8492 40.5755 49.9492 40.9115 49.9492Z" fill="#86898E"/>
<path d="M53.9075 46.9972V52.9972H53.1155V48.2092L51.0155 51.6172H50.9195L48.8195 48.2092V52.9972H48.0275V46.9972H48.9395L50.9675 50.2852L52.9955 46.9972H53.9075Z" fill="#86898E"/>
<path d="M60.7461 46.9972H61.5381V52.9972H60.7461V51.8212C60.1941 52.7012 59.3861 53.1412 58.3221 53.1412C57.4661 53.1412 56.7341 52.8372 56.1261 52.2292C55.5261 51.6212 55.2261 50.8772 55.2261 49.9972C55.2261 49.1172 55.5261 48.3732 56.1261 47.7652C56.7341 47.1572 57.4661 46.8532 58.3221 46.8532C59.3861 46.8532 60.1941 47.2932 60.7461 48.1732V46.9972ZM56.7021 51.6892C57.1581 52.1452 57.7181 52.3732 58.3821 52.3732C59.0461 52.3732 59.6061 52.1452 60.0621 51.6892C60.5181 51.2252 60.7461 50.6612 60.7461 49.9972C60.7461 49.3332 60.5181 48.7732 60.0621 48.3172C59.6061 47.8532 59.0461 47.6212 58.3821 47.6212C57.7181 47.6212 57.1581 47.8532 56.7021 48.3172C56.2461 48.7732 56.0181 49.3332 56.0181 49.9972C56.0181 50.6612 56.2461 51.2252 56.7021 51.6892Z" fill="#86898E"/>
<path d="M70.463 46.9972H71.255V52.9972H63.215V46.9972H64.007V52.2292H66.839V46.9972H67.631V52.2292H70.463V46.9972Z" fill="#86898E"/>
<path d="M77.2978 46.9972H77.9698V52.9972H77.1778V48.3772L73.6018 52.9972H72.9298V46.9972H73.7218V51.6172L77.2978 46.9972Z" fill="#86898E"/>
<path d="M83.8926 46.9972H84.6846V52.9972H83.8926V50.3812H80.4366V52.9972H79.6446V46.9972H80.4366V49.6132H83.8926V46.9972Z" fill="#86898E"/>
<path d="M90.6075 46.9972H91.3995V52.9972H90.6075V50.3812H87.1515V52.9972H86.3595V46.9972H87.1515V49.6132H90.6075V46.9972Z" fill="#86898E"/>
<path d="M98.1023 52.2412C97.4943 52.8412 96.7503 53.1412 95.8703 53.1412C94.9903 53.1412 94.2423 52.8412 93.6263 52.2412C93.0183 51.6332 92.7143 50.8852 92.7143 49.9972C92.7143 49.1092 93.0183 48.3652 93.6263 47.7652C94.2423 47.1572 94.9903 46.8532 95.8703 46.8532C96.7503 46.8532 97.4943 47.1572 98.1023 47.7652C98.7183 48.3652 99.0263 49.1092 99.0263 49.9972C99.0263 50.8852 98.7183 51.6332 98.1023 52.2412ZM94.1903 51.6892C94.6463 52.1452 95.2063 52.3732 95.8703 52.3732C96.5343 52.3732 97.0943 52.1452 97.5503 51.6892C98.0063 51.2252 98.2343 50.6612 98.2343 49.9972C98.2343 49.3332 98.0063 48.7732 97.5503 48.3172C97.0943 47.8532 96.5343 47.6212 95.8703 47.6212C95.2063 47.6212 94.6463 47.8532 94.1903 48.3172C93.7343 48.7732 93.5063 49.3332 93.5063 49.9972C93.5063 50.6612 93.7343 51.2252 94.1903 51.6892Z" fill="#86898E"/>
<path d="M101.312 46.0372V45.3412H104.432V46.0372H101.312ZM104.72 46.9972H105.392V52.9972H104.6V48.3772L101.024 52.9972H100.352V46.9972H101.144V51.6172L104.72 46.9972Z" fill="#86898E"/>
<path d="M113.883 49.9132C114.539 50.1532 114.867 50.6212 114.867 51.3172C114.867 51.8052 114.703 52.2092 114.375 52.5292C114.055 52.8412 113.591 52.9972 112.983 52.9972H110.067V46.9972H112.743C113.327 46.9972 113.779 47.1492 114.099 47.4532C114.419 47.7492 114.579 48.1332 114.579 48.6052C114.579 49.2052 114.347 49.6412 113.883 49.9132ZM112.743 47.7652H110.859V49.5892H112.743C113.439 49.5892 113.787 49.2772 113.787 48.6532C113.787 48.3732 113.695 48.1572 113.511 48.0052C113.335 47.8452 113.079 47.7652 112.743 47.7652ZM112.983 52.2292C113.335 52.2292 113.603 52.1452 113.787 51.9772C113.979 51.8092 114.075 51.5732 114.075 51.2692C114.075 50.9892 113.979 50.7692 113.787 50.6092C113.603 50.4412 113.335 50.3572 112.983 50.3572H110.859V52.2292H112.983Z" fill="#86898E"/>
<path d="M118.503 49.2772C119.063 49.2772 119.535 49.4532 119.919 49.8052C120.311 50.1492 120.507 50.5932 120.507 51.1372C120.507 51.6812 120.311 52.1292 119.919 52.4812C119.535 52.8252 119.063 52.9972 118.503 52.9972H116.067V46.9972H116.859V49.2772H118.503ZM121.347 46.9972H122.139V52.9972H121.347V46.9972ZM118.503 52.2292C118.839 52.2292 119.123 52.1292 119.355 51.9292C119.595 51.7292 119.715 51.4652 119.715 51.1372C119.715 50.8092 119.595 50.5452 119.355 50.3452C119.123 50.1452 118.839 50.0452 118.503 50.0452H116.859V52.2292H118.503Z" fill="#86898E"/>
<path d="M131.072 46.9972H131.864V52.9972H123.824V46.9972H124.616V52.2292H127.448V46.9972H128.24V52.2292H131.072V46.9972Z" fill="#86898E"/>
<path d="M137.907 46.9972H138.579V52.9972H137.787V48.3772L134.211 52.9972H133.539V46.9972H134.331V51.6172L137.907 46.9972Z" fill="#86898E"/>
<path d="M144.07 49.9132C144.726 50.1532 145.054 50.6212 145.054 51.3172C145.054 51.8052 144.89 52.2092 144.562 52.5292C144.242 52.8412 143.778 52.9972 143.17 52.9972H140.254V46.9972H142.93C143.514 46.9972 143.966 47.1492 144.286 47.4532C144.606 47.7492 144.766 48.1332 144.766 48.6052C144.766 49.2052 144.534 49.6412 144.07 49.9132ZM142.93 47.7652H141.046V49.5892H142.93C143.626 49.5892 143.974 49.2772 143.974 48.6532C143.974 48.3732 143.882 48.1572 143.698 48.0052C143.522 47.8452 143.266 47.7652 142.93 47.7652ZM143.17 52.2292C143.522 52.2292 143.79 52.1452 143.974 51.9772C144.166 51.8092 144.262 51.5732 144.262 51.2692C144.262 50.9892 144.166 50.7692 143.974 50.6092C143.79 50.4412 143.522 50.3572 143.17 50.3572H141.046V52.2292H143.17Z" fill="#86898E"/>
<path d="M151.102 52.9972H150.046L147.046 50.1052V52.9972H146.254V46.9972H147.046V49.6492L149.902 46.9972H150.982L147.886 49.8772L151.102 52.9972Z" fill="#86898E"/>
<path d="M156.552 46.9972H157.224V52.9972H156.432V48.3772L152.856 52.9972H152.184V46.9972H152.976V51.6172L156.552 46.9972Z" fill="#86898E"/>
<path d="M58.6164 29.9355C54.0695 29.9355 51.3589 27.0768 51.3589 22.3031C51.3589 17.5571 54.2735 14.3376 58.529 14.3376C63.6005 14.3376 65.5241 18.1677 65.5241 22.4141V22.7472H53.9238L53.8946 22.9137C53.8946 26.0499 55.7309 27.9372 58.7038 27.9372C60.919 27.9372 62.1431 27.0213 62.8718 24.801H65.3493C64.5914 28.2147 62.2889 29.9355 58.6164 29.9355ZM58.4707 16.3359C55.9932 16.3359 54.2444 18.0567 53.9238 20.8044H62.9009C62.6678 18.029 61.0064 16.3359 58.4707 16.3359Z" fill="#444444"/>
<path d="M69.1093 16.9187C70.4209 15.2257 71.849 14.4208 74.1225 14.4208C76.1919 14.4208 77.6201 15.1979 78.407 16.9465C79.7186 15.2534 81.2051 14.3931 83.5077 14.3931C86.7721 14.3931 88.3752 16.2248 88.3752 19.1945V29.4636H85.8394V20.2215C85.8394 18.1399 85.5188 16.5579 82.7499 16.5579C79.8352 16.5579 78.8151 18.4452 78.8151 21.1373V29.4914H76.2793V20.0549C76.2793 18.1121 75.9004 16.5856 73.4521 16.5856C70.042 16.5856 69.255 18.9448 69.255 21.7202V29.4914H66.7192V14.7816H69.1093V16.9187Z" fill="#444444"/>
<path d="M93.2423 16.8076C94.4082 15.1146 96.2444 14.393 98.343 14.393C102.569 14.393 105.309 17.4182 105.309 22.0809C105.309 26.8269 102.511 29.9076 98.1972 29.9076C96.0695 29.9076 94.0876 29.1583 93.0966 27.3542V29.4913H90.7065V9.23071H93.2423V16.8076ZM93.1549 22.2197C93.1549 25.689 95.0202 27.8538 97.9641 27.8538C100.791 27.8538 102.686 25.578 102.686 22.0809C102.686 18.6116 100.82 16.4191 97.9641 16.4191C94.4373 16.4191 93.1549 19.3055 93.1549 22.2197Z" fill="#444444"/>
<path d="M131.308 29.4635H127.985V26.2996H131.308V29.4635Z" fill="#444444"/>
<path d="M142.296 16.9464C142.034 16.9186 141.918 16.9186 141.626 16.9186C137.429 16.9186 136.7 19.9716 136.7 23.2743V29.4913H134.165V14.7815H136.584V17.9455C137.662 15.4754 139.557 14.4485 142.296 14.4485V16.9464Z" fill="#444444"/>
<path d="M155.5 29.4635H153.139V27.1599C151.798 29.0194 150.079 29.852 147.805 29.852C144.57 29.852 142.675 28.1035 142.675 24.8563V14.7815H145.211V24.2457C145.211 26.355 145.852 27.7705 148.446 27.7705C151.798 27.7705 152.964 25.4946 152.964 22.4694V14.7815H155.5V29.4635Z" fill="#444444"/>
<path d="M111.08 14.2266L105.833 29.4636H121.835L127.081 14.2266H111.08ZM117.58 28.1592H115.248V18.3619H113.557V16.1416H117.58V28.1592Z" fill="#00AEF0"/>
<path d="M25.9748 29.2043C25.9748 28.9953 25.9504 28.9023 25.8285 28.763C25.7309 28.6469 24.926 27.7642 24.7064 27.532H21.0477C20.8281 27.7642 20.0232 28.6469 19.9256 28.763C19.8037 28.9023 19.7793 28.9953 19.7793 29.2043C19.7793 29.2972 19.7793 38.7504 19.7793 38.7504L22.877 38.6575L25.9748 38.7504C25.9748 38.7504 25.9748 29.2972 25.9748 29.2043Z" fill="#0E3E8A"/>
<path d="M24.7066 27.5089V26.5799C24.7066 26.2779 24.4627 26.0457 24.1456 26.0457H21.6089C21.2918 26.0457 21.0479 26.2779 21.0479 26.5799V27.5089H24.7066Z" fill="white"/>
<path fill-rule="evenodd" clip-rule="evenodd" d="M20.8574 26.5799C20.8574 26.1776 21.1867 25.8645 21.6084 25.8645H24.1451C24.5668 25.8645 24.8961 26.1776 24.8961 26.5799V27.6901H20.8574V26.5799ZM21.6084 26.2268C21.3959 26.2268 21.2373 26.3783 21.2373 26.5799V27.3278H24.5162V26.5799C24.5162 26.3783 24.3576 26.2268 24.1451 26.2268H21.6084Z" fill="#828282"/>
<path d="M27.1221 38.7506C27.1221 38.4254 26.8538 38.1699 26.5123 38.1699H19.2436C18.9021 38.1699 18.6338 38.4254 18.6338 38.7506V39.2383C18.6338 39.5635 18.9021 39.819 19.2436 39.819H26.5367C26.8782 39.819 27.1465 39.5635 27.1465 39.2383V38.7506H27.1221Z" fill="white"/>
<path fill-rule="evenodd" clip-rule="evenodd" d="M18.4434 38.7504C18.4434 38.3248 18.797 37.9885 19.2431 37.9885H26.5118C26.8923 37.9885 27.2056 38.2332 27.2895 38.5692H27.336V39.2381C27.336 39.6636 26.9823 39.9999 26.5362 39.9999H19.2431C18.797 39.9999 18.4434 39.6636 18.4434 39.2381V38.7504ZM26.9561 38.9315H26.9317V38.7504C26.9317 38.5255 26.7487 38.3509 26.5118 38.3509H19.2431C19.0062 38.3509 18.8232 38.5255 18.8232 38.7504V39.2381C18.8232 39.4629 19.0062 39.6376 19.2431 39.6376H26.5362C26.7731 39.6376 26.9561 39.4629 26.9561 39.2381V38.9315Z" fill="#7A7A7A"/>
<path d="M18.7788 29.7618C18.9251 29.5992 18.9739 29.5063 18.9739 29.3205C18.9739 29.1579 18.9739 27.9966 18.9739 27.6946L16.2176 25.4417C15.8761 25.4881 14.6809 25.6507 14.5102 25.6739C14.3151 25.6971 14.2419 25.7436 14.0711 25.9062C13.998 25.9759 7.50977 33.1296 7.50977 33.1296L9.90016 34.9877L12.193 36.9852C12.2174 36.9852 18.7056 29.8315 18.7788 29.7618Z" fill="#4392C8"/>
<path d="M18.975 27.6946L19.6092 26.9746C19.8044 26.7423 19.78 26.4172 19.5604 26.2314L17.6579 24.652C17.414 24.4661 17.0725 24.4894 16.8774 24.7216L16.2432 25.4417L18.975 27.6946Z" fill="white"/>
<path fill-rule="evenodd" clip-rule="evenodd" d="M16.7309 24.607C16.9971 24.2921 17.4583 24.2682 17.7767 24.5108L17.7798 24.5132L19.6868 26.0962C19.987 26.3504 20.0118 26.7858 19.7577 27.0883L19.755 27.0916L18.9968 27.9523L15.9775 25.4623L16.7309 24.607ZM17.5367 24.7917C17.3683 24.6655 17.1494 24.6882 17.0258 24.8353L17.0231 24.8386L16.5093 25.4218L18.9538 27.4378L19.4625 26.8602C19.5971 26.6986 19.5731 26.485 19.4352 26.3678L17.5367 24.7917Z" fill="#828282"/>
<path d="M13.0961 37.7054C13.3156 37.4731 13.2912 37.1015 13.0229 36.8925L7.51037 32.3401C7.26645 32.131 6.87618 32.1543 6.65666 32.4098L6.31517 32.7814C6.09565 33.0136 6.12004 33.3853 6.38835 33.5943L11.9009 38.1467C12.1448 38.3557 12.5351 38.3325 12.7546 38.077L13.0961 37.7054Z" fill="white"/>
<path fill-rule="evenodd" clip-rule="evenodd" d="M7.63545 32.2042L13.1448 36.754C13.4941 37.028 13.5287 37.5166 13.2376 37.8257L12.8989 38.1944C12.6112 38.5264 12.0992 38.5593 11.7749 38.2827L6.26547 33.7329C5.91623 33.4588 5.88156 32.9703 6.17267 32.6611L6.5114 32.2925C6.7991 31.9604 7.31116 31.9276 7.63545 32.2042ZM7.38295 32.4749C7.22013 32.3353 6.95444 32.3485 6.80309 32.5246L6.8011 32.5269L6.45579 32.9027C6.3095 33.0575 6.32313 33.31 6.50803 33.454L6.51014 33.4557L12.0274 38.012C12.1902 38.1515 12.4559 38.1384 12.6072 37.9622L12.6092 37.9599L12.9545 37.5841C13.1008 37.4293 13.0872 37.1769 12.9023 37.0328L12.9002 37.0312L7.38295 32.4749Z" fill="#7A7A7A"/>
<path d="M13.4875 25.4184C13.707 25.3487 13.7802 25.279 13.8778 25.1397C13.951 25.0003 14.5608 24.0016 14.7315 23.7228L13.5363 20.4479C13.2192 20.3318 12.0972 19.9137 11.9264 19.844C11.7557 19.7743 11.6337 19.7743 11.4386 19.844C11.341 19.8672 1.97461 22.9796 1.97461 22.9796L3.07224 25.7435L3.99912 28.5539C3.99912 28.5539 13.3899 25.4416 13.4875 25.4184Z" fill="#299152"/>
<path d="M14.7304 23.7233L15.6573 23.4213C15.95 23.3284 16.0963 23.0265 15.9987 22.7477L15.1938 20.4483C15.0963 20.1696 14.7792 20.0302 14.4865 20.1231L13.5596 20.4251L14.7304 23.7233Z" fill="white"/>
<path fill-rule="evenodd" clip-rule="evenodd" d="M14.4269 19.9511C14.8123 19.8288 15.2414 20.0109 15.3744 20.3908L16.1793 22.6902C16.3079 23.0576 16.1165 23.4661 15.7184 23.5928L14.612 23.9533L13.3193 20.3119L14.4269 19.9511ZM14.5475 20.2947L13.8007 20.538L14.8496 23.493L15.5977 23.2493C15.7846 23.19 15.8855 22.9948 15.819 22.805L15.0141 20.5055C14.952 20.3282 14.7474 20.2316 14.5475 20.2947Z" fill="#828282"/>
<path d="M4.38972 29.5759C4.70681 29.4598 4.87756 29.1346 4.7556 28.8327L2.36521 22.2828C2.24325 21.9808 1.90176 21.8183 1.58467 21.9344L1.09683 22.097C0.779741 22.2131 0.608999 22.5383 0.730957 22.8402L3.12135 29.3901C3.24331 29.692 3.58479 29.8546 3.90189 29.7385L4.38972 29.5759Z" fill="white"/>
<path fill-rule="evenodd" clip-rule="evenodd" d="M1.51839 21.7643C1.94145 21.6111 2.38564 21.8322 2.54137 22.2178L2.54249 22.2206L4.93295 28.7706C5.09395 29.1741 4.86117 29.597 4.45673 29.7452L4.45403 29.7462L3.966 29.9088C3.54295 30.062 3.09876 29.8409 2.94303 29.4554L2.94191 29.4526L0.551454 22.9025C0.390452 22.4991 0.623237 22.0761 1.02767 21.928L1.03037 21.927L1.51839 21.7643ZM2.18585 22.3455C2.09721 22.1298 1.86112 22.0269 1.65168 22.1036L1.64898 22.1046L1.16137 22.2671C0.934297 22.3516 0.826821 22.5764 0.907124 22.7752L0.908242 22.778L3.29855 29.3276C3.3872 29.5433 3.62328 29.6462 3.83272 29.5695L3.83542 29.5685L4.32305 29.406C4.55011 29.3215 4.65758 29.0967 4.57728 28.8979L4.57616 28.8951L2.18585 22.3455Z" fill="#7A7A7A"/>
<path d="M11.7551 19.0081C11.9746 19.0778 12.0722 19.0778 12.2429 19.0081C12.3893 18.9617 13.5357 18.5436 13.8528 18.4275L15.0724 15.1758C14.9016 14.897 14.3162 13.8751 14.2187 13.7589C14.1211 13.5964 14.0479 13.5499 13.8284 13.457C13.7552 13.4105 4.41319 10.2285 4.41319 10.2285L3.46191 13.0389L2.33989 15.7797C2.3155 15.7564 11.6575 18.9617 11.7551 19.0081Z" fill="#EDB900"/>
<path d="M13.8525 18.4273L14.7794 18.7524C15.0721 18.8453 15.3892 18.706 15.4868 18.4273L16.3405 16.1743C16.4381 15.8956 16.2917 15.5936 15.999 15.5007L15.0721 15.1755L13.8525 18.4273Z" fill="white"/>
<path fill-rule="evenodd" clip-rule="evenodd" d="M14.9579 14.9426L16.0621 15.33C16.4586 15.4576 16.6491 15.8652 16.5207 16.2319L16.5192 16.2361L15.6662 18.4871C15.5323 18.8655 15.1041 19.0466 14.7195 18.9245L14.7167 18.9236L13.6104 18.5355L14.9579 14.9426ZM15.1865 15.4089L14.0949 18.3194L14.842 18.5815C15.0413 18.6434 15.2448 18.5468 15.3067 18.3701L15.3082 18.3659L16.1611 16.1152C16.2262 15.926 16.1253 15.7319 15.9391 15.6728L15.9363 15.6719L15.1865 15.4089Z" fill="#828282"/>
<path d="M1.92451 16.8015C2.24161 16.9176 2.58309 16.755 2.70505 16.4531L5.16861 9.92641C5.29057 9.62446 5.11983 9.29929 4.80274 9.18316L4.3149 9.02057C3.99781 8.90444 3.65633 9.06702 3.53437 9.36897L1.0708 15.8956C0.948842 16.1976 1.11958 16.5227 1.43668 16.6389L1.92451 16.8015Z" fill="white"/>
<path fill-rule="evenodd" clip-rule="evenodd" d="M4.38001 8.85052L4.86803 9.01317L4.87073 9.01416C5.27548 9.16239 5.50831 9.58591 5.34657 9.98966L2.88224 16.5183C2.7265 16.9039 2.28226 17.125 1.8592 16.9718L1.37119 16.8091L1.36849 16.8081C0.963737 16.6599 0.730904 16.2364 0.892656 15.8326L3.35698 9.30395C3.51272 8.91838 3.95695 8.69732 4.38001 8.85052ZM3.71221 9.43251L1.24799 15.9609C1.16769 16.1597 1.27512 16.3844 1.50218 16.4689L1.9898 16.6315L1.9925 16.6325C2.20221 16.7093 2.43863 16.606 2.52701 16.3898L4.99123 9.86139C5.07154 9.66257 4.9641 9.43783 4.73703 9.35333L4.24942 9.19082L4.24672 9.18983C4.03701 9.11302 3.80059 9.21623 3.71221 9.43251Z" fill="#7A7A7A"/>
<path d="M28.268 12.2723C28.0973 12.4116 28.0485 12.4813 27.9997 12.6671C27.9753 12.8297 27.7558 13.9678 27.6826 14.2697L29.9511 16.964C30.2925 16.964 31.5121 17.0105 31.6585 17.0105C31.8536 17.0105 31.9512 16.9872 32.1219 16.8479C32.1951 16.7782 39.9273 10.8554 39.9273 10.8554L37.9028 8.60247L36.0246 6.25659C36.0734 6.27982 28.3412 12.2258 28.268 12.2723Z" fill="#0C0F06"/>
<path d="M35.3418 5.42043C35.0735 5.62947 35.0491 5.97787 35.2442 6.23336L39.8299 11.6451C40.0494 11.9006 40.4153 11.9239 40.6836 11.738L41.0739 11.4361C41.3422 11.2271 41.3666 10.8787 41.1714 10.6232L36.6102 5.2114C36.3906 4.9559 36.0248 4.93268 35.7565 5.11849L35.3418 5.42043Z" fill="white"/>
<path fill-rule="evenodd" clip-rule="evenodd" d="M35.6452 4.97226C35.9867 4.73575 36.4679 4.76 36.7574 5.09694L36.7586 5.09826L41.3227 10.5134L41.3253 10.5169C41.5739 10.8424 41.5483 11.301 41.1944 11.5768L41.1939 11.5772L40.7997 11.8822L40.7955 11.885C40.454 12.1215 39.9728 12.0973 39.6833 11.7603L39.6825 11.7594L35.0939 6.34408L35.0911 6.34041C34.8425 6.01491 34.8681 5.55624 35.222 5.2805L35.2244 5.27862L35.6452 4.97226ZM35.8701 5.26429L35.4601 5.56285C35.2805 5.70451 35.2573 5.93943 35.3955 6.12367L39.9771 11.5307C39.9773 11.5308 39.9774 11.531 39.9775 11.5311C40.1262 11.7036 40.3742 11.7265 40.5685 11.5944L40.9541 11.2962C40.9541 11.2961 40.954 11.2962 40.9541 11.2962C41.1355 11.1546 41.1596 10.9184 41.0207 10.7334L36.4631 5.326C36.3139 5.15301 36.0647 5.13064 35.8701 5.26429Z" fill="#7A7A7A"/>
<path d="M32.365 17.8699C32.1455 17.8467 32.0479 17.8699 31.8771 17.9629C31.7308 18.0558 30.7307 18.6829 30.438 18.8687L29.9502 22.3062C30.1697 22.5385 30.9746 23.4211 31.0966 23.5372C31.2186 23.6766 31.3161 23.723 31.5357 23.7463C31.6332 23.7695 41.4875 25.0005 41.4875 25.0005L41.8046 22.0739L42.2924 19.1706C42.2924 19.1242 32.4625 17.8699 32.365 17.8699Z" fill="url(#paint0_linear)"/>
<path d="M30.4386 18.8455L29.4629 18.7294C29.1458 18.6829 28.8775 18.8919 28.8287 19.1939L28.4873 21.5862C28.4385 21.8882 28.658 22.1437 28.9751 22.1901L29.9508 22.3062L30.4386 18.8455Z" fill="white"/>
<path fill-rule="evenodd" clip-rule="evenodd" d="M29.4896 18.5498L30.653 18.6883L30.1146 22.5081L28.9469 22.3692C28.5384 22.3093 28.2345 21.9712 28.2999 21.5602L28.6416 19.1662C28.7045 18.777 29.0592 18.4882 29.4896 18.5498ZM29.0173 19.2199L28.6756 21.6137C28.6447 21.8052 28.7784 21.9767 29.0021 22.0106L29.7882 22.1042L30.2254 19.0025L29.4347 18.9084C29.2326 18.8788 29.0525 19.007 29.0173 19.2199Z" fill="#828282"/>
<path d="M42.4647 18.0325C42.1232 17.9861 41.8305 18.2184 41.7817 18.5203L40.8305 25.3953C40.7817 25.7205 41.0256 25.9992 41.3427 26.0457L41.8549 26.1154C42.1964 26.1618 42.4891 25.9296 42.5379 25.6276L43.4892 18.7526C43.5379 18.4274 43.294 18.1487 42.9769 18.1022L42.4647 18.0325Z" fill="white"/>
<path fill-rule="evenodd" clip-rule="evenodd" d="M41.5936 18.4928C41.6571 18.0997 42.0395 17.7919 42.4911 17.8533L43.0054 17.9233C43.4172 17.9836 43.7409 18.3469 43.6769 18.7773L42.7253 25.6553C42.6617 26.0484 42.2793 26.3563 41.8277 26.2948L41.3134 26.2249C40.9016 26.1645 40.5779 25.8012 40.6419 25.3708L41.5936 18.4928ZM41.9694 18.5462L41.0181 25.4211C40.9852 25.6404 41.1487 25.8337 41.3702 25.8666C41.3705 25.8666 41.3708 25.8667 41.3711 25.8667L41.8813 25.9361C42.112 25.9675 42.3146 25.8118 42.3495 25.6019L43.3007 18.727C43.3336 18.5078 43.1701 18.3144 42.9486 18.2815L42.4375 18.212C42.2068 18.1806 42.0042 18.3364 41.9694 18.5462Z" fill="#7A7A7A"/>
<path d="M31.3423 24.6522C31.1959 24.4896 31.0984 24.4432 30.9032 24.4199C30.7325 24.3967 29.5373 24.2806 29.1958 24.2341L26.5371 26.6032C26.5615 26.9284 26.5859 28.0897 26.6103 28.2291C26.6103 28.4149 26.6591 28.5078 26.8054 28.6704C26.8786 28.7401 33.6351 35.6616 33.6351 35.6616L35.8304 33.5944L38.1476 31.6434C38.1964 31.6434 31.4155 24.7219 31.3423 24.6522Z" fill="#192B57"/>
<path d="M29.2192 24.2341L28.5363 23.5373C28.3167 23.3282 27.9753 23.305 27.7557 23.5141L25.902 25.1631C25.6824 25.3722 25.658 25.6973 25.8776 25.9064L26.5605 26.6032L29.2192 24.2341Z" fill="white"/>
<path fill-rule="evenodd" clip-rule="evenodd" d="M27.6236 23.3834C27.928 23.0961 28.3884 23.1407 28.6701 23.4089L28.6724 23.4112L29.4874 24.2426L26.5511 26.8591L25.7405 26.0321C25.4386 25.742 25.4856 25.3031 25.7674 25.0348L25.7697 25.0326L27.6236 23.3834ZM28.3996 23.6634C28.2431 23.5162 28.0236 23.5145 27.8895 23.6421L27.8873 23.6443L26.0337 25.2932C25.8793 25.4421 25.8776 25.6506 26.0114 25.7781L26.0137 25.7803L26.5692 26.347L28.9503 24.2253L28.3996 23.6634Z" fill="#828282"/>
<path d="M39.0249 30.8767C38.8053 30.6444 38.4151 30.6212 38.1712 30.8535L32.8294 35.5917C32.5855 35.8007 32.5611 36.1723 32.805 36.4046L33.1465 36.753C33.366 36.9852 33.7563 37.0085 34.0002 36.7762L39.342 32.038C39.5859 31.829 39.6103 31.4573 39.3664 31.2251L39.0249 30.8767Z" fill="white"/>
<path fill-rule="evenodd" clip-rule="evenodd" d="M39.1652 30.7541L39.5035 31.0993C39.8249 31.4079 39.7901 31.8968 39.4707 32.1717L34.1324 36.9069C33.8085 37.2125 33.2958 37.1795 33.0072 36.8756L32.6688 36.5305C32.3475 36.2219 32.3823 35.733 32.7017 35.4581L38.04 30.7229C38.3639 30.4172 38.8766 30.4502 39.1652 30.7541ZM38.8843 30.998C38.7344 30.8394 38.4696 30.8259 38.3059 30.9817L38.3035 30.984L32.9569 35.7265C32.7904 35.8691 32.7762 36.1208 32.9397 36.2764L32.942 36.2786L33.2881 36.6317C33.438 36.7903 33.7028 36.8039 33.8665 36.648L33.8689 36.6458L39.2155 31.9033C39.382 31.7606 39.3961 31.509 39.2327 31.3533L39.2304 31.3511L38.8843 30.998Z" fill="#7A7A7A"/>
<path d="M27.5129 11.738C27.4642 11.947 27.4154 12.0399 27.269 12.156C27.1471 12.2489 26.2202 12.9922 25.9519 13.2012L22.3663 12.6438C22.1955 12.3651 21.5613 11.3896 21.4638 11.2502C21.3662 11.0876 21.3418 10.9947 21.3906 10.7857C21.415 10.6928 23.0249 1.35571 23.0249 1.35571L26.0738 1.91315L29.1472 2.308C29.1472 2.33123 27.5373 11.6451 27.5129 11.738Z" fill="#D21A1C"/>
<path d="M25.9751 13.2015L25.8043 14.1306C25.7555 14.4325 25.4628 14.6183 25.1701 14.5719L22.6822 14.177C22.3895 14.1306 22.1699 13.8519 22.2187 13.5499L22.3895 12.6208L25.9751 13.2015Z" fill="white"/>
<path fill-rule="evenodd" clip-rule="evenodd" d="M22.2345 12.4121L26.1946 13.0534L25.9912 14.1602C25.9249 14.5639 25.5315 14.813 25.1385 14.7506L22.6505 14.3558C22.2541 14.2929 21.9661 13.9213 22.0305 13.5224L22.0311 13.5187L22.2345 12.4121ZM22.5435 12.8297L22.4057 13.5792C22.3737 13.7835 22.5243 13.9684 22.7129 13.9984L25.2008 14.3932C25.3926 14.4236 25.584 14.302 25.6161 14.103L25.6167 14.0993L25.7545 13.3497L22.5435 12.8297Z" fill="#828282"/>
<path d="M30.2935 2.49398C30.2447 2.81915 29.9276 3.02819 29.5862 2.95851L22.3906 1.82041C22.0491 1.77396 21.8296 1.47201 21.9027 1.14684L21.9759 0.659084C22.0247 0.333913 22.3418 0.124874 22.6833 0.194554L29.8789 1.33265C30.2203 1.3791 30.4399 1.68105 30.3667 2.00622L30.2935 2.49398Z" fill="white"/>
<path fill-rule="evenodd" clip-rule="evenodd" d="M22.6431 0.371731C22.4072 0.323604 22.1964 0.465378 22.1635 0.684766L22.0894 1.17874L22.088 1.18488C22.0376 1.40867 22.1858 1.60964 22.4169 1.64108L22.4212 1.64166L29.6211 2.78049L29.6254 2.78137C29.8613 2.8295 30.0721 2.68772 30.105 2.46833L30.1791 1.97436L30.1805 1.96822C30.2309 1.74443 30.0826 1.54346 29.8516 1.51202L29.8473 1.51144L22.6474 0.372611L22.6431 0.371731ZM22.718 0.0164914C22.2725 -0.0719232 21.8519 0.203961 21.7874 0.633441L21.7151 1.11538C21.6237 1.53879 21.9127 1.93728 22.361 1.99947L29.5505 3.13661C29.9959 3.22502 30.4166 2.94914 30.4811 2.51966L30.5534 2.03772C30.6448 1.61431 30.3557 1.21582 29.9075 1.15363L22.718 0.0164914Z" fill="#7A7A7A"/>
<path d="M14.8526 13.0623C14.9502 13.2481 15.0233 13.3178 15.1941 13.4107C15.3404 13.4803 16.438 13.9681 16.7551 14.0842L20.048 12.6442C20.1456 12.3422 20.4871 11.2274 20.5115 11.0648C20.5603 10.9022 20.5603 10.7861 20.4627 10.6003C20.4139 10.5073 16.2673 1.93677 16.2673 1.93677L13.4866 3.23745L10.6328 4.39878C10.6328 4.39878 14.8038 12.9926 14.8526 13.0623Z" fill="#FA5B15"/>
<path d="M16.7305 14.0841L17.1451 14.9435C17.2671 15.2222 17.6086 15.3384 17.8769 15.199L20.1697 14.2003C20.438 14.0841 20.56 13.7589 20.438 13.4802L20.0234 12.6208L16.7305 14.0841Z" fill="white"/>
<path fill-rule="evenodd" clip-rule="evenodd" d="M20.1158 12.3796L20.6116 13.4073L20.6129 13.4103C20.7699 13.769 20.6199 14.2039 20.248 14.365C20.248 14.365 20.2481 14.365 20.248 14.365L17.961 15.3612C17.5927 15.548 17.1351 15.3865 16.9709 15.0164L16.4785 13.9959L20.1158 12.3796ZM16.9817 14.1721L17.3187 14.8706L17.32 14.8736C17.4001 15.0565 17.6196 15.126 17.7857 15.0398L17.7915 15.0367L20.0904 14.0353L20.0909 14.0352C20.2547 13.9643 20.3484 13.7505 20.2636 13.5526L19.9302 12.8618L16.9817 14.1721Z" fill="#828282"/>
<path d="M9.58458 4.86303C9.73093 5.14175 10.0968 5.28111 10.3895 5.14175L16.9997 2.23843C17.2924 2.09907 17.4387 1.75068 17.2924 1.47196L17.0728 1.03065C16.9265 0.751937 16.5606 0.612578 16.2679 0.751937L9.68215 3.65525C9.38945 3.79461 9.24309 4.14301 9.38945 4.42173L9.58458 4.86303Z" fill="white"/>
<path fill-rule="evenodd" clip-rule="evenodd" d="M16.1849 0.588568C16.5823 0.40128 17.0548 0.593601 17.2417 0.949546L17.2436 0.952996L17.4622 1.39269C17.6599 1.77184 17.4573 2.22259 17.0836 2.40055L17.0809 2.40182L10.4705 5.30522C10.0732 5.49239 9.6007 5.30008 9.41382 4.94417L9.41104 4.93889L9.21574 4.49719C9.02142 4.11885 9.22387 3.67053 9.59638 3.49318L9.59894 3.49196L16.1849 0.588568ZM16.9013 1.11024C16.7954 0.910681 16.5388 0.825026 16.3518 0.91405L16.3493 0.915265L9.76373 3.81847C9.55436 3.91963 9.46527 4.16336 9.55835 4.34062L9.56112 4.3459L9.75604 4.78671C9.86297 4.98396 10.1178 5.06821 10.3037 4.97967L10.3064 4.9784L16.9163 2.07519C17.1256 1.974 17.2147 1.73033 17.1216 1.55311L17.1198 1.54966L16.9013 1.11024Z" fill="#7A7A7A"/>
<path d="M27.6831 14.2698L26.927 14.8504C26.683 15.0362 26.6343 15.3614 26.8294 15.5937L28.4149 17.475C28.61 17.7073 28.9515 17.7305 29.1954 17.5447L29.9515 16.9641L27.6831 14.2698Z" fill="white"/>
<path fill-rule="evenodd" clip-rule="evenodd" d="M27.7126 14.0151L30.2189 16.9919L29.315 17.6861L29.3144 17.6865C28.9955 17.9295 28.5332 17.9051 28.2672 17.5886C28.2672 17.5886 28.2672 17.5886 28.2672 17.5886L26.6819 15.7074C26.4169 15.392 26.4884 14.9536 26.8086 14.7093L27.7126 14.0151ZM27.6546 14.5249L27.046 14.9922C26.8787 15.1197 26.853 15.3315 26.9781 15.4805C26.9781 15.4806 26.978 15.4805 26.9781 15.4805L28.5634 17.3618C28.6876 17.5096 28.9083 17.532 29.0771 17.4036C29.0772 17.4035 29.077 17.4036 29.0771 17.4036L29.6852 16.9366L27.6546 14.5249Z" fill="#828282"/>
<defs>
<linearGradient id="paint0_linear" x1="35.4784" y1="25.464" x2="36.5027" y2="17.1816" gradientUnits="userSpaceOnUse">
<stop offset="0.00395257" stop-color="#8E8C8C"/>
<stop offset="0.3399" stop-color="white"/>
<stop offset="0.6443" stop-color="#FAFAFA"/>
<stop offset="1" stop-color="#A19F9F"/>
</linearGradient>
</defs>
</svg>
